<mxfile host="65bd71144e">
    <diagram id="IYGk3clZ__VRBPO0I2nL" name="Page-1">
        <mxGraphModel dx="689" dy="315" grid="0" gridSize="10" guides="0" tooltips="1" connect="0" arrows="1" fold="1" page="0" pageScale="1" pageWidth="60" pageHeight="60" math="0" shadow="0">
            <root>
                <mxCell id="0"/>
                <mxCell id="1" parent="0"/>
                <mxCell id="10" value="" style="shape=cylinder3;whiteSpace=wrap;html=1;boundedLbl=1;backgroundOutline=1;size=15;fontSize=40;fillColor=#000000;" vertex="1" parent="1">
                    <mxGeometry x="-60" y="320" width="170" height="200" as="geometry"/>
                </mxCell>
                <mxCell id="5" value="" style="shape=image;verticalLabelPosition=bottom;labelBackgroundColor=#ffffff;verticalAlign=top;aspect=fixed;imageAspect=0;image=data:image/png,iVBORw0KGgoAAAANSUhEUgAAAwAAAAGGCAYAAADM9+ZiAAAK4WlDQ1BJQ0MgUHJvZmlsZQAASImVlwdUk8kWgOf/00NCC11K6B3pBJASegClV1EJSSChhJgQUMCGLK7AiqIigoqCqyIKrq6ArAURxYIIKGJBF2RRUNfFgg2V/YFH2N133nvn3XPmn+/c/86de++ZOecOAGQ/pkCQCssCkMbPEIb6elCjY2KpuKcAB/BAGigCVSZLJKAHBwcCRObmv8v7uwCanm+bT/v69///VeTZHBELACgO4QS2iJWGcCsynrMEwgwAUMcQvW5WhmCauxFWECIBIvzbNCfN8sdpTphhNGnGJjzUE2EqAHgSkylMAoBkhuipmawkxA9pOgdLPpvHRzgXYVcWl8lG+CzCZmlp6dM8irARYi8AgIxUB9AS/uIz6W/+EyT+mcwkCc/mNSN4L55IkMpc/X+W5n9LWqp4bg8DZJC4Qr/Q6Zoi9buXkh4gYX7CkqA55rFn6z7NXLFfxByzRJ6xc8xmegVI1qYuCZzjRJ4PQ+IngxE+xxyRd9gcC9NDJXslCj3pc8wUzu8rTomQ6LkchsR/Njc8ao4zeZFL5liUEhYwb+Mp0QvFoZL4OXxfj/l9fSS5p4n+ki+PIVmbwQ33k+TOnI+fw6fP+xRFS2Jjc7y8520iJPaCDA/JXoLUYIk9J9VXohdlhknWZiCHc35tsKSGyUz/4DkGgcAXUIEf8AKhyGwLkOwzOKsyphPxTBesFvKSuBlUOnLbOFQGn2VhRrW2tLYGYPruzh6HtyEzdxJS6pzXpe9HjvEEcl+2zusSdgHQtAkAlfvzOr0qAGTyAWi8xBILM2d16OkPBhCBDFAAqkAT6AIjYA6sgT1wBu7AG/iDIBAOYsBywAJckAaEIAvkgg2gABSBrWAnqABVoAYcAcfBSdAEzoKL4Aq4AbpBH3gIBsEIeAHGwXswCUEQDiJDFEgV0oL0IVPIGqJBrpA3FAiFQjFQPJQE8SExlAtthIqgUqgCOgDVQj9BZ6CL0DWoB7oPDUFj0BvoM4yCSbACrAEbwAthGkyHA+BweBmcBK+Es+F8eAtcDlfDx+BG+CJ8A+6DB+EX8AQKoKRQSihtlDmKhvJEBaFiUYkoIWotqhBVhqpG1aNaUB2o26hB1EvUJzQWTUFT0eZoZ7QfOgLNQq9Er0UXoyvQR9CN6Hb0bfQQehz9DUPGqGNMMU4YBiYak4TJwhRgyjCHMKcxlzF9mBHMeywWq4Q1xDpg/bAx2GRsDrYYuxfbgG3F9mCHsRM4HE4VZ4pzwQXhmLgMXAFuN+4Y7gKuFzeC+4iXwmvhrfE++Fg8H5+HL8MfxZ/H9+Kf4ScJsgR9ghMhiMAmrCaUEA4SWgi3CCOESaIc0ZDoQgwnJhM3EMuJ9cTLxAHiWykpKR0pR6kQKZ7UeqlyqRNSV6WGpD6R5EkmJE9SHElM2kI6TGol3Se9JZPJBmR3ciw5g7yFXEu+RH5M/ihNkbaQZkizpddJV0o3SvdKv5IhyOjL0GWWy2TLlMmckrkl81KWIGsg6ynLlF0rWyl7RrZfdkKOImclFySXJlcsd1TumtyoPE7eQN5bni2fL18jf0l+mIKi6FI8KSzKRspBymXKiAJWwVCBoZCsUKRwXKFLYVxRXtFWMVJxlWKl4jnFQSWUkoESQylVqUTppNJdpc/KGsp0ZY7yZuV65V7lDyoLVNxVOCqFKg0qfSqfVamq3qopqttUm1QfqaHVTNRC1LLU9qldVnu5QGGB8wLWgsIFJxc8UIfVTdRD1XPUa9Q71Sc0NDV8NQQauzUuabzUVNJ010zW3KF5XnNMi6LlqsXT2qF1Qes5VZFKp6ZSy6nt1HFtdW0/bbH2Ae0u7UkdQ50InTydBp1HukRdmm6i7g7dNt1xPS29xXq5enV6D/QJ+jR9rv4u/Q79DwaGBlEGmwyaDEYNVQwZhtmGdYYDRmQjN6OVRtVGd4yxxjTjFOO9xt0msImdCdek0uSWKWxqb8oz3WvaY4YxczTjm1Wb9ZuTzOnmmeZ15kMWShaBFnkWTRavFuotjF24bWHHwm+WdpaplgctH1rJW/lb5Vm1WL2xNrFmWVda37Eh2/jYrLNptnlta2rLsd1ne8+OYrfYbpNdm91Xewd7oX29/ZiDnkO8wx6HfpoCLZhWTLvqiHH0cFzneNbxk5O9U4bTSac/nM2dU5yPOo8uMlzEWXRw0bCLjgvT5YDLoCvVNd51v+ugm7Yb063a7Ym7rjvb/ZD7M7oxPZl+jP7Kw9JD6HHa44Onk+caz1YvlJevV6FXl7e8d4R3hfdjHx2fJJ86n3FfO98c31Y/jF+A3za/foYGg8WoZYz7O/iv8W8PIAWEBVQEPAk0CRQGtiyGF/sv3r54YIn+Ev6SpiAQxAjaHvQo2DB4ZfAvIdiQ4JDKkKehVqG5oR1hlLAVYUfD3od7hJeEP4wwihBHtEXKRMZF1kZ+iPKKKo0ajF4YvSb6RoxaDC+mORYXGxl7KHZiqffSnUtH4uziCuLuLjNctmrZteVqy1OXn1shs4K54lQ8Jj4q/mj8F2YQs5o5kcBI2JMwzvJk7WK9YLuzd7DHOC6cUs6zRJfE0sTRJJek7UljXDduGfclz5NXwXud7JdclfwhJSjlcMpUalRqQxo+LT7tDF+en8JvT9dMX5XeIzAVFAgGVzqt3LlyXBggPCSCRMtEzRkKSJPUKTYSfyceynTNrMz8mBWZdWqV3Cr+qs7VJqs3r36W7ZP9Yw46h5XTlquduyF3aA19zYG10NqEtW3rdNflrxtZ77v+yAbihpQNN/Ms80rz3m2M2tiSr5G/Pn/4O9/v6gqkC4QF/ZucN1V9j/6e933XZpvNuzd/K2QXXi+yLCor+lLMKr7+g9UP5T9MbUnc0lViX7JvK3Yrf+vdbW7bjpTKlWaXDm9fvL1xB3VH4Y53O1fsvFZmW1a1i7hLvGuwPLC8ebfe7q27v1RwK/oqPSob9qjv2bznw1723t597vvqqzSqiqo+7+ftv3fA90BjtUF1WQ22JrPm6cHIgx0/0n6sPaR2qOjQ18P8w4NHQo+01zrU1h5VP1pSB9eJ68aOxR3rPu51vLnevP5Ag1JD0QlwQnzi+U/xP909GXCy7RTtVP3P+j/vOU05XdgINa5uHG/iNg02xzT3nPE/09bi3HL6F4tfDp/VPlt5TvFcyXni+fzzUxeyL0y0ClpfXky6ONy2ou3hpehLd9pD2rsuB1y+esXnyqUOeseFqy5Xz15zunbmOu160w37G42ddp2nb9rdPN1l39V4y+FWc7djd0vPop7zvW69F2973b5yh3HnRt+Svp67EXfv9cf1D95j3xu9n3r/9YPMB5MP1w9gBgofyT4qe6z+uPpX418bBu0Hzw15DXU+CXvycJg1/OI30W9fRvKfkp+WPdN6VjtqPXp2zGes+/nS5yMvBC8mXxb8Lvf7nldGr37+w/2PzvHo8ZHXwtdTb4rfqr49/M72XdtE8MTj92nvJz8UflT9eOQT7VPH56jPzyazvuC+lH81/tryLeDbwFTa1JSAKWTOtAIoZMCJiQC8OYz0xjEAUJC+nLh0treeEWj2PTBD4D/xbP89I/YA1PQDEJ4DQOBNAHZXIO0s4l8GeRMEkxG9I4BtbCTjXyJKtLGe9UVC+j7M46mpt0gPjNsOwNetU1OT1VNTX2uQYAcAaOXP9vTToom8L7KQt81FnQFB5DD4h8z2+3/J8Z8zmI7AFvxz/hPO9Bp/FFKASAAAAIplWElmTU0AKgAAAAgABAEaAAUAAAABAAAAPgEbAAUAAAABAAAARgEoAAMAAAABAAIAAIdpAAQAAAABAAAATgAAAAAAAACQAAAAAQAAAJAAAAABAAOShgAHAAAAEgAAAHigAgAEAAAAAQAAAwCgAwAEAAAAAQAAAYYAAAAAQVNDSUkAAABTY3JlZW5zaG903vWGcQAAAAlwSFlzAAAWJQAAFiUBSVIk8AAAAdZpVFh0WE1MOmNvbS5hZG9iZS54bXAAAAAAADx4OnhtcG1ldGEgeG1sbnM6eD0iYWRvYmU6bnM6bWV0YS8iIHg6eG1wdGs9IlhNUCBDb3JlIDYuMC4wIj4KICAgPHJkZjpSREYgeG1sbnM6cmRmPSJodHRwOi8vd3d3LnczLm9yZy8xOTk5LzAyLzIyLXJkZi1zeW50YXgtbnMjIj4KICAgICAgPHJkZjpEZXNjcmlwdGlvbiByZGY6YWJvdXQ9IiIKICAgICAgICAgICAgeG1sbnM6ZXhpZj0iaHR0cDovL25zLmFkb2JlLmNvbS9leGlmLzEuMC8iPgogICAgICAgICA8ZXhpZjpQaXhlbFlEaW1lbnNpb24+MzkwPC9leGlmOlBpeGVsWURpbWVuc2lvbj4KICAgICAgICAgPGV4aWY6UGl4ZWxYRGltZW5zaW9uPjc2ODwvZXhpZjpQaXhlbFhEaW1lbnNpb24+CiAgICAgICAgIDxleGlmOlVzZXJDb21tZW50PlNjcmVlbnNob3Q8L2V4aWY6VXNlckNvbW1lbnQ+CiAgICAgIDwvcmRmOkRlc2NyaXB0aW9uPgogICA8L3JkZjpSREY+CjwveDp4bXBtZXRhPgp1YxVYAAAAHGlET1QAAAACAAAAAAAAAMMAAAAoAAAAwwAAAMMAAM80zXTQPwAAQABJREFUeAHsvQmgZ0dVJ3xfb1lkXD/k03H5dBj3dcCRqKQXVBhAUTSIIyLKFoUkLIMLOOnuQEBUliQMEkBkREFJAAUkQZbuTlhc5nNXHHUcUJwPEccPFJL09ub3O1udqnvv6+0t//e6qvvdOlvVqTp1Tt2691/33qVhWFoeBvy3tCT5EiiFRhLpy0tyNHGDRR58oMu5yIhggswgW7Q29YhY19/tn52p+59ESY8/zA7wC3GNZt4A2ucfmTz10OffxiGybfr5p59/bRrRlU04B2cVnm36+beff8MpxCPgL1vw/FufRb3HRpVsWkIkVzrH2JLNa5QwI7K8Qn2VMPyv61/ZXt3+sE89T4ULdf+rA40YU48/GkFMMX8w0/X5Z2V/6fNPn3/6/Ds3jfT5N0+0/fyjfrJo59/w0qWJq15dgeeFuIp7ofYE4PQoB4JOEMGZixYUGV91Rz0opYbTery2rt/tq2Z1u4TdQOj2p23CMmqoiWP3vx5/7V0/dxvxnnJw8uhXz/AyA8r8FJwJz1NS97/uf93/mitzjyOESD//hxH6/ENT4K/Mr0CI4088yP0GeV//VJYhUqWwWbEeDdlMxkVKeDRzE6pS6aicqZKBIowojppTnVbYRq/rT1ZSCyZbkdft3/2vx5+GRj6O4saYff6xqbXPv/384+fudE6RMEn4KI4aXj//9PNPP//kM4/Co7jZBOefaLPGuEU6MyY/YQjZeKQ7iLzsJSxk56uYC7MgUpQxepUlhLJdv56wxCxmG7OhXIGB1O1vixt1Lb0wTW607M5IuzGFzSohk0o0ynb/6/7HBZO4hfmG+VCPvxxLNEqf/8ND0jTS55+wSjiJnrMqI/X5F9YJX6FpmPr5p59/1vj8A1ezJWTEaQDqhDyKVNy7L8EqRXkNQefN14RWh1flealRICU3slZbJQqRJQSD64hyXb9NEt3+7hvqN41PGVr5FJDwI/puyARQxEHq/tfjz30s/KbPP33+kUVan389Nvr8SwvYOcRPJZ6XM4pAMY/080+YLAHFWjBUP/+uzfm3uKZvqCqUMgAZgtwSNlbl5X5mV3CuSwaREyUS6cyARD1dP4wBa2SbqZnqY7d/978ef2XeqKOjxnIs9fmnzLd9/hU/6eeffv7t6w+bMvv667xcf+VTpE6KOGpQ2O4gcww5Z+CgD1WY0zCzGkYVmUhLV7yllvoKp+uXa75uf3E6+gV9rftfiRWBLGBK3NT8lq54Sy1lCqfHX48/3Ojp80+ffzDpcl7o828///TzbzlXCmQnzHLerPktXfGWWsoUzvqcf0VfUVoa4tA8r+UkPIFajxFG9IrrKqt8pghkWk7CE1hpGNErbqXXkZkiYLechCew0jCiV1xXWeUzRSDTchKewErDiF5xK72OzBQBu+UkPIGVhhG94rrKKp8pApmWk/AEVhpG9Ipb6XVkpgjYLSfhCaw0jOgV11VW+UwRyLSchCew0jCiV9xKryMzRcBuOQlPYKVhRK+4rrLKZ4pApuUkPIGVhhG94lZ6HZkpAnbLSXgCKw0jesV1lVU+UwQyLSfhCaw0jOgVt9LryEwRsFtOwhNYaRjRK66rrPKZIpBpOQlPYKVhRK+4lV5HZoqA3XISnsBKw4hecV1llc8UgUzLSXgCKw0jesWt9DoyUwTslpPwBFYaRvSK6yqrfKYIZFpOwhNYaRjRK26l15GZImC3nIQnsNIwoldcV1nlM0Ug03ISnsBKw4hecSu9jswUAbvlJDyBlYYRveK6yiqfKQKZlpPwBFYaRvSKW+l1ZKYI2C0n4QmsNIzoFddVVvlMEci0nIQnsNIwokctxqmz2YZM1FPJFsQl7WrGGU523DvT9eMWQwxKWIdANlmGK6ER4pLd/mUHXWNMsVnteG61bM5My3CWGcMu2e3f7Z+2TbpbhMMYoc6CSyAXyXAlNEJcsvtf97/uf2W7DwIlEAZNHXgeNTmcMi3DWWYMu2SPvx5/ixl/jWdmFwYLmyTbn3xWKBCFfTsZCR4CynQMuYAzq10R7vq7/bv/9fjTmcOPff6pTqVulirv82/ZquFnHDWQY/3808+/8AhOru4SVQQR6euPvv7Y+usPzoSIArscboJB0RVOuVJ65oTEwkxWtSJTx6Q0gZRUtOufsbAYKD8dX1m321/N0f2vcosxkoIugZTr8cfpq88/ff5Jd+9yACFA+vw74x2cPJj6/Kt2mD2mSTeBFFe0zz8zHtbXP3CQc51/3MciUBsfnHZbUexFKmRavqHmO1TCSkoT2JRKaKWyQpLQPNj1Y+zyxJyMnsAVDEjH6+OvJuz+l5xh3mcSp8dfj78+/+SAAGzzcZ9/wxTJQA1YTbkV0ghOo33+6fNPn380NmS+0YCwqUcp4HJGMtpkHE3wUBFfEcqkH8/RglWVUSeowsA9NuTLXqASFkQrGR0neF1/t3/3P4kUDyciVUj1+INFbG4Tw/T5p8+//fzTz7+2nqgmS6PJjNoeJnh9/dHXH5ts/THhxeNlfwgFoMGgKI5xO7gRsJjxH7EyN8OnCq2QDaDrpwXUHDh2++uaLha3tUd1/9MfUXP4ZLi2lvtVoYZsAMpTFMfuf93/5L5P4yDmQj3+evxxE1X2jgyXmSbPK4UasgFkORD7/NPnnz7/ICiaALEQWmn+rUvoraAoJoAEl4oVYUCkM1lG3R6HIReAirbHEbvrhz2TQWmwbn/YRD2l+Aug7n8aTsldevzpdBR+EkA78yg+Yvf5p88/ff61YGF0IPXzTz//9PMvAiFfwCI2tsj6ozoHVohEP/opXTckZdW50qUmhRMRoC5SDGB9voABmCRD0xSNzK4/navdcpPGSkSA3f4Wym0Ad/9zL4rYkzjDIYVo8Hr89fiLtbJ7TppqwlGcZ87U558+/8hSqs+/GiJpcp0KnymahBIYPf58ljErTRorEQH2+aeef9Q6yUZi0hb3SdzoI7Z4JA7JmX1oWlYuG3AAVqrFu341rtllZJ7WyGZGz7L8JJyJk3WZQJ159Zq3dSRuZk3Cmdj1T1wJm4HqLFkYYGvDxM2sSTgTu/0nbGkGqrNk4W7/7n/wgX7+q2PCsDy9TMKZyDIt7gSjj9iTZUx5U10uG3AAVqbFu34YBs5tdhmZh2abJKo9M2sSzsTJukygzrRyP7Z1OB15Zk3CmchyLe4Eo4/Yk2VI1JTlJ+FMZJEWd4LRR+zJMqq7ZeWyhJsqFc1CWk2iCMhdRXSJ5gE6ETZZkyuOY3QqBahXr06rc8dUN4+JImDXrxbp9ldfSv7hvmJ+0v3PJ+5iox5/ff7p828+r3hsaO5YP/+4BZJFBOznX7VIP//28y/PJSk+Ntn6I7fco13zeU4tN8LGBYMi3uIFfGHieJNHoYZ+SnRcMChdv6yH1YTd/h6rky4VTjPJXYE4LhiU7n/d/xB2mnr89fiDJ4Q/uF9YHpNGQz8lOi4YlD7/JHv3+Ovxh2A6z+Mv5obpecXYkmVYpUthhQqea6t5RaZAWbqGTUayDHf9tECxoEIFz1aseUWmQFm6hk1GsgyrVKlBoYLnWmpekSlQlq5hk5Esw10/LVAsqFDBsxVrXpEpUJauYZORLMMqVWpQqOC5lppXZAqUpWvYZCTLcNdPCxQLKlTwbMWaV2QKlKVr2GQky7BKlRoUKniupeYVmQJl6Ro2Gcky3PXTAsWCChU8W7HmFZkCZekaNhnJMqxSpQaFCp5rqXlFpkBZuoZNRrIMd/20QLGgQgXPVqx5RaZAWbqGTUayDKtUqUGhgudaal6RKVCWrmGTkSzDXT8tUCyoUMGzFWtekanpdXXg8SfiIlzDgunTFFlTgnNJVm0VJokxWMq4eKF0/dkW3f6wRve/+bsXVeT2+OvzD+KlPDE4nnqFUmaYPv/2818//9drjhIdDJZ+/unnXyyQ53492ETn3+LXlU872fPpc4ZwefCULhomSxpxjlfWdC7huSuoc+Hy4KnrD9ebtJwR53jd/h7TbiHP3cHqXLg8eOr+1/0PvsDzwqTnGHGO1+Ovxx99p3jPpKeIREhRxFOffyLuJi1nxDlej78ef+db/CEW1O0lKHKAEEZawgMOfNhXEZcO1DkReMqp+VZtZgEGVVQrV44mGDCluv5uf/cyOEaZpMWDnNP9D7FiURpxZuE0aRuxXo8/GE2tFHOOL6JIQOrzT5//+/mvn/91Mujnn37+LedZP7/KeQKHzXj+XcLPvcv1GyHE1c/iUN4MUJZmpzIRJCHS9c+50JkMQ7e/ehvD0P3O83n7dv/r8dfnn/n4OP0ZqM8/W2H+ufSS7cN97U/3AbNXurgRyKfX1jFwIS1zqSyDICl7iNQiWgHgpZMAnUYZYNuG4SRz0qVMqjjq2Fz6b3/vyeHa59+V+so+eb9T/0i1bs/xa+mVsB5/amF30JzTbt3+GkW1D42sMiJk24GpV4AqRZeLuyNVvQ1nstKqQCCTok5E3vVzGNUgjZXDhnT2amTcfkliDpwUdSLybv9u/+5/GhBNlKWQajgeP0liDpwUdSLyHn89/tYi/i69z7bh6U+9YNh9n+36o5g5qCyj4HfLWLtzsaqu6Ec9y8jrwI2jxbaNzj+ylrc1mZampC/SCAKGAvFvCljaTPpve+/x4dnPPzrc9l6OUFoZlQ57t2bzSVEnIu/x3+N/NePfXcsjG45ppMIRZxW0ohU5/5m8Oe1FVZPejuJeriggVOqV+cEKC9VYSipyXk/XX007YUozYZ3BfG43YYRti127/YvJxCphI9KLndyO3f+6/6XTfrhI8aIEwX3cb4QavlX8qsdfsZdYJWxEerGT27HH39nF3zOesmt4xlN36XqcduViHHfmw/90ba4XBn4TX+SAbIPVbRsdx+QkCnFkJFXj5UTkqG8ZK9lt+BfxErKbU/+zcMf/2c8/VvrD7kafUt8dBM/9VkghawCyr/7ybcN3PmjHcPdPXxru/n8tDRddvDR85CPLwz/84/LwZ/99efjVXzs63HFnqaf7/9n5/5z96aeeZFRijEgt4+TjuBntH10aNT66GCJqi9LvZJ8iI1BB3UxV2Ww8r6Trb5y32998JzkTvcjQmlowgQrq4t3/ku2mjNjjr8dfLMY0Wnr8wQ5+t81MMhU6YJUJZzPOP5/44CehB1iMY+HPtTz7wLQkeLoS4ILImNJPx1GIC3rKy55iYUIW/NjiwlvXoPOjSXLBAFx08WJDqt2c+m/7rROy8Ofdf+0HL24AabfEXAaq7QQxgUquzD8/8PCdw2UP2THc75tgE+6R8spYlmUs++jHlodXv+748LJXHR/e9xcngn6u+qUi03E++D/7e76e/4onMkDDU90FLHdH9VwtNpLPbC1ZKAq1uOsBvesf2dOtE7NIMV+aTEIqxKYo3f40bzFggWgtYN3/uv/1+a9MHRnyYPHcQqY9X2S2Fi8UhVrclYDe429D4k/u/j/5AtzJr8//DAWOliQZG44RsPgFwHgpI9tDSOGyrHLcKxDclXDFusn03/ZeLvy53UcX3jSD9jEZJFFK/9VCtSww2HjvN24frnzcruH++7ANy+qT2k5h/4/98/Jw/UuPDTfg758/7iPAkkXL6eiPwROl6eDVeF5XHYKZrcRCUajFvSjoPf5L8LhZPHezeU56hk1uTCoUhVo8VeOsNq/b0FajLSnXri6dKi6kGnJFRnW0zb1Q1uwyyiuTjMsyr2Uyx+BGwNE295JKz8fC6f1v7x12+7sfuZeM8kbA0Tb3ckrPx8Lp/tf9L5/26RnuR+4lo7wRcLTNvZzS87Fwuv9tXv/7xAfvJgNZjztvlXBUS9I1aB5/W6Ji8b6Eh3v15grkjaw+QXmQQJNfAgArBTQArNOT1ux+u9j6ufB/Fv40nfv64ws+f9vw5MfvHB7zyJ0Wt2fX/z/985PD9TceG1510zGrx607kbvBoxcxdD6E9fhDTsfYj17nufefNXlz2rxo6frd8m4jtc252T/qKgCg+FlOh0bidKUrtBg+H66ZpoWSWk61qAOW3wx9srCJqOs3A41tV8Kn5o1co9t/1oZhmvjNuvsfbUIr9PinGWCFtGAR08QhvCcoBHr86TIwjDJtJmEHq8cf/EwdbT3ij9t/uC0HW/nFvZdhf27lYXL9ctMf/i8LeeGorI8Z/XwqONT/y08GS1KHS1OHltss+p/1vKNy199MkLKV+p8mjUZs+/ZhuAoL/ysfu2u4x911nl0N+9/6juPDdS87Ntz2Ll6YzetPHSgj2ONvXePPxyBcY53tL1v26CPJTbxNPgMIruc/bSaP9BibJ4rzqCSOVpv3SnJHPOxFWNb7XX9YTI3iR5rMUrc/baQ+JGbBofufOodaJTwFQI8/sYYbRnJH+vxTLAFbGNLnf4+flNM2lrbi/MvXff7mzRfJdKELRXSYjsDOcq6V/ivMN3jK/AtAlvAUJQt/sWYReR5s0U/QqhpOAkG9RGVXOwDZ+WMyi6z/NrzW8zk/e3Q48lvsl56FaJtzOf889ME7hisv3zn8+6/FVQBtIZZhpVCxSvZ/2S9hWxB+Efir93PwzNCsXnqBA1KPfxhB7C/mqA80lKWtGP/sGrqoXYuOCtDcuVFB+JC5Dp20ciN1JA8IrQKyFUGoeqi0Wp3GJsa6NSCMKBT6sMl2/W6RMFBMwk4ZEZyhRcuod/vLDGDm6f5HQ/T46/OPTLIWFTbb9/kX9vDVQjNvAq1Od5tg/uUFwK03Xax9spH2+e8kOiPD7XR0+yTf+GP9l4d5ZaGqs+c2wKRJouvwJwV5wT8jSe/6W1VwJlAgqx7GMgqRv0j6b5cHfHWfv7RyFfz/67Dgv/LxO4bvfvDOden/P/7TyeG6lx7H8wFHh7vKrqW06pu2f5//ik+6X27F9Wc9+uwpk1HV6YHXthAREYNANekFR7g4lIKsiyldiCph6tj1i+m6/Vf2l5XOseHE5l/d/9QQPf5ghzItTc0+4To9/nr8rRQvm33+ufSSbXoBgHiQt/jY8lsyLN7zG33slBzxwgXiNjHAVDhxyc9XfNovASgl8y/18PY/yFqUgQjOAuq/9mfxWs8X4LWebcfDAtYHdmEy1QXvgdd4Xvk4bPe5fNewHaz17v8f/jGeD8BFwGt+DW8rmm2zdcSaLlndjaqnm93/q85k5DzqfwyvXts3njEyhBK8UOsATpdoR1WFH5xs5gru+sd3XcOOsJRORN3+nL3cm4p/qSs53QUKPziVz2Wk+1/3v/auV/hRj78+/8gUovOIzyZlftmc8w9/AXjra7EFCB0q81+6Yw/6Mi4E5LNehHES4j5+3vjn+Uj6b2t8rhx8a48AXOSDoDcIdW7Re/4oaIllWNci6efrPK/F+/xv59t92FS0T7JycHJa32iHTLyUA4H9f9wjd8ld/y/8fErwT9NG9P9Nbz0hbwx692+XtxexNWX8rXFKXJX+h0FS1S3Y9W/M+Td8NrwaIzMajCIlPHoFnbdNo3ImIBMFYU4gXjbVKWIJT1JaQ8Pr+rv9u/9paOTjKG6M2eNPzmN9/unzbz//pPPvpfjq71tvukjP5XKOlSVpOv8rDgJip/Di/OuTsJ2fZf7hwwJiZTvS59KFgJz/WRcnJZG02Gx06Blu/fTL+/yfdxde66nPOFRnWOuftlcR77p0wg7t/Hv/fduGqx57wbD3UrzWUwqYxAL0/8W/oNuCPvBB60nTx9Xov9umn3/Mxxdw/g2f1fE3L2DG5A0WsvFIdxC53A0gDcnJDige1BDSMkavsoRQuuuXqRRmEFuYGxVDg97tH1Zxtwv7qDeZT6n3Ca/7H21mdqmyhPT4k5iTBYuYxWxDuziIvMdfjz9fDLpbuH8oHlSdgcJnjF5lCVmH+Lv0PtgChIeA+QEwbufROYG37s3Jef4Fb5nv6D/Jj1JpT2XtDpAYN/poORYjRY9Wg/Jk9QseC/K/lAUgC2FmG6v//t/9ieFdeMC3mhPZgbNcf3zJF3Phv3N4FD7oJXUuaP8/9CFsC/r5o8N1Lzkmg7la/Rf/4XDThI7Qnkx5/MF1diVLhOks7T9Zp9bY9Tf2D9SNFiPiBmMuUnIqFCrHRwZWIpnXEMQxmJGUEnUaGmwDop7kCF3/hLFA8s9N03Rht25/myS6//X46/NPmV9tDvGpxPMiIFDMI33+9Uk1ZtfKVDDUVpx/d2ML0C18CJgLVPkQl14E+GtA5URjhshneVkJcDO/laEfcfnMRJgLN87Izo91AHlIKmlbi8jcIP3PwVafZ+FPWmRNTo4gbZUDeKcz/hdhN9VVj9+Fxf+u4VM+GSXNPovaf9nahcb97u8dH65/+dHhdW/ktqAwxBn3vyqQ55SJKimrZGOGTABVdadj/6pA1+8GLnkxkEC0dLG2/E6D0CyURtxQyMldgWluTc11AdYrf4iQzgzqdDIgAiInglxGpJpD19/tDz8Jv2nco0KzLwEOfyMdKXBBQOz+1+Mv+4x4SXPo80+ff7bI/LMbvwC85bUX624cP//KzNoGAedGTpjIILct9V+mTE6kwtSMEZNrIPskDrrgJBcEi6OTvMtL4XXUz33+fMD39vecKOcR158bzqa2ydrNHuf0H78Lr/XEV3y/6sv5JMRi93/O/q9/07Hh+pcdHX7n/+U2rpk00/9J6WxLwHG+JR0pcEFA7Off2nHESs1hle2fh0g0FQKv+bHQssCQMbMxqppkBUq5iltNBOSo3Jy081Wy6+/27/6HWMHEyIjhgXNklSyULKtYRFq64i21FCucHv99/unzz1aefy6V14BeKLMEpxUuyOR0L9NBiX/ZomOL9jz/lLnC5hmpBIU9l5rlpT86f5mO2D0gelRYjjispf7b8GDvc/AxL3+fv6hvDqVPpf8rzb/fiOcouN3n2+6/Q+dmr4A5EjN9KkJQW/SCSmNLWr/+U50uuuf1U+Z6fETs+pceG/4/bBHayv7PvraJ46Ujc3rj7yfYUq6usaUr3lJLmcJZH/2irygtDXFontdyEp5ArccII3rFdZVVPlMEMi0n4QmsNIzoFbfS68hMEbBbTsITWGkY0Suuq6zymSKQaTkJT2ClYUSvuJVeR2aKgN1yEp7ASsOIXnFdZZXPFIFMy0l4AisNI3rFrfQ6MlME7JaT8ARWGkb0iusqq3ymCGRaTsITWGkY0StupdeRmSJgt5yEJ7DSMKJXXFdZ5TNFINNyEp7ASsOIXnErvY7MFAG75SQ8gZWGEb3iusoqnykCmZaT8ARWGkb0ilvpdWSmCNgtJ+EJrDSM6BXXVVb5TBHItJyEJ7DSMKJX3EqvIzNFwG45CU9gpWFEr7iusspnikCm5SQ8gZWGhq4XABdpTboOrRbvLCtF5M4sIMhwdw9pod/L5fZIIRGyawGWxWKS3xHQ1VVmrov+a59353DtC3Wvuyovx9TcQjRojvc5n419/viK7xN+aKcZJEkmUM0Dwgb3/0z1/+3fLctrQ1/883gV6sgqJKROCj/hCdSiRhjRK64izXGmCKRaTsITWGkY0Stuo/lUvLayhCewqmVEr7gbot+aNJlVDcptz3AlNEJc0q5mnO9kx30wjT5iQy7TMhxVTAIu2fXL3Uy3kZvFcbeu0UdsyGVahqOKScAlu/27/dO2LXeL8Bkj1FlwCeQiGa6ERohLdv/r/tf9LxZyFhZ8CPiWm7EFyKMLdF+g866/kPXgEhJhLO53tT3ChBEKNBClXlTIO/7ufypPQUDQwTvMa6n/tt86Ptz/sjtDv7SsajQpRqgzEfVDLnLFY3YOV2Cv/+d8VrRcxRaw/xzQc7H/e36H3w84Nrzp1uNxIZBt4faZzl2yjL/IOTkKGaHOgksgF8lwJTRCXLLr9/gTE7lZxK4VJ1sQRqPzTDg1XWqlZLuGRCTpAu4YcgFRj5NGFXb93f7d/3r81RNDM5XXTMP6/CNrK7FGPb06hlzAPv+ez+cffQsQtgDJQ7twF57W6ReS9PwrH/N1kiwl8d4fvzio5EPI1g1cWOA5WPz5xUKc7KmPDKkHUmug/8h7TuJ9/keHd2HbD9uhSZweIHIBwXGSi0Q+Xn98+wOw3efxFwyX3BuN93LMm6Tn7Y3tP7/ZsJr2/1V8QOz6l941/MEf0U2KRZuuC9rnX3VtGsPdRO3kGHIBz8z/tL7ZBbuqoE7U7esG1zinny1BK2xAa2lr/AqnXCk90yDWxbSyr0AgKU0giyra9c9YWAyUn46nzSJ1+6spuv+FS0wDKegSSNkef5y++vzT55+ZJQ8CZDPPv9wCdIs8BGxLgLxaB0kWEhP+zymVPkGBpZOAuIRISficPJiEJZSCi7wK+MfFRG4V9HOfPxf+t/+Wfeiqbpq2oTrqLCekBBJXdGn4mq/gV3x3DQ9/6A4R097guID9ZwOlfWreVbX/Ueyg4teE+YvAR/6R/cd/udCgxiZV+htehaqVhZRA4or2+Xct51+3sTmKG70aoTGCUuWyoULGshOUfIUibG1FC06UNFKlskLmyyRO14/hzjHb7d/93/whuUKKmAasQq5CGsFptMdfj78+/6TYSEGXwCTQgFXIVUgjOI16/F16Cb4DwNeAulKu6XBil4d0deWOCozJu/QuZ6Dc2SddXnfJCaQICOSk1AyS/Oa/LCJYxoudo35+wZeL/1Ml73/IuX4QEjh86qfYaz2x1//CXamdBi5a/0vruWi2OYZASqth/7/+wMnhBlwE3PiLfIUqjYFaWfFpptO1/2x1lcoKmS2SGV1/Of/QPexBbwHNhwyuwiGbkLDLJDos6+8Q5rzgTiFg4A4gFxDTDXLeCZACkhk8pSPUuUwQUF/X3+2vM5G7E72jcqnwKVCF0f2vx1+ff/r8a+eTarIwWjrFFHCCt8nOP5d+w/bh1l+9EF/q5VZLWZY3k2XpI2dVYiUR8809XAACZ//tpE90GfuHlox2UmzD0mRAH3GpAjLnqF9e64nF/234mNdqnf8e9b075J3+X3xPNhJN1pYLrAdpvFE3tv/Sug2w/5H38G1Bx4db3n7cTNLXX6vlf8Xj6HlTif7X8CTGlHa665+JWmwOSDpDKABlKopjXAE2AlaHTgsI9NTkDCdVAra8wAPQEori2PWbLzQGMsN2++uPaNk6Ge7+V1ugtU3gAfT4owXUHDj2+afPP3LebQLEwmpR59/7ymtA8SVg82VfT3Bhrpue2B/38wwARiGV0y1AEgJYdSwt4W0/yPHCH68O4ZFktMpqLXC2+rnNh3f9+aCvKmPlMhDISzoT++/7Ju7z3zV8y15eEC12/zfa/q7/VTcfG15049Hhj99H25+b/Tlq7SgGHgClXA7EPv+etf/XJpUR9QEki1YGbpcTRdiMTn4S93EIuQAoOE4jdtcPeyaD0mTd/t3/evwhEPINhD7/yLzA+SFNF33+VXPEeSUAGmqcRuzz7PwjXwJ+LT5fS0Mwof98wJe3S3SjDmn8dYBLaNxdJ4fnpyX9taA1F+9+snTYVQDWpQoEwoHPDFCqYZ+R/gc87BMD9/uvlv//m/8Hr/W8fNfw6EfsQLvYUvYRaUH7z45vpP1b/Z+4Y3m4ARcB173s+PDRj+rlow6wmnHqGH7izLZDpMukppJFHhDpTJZRl4iCFHIBiOToMGKfh/orG1SImWuKRlZlKzf5pHAiAtRBMoAV+QCyzhold5ImdAjHWtmlpipwnlXW9Uvo6kDQJt3+tIKkKfeZolG4+3+Pvz7/aNzELD0ZLIkIsM+/izP/yncAeAFgiQtfLs0l8bzA8TKajBtwI4uUvCFIaFjMMxhsF1GUJ8CJ0rcKsT6IyXYzPjfAZBlB10XYFTnN9T8Le/yfjb/Vmn93bLd9/o/bOdz9M6iW7Z3Xz+ZSQnoFRNoBbL36v+j6//wv9fmAX3g1nw9goqVskAH2+DcfoyGYLCOYLEVU0hSNjNXyf62/1dLi3jSjj9jSIhxSZ0jylOUn4UxkoRZ3gtFH7Mkyrr2uLpcNOAAr0+JdPwyDwTW7jMzT7R+2KV5XoGyvSTgTJ21pAnVWFEyWKexc/SSciZN11YpbcdE0SdQ2ZNYknIld/4QvmYHqTI3rx9aGTkeeWZNwJrJcizvB6CP2ZBkSNWX5STgTWaTFnWD0EXuyjOpuWblswAFYmRbfovp34yu2t9xcLgA4xfPHRlmzE4Y5aAreq7d7uoKrnHJl3Q8h+5GyFDJTMmMd+rSA3vlnSf7Js8NkegJxTv8R3O1/9gvuGm57zwmpj+WrxHpGRJXIrAxf9m07hitx1/9eX213+1fQv9H932z6337khLwxiHm2+SSciRyyFneC0UfsyTI69i0rlw04ACvT4ltYv3XVe6y5Y5MmFKb9fIeI0yuRXMJgk5OozDAqLVcvXq7OHev63QLJIgJ2+6tFuv/1+MMME6sPxovFisVJn3+wqsm2oIWA668XZiu3meVO9dknbBrm7fOP2mhzzz+XXrIDbwHCdwAw7nrvX3tVjz852yCBJbysziGOXHyI24IASPzRoVhQDpAVgVyTw34RwNW6/2Qwr58P+F77/OPD7cglSTXn5n9ff6/twxWP3TE89MG7UCXbMa+f/I3s/2bX/wuvPjrc8PJjw5//Be3MP3MNAd0n6twxEdYSOGpZcS/6n1A2d/xprLBf3mPNHZOuyyFRBFy9/qeai7pWZ8M5BTquMig6a1h5dDwYE1WuxJsQL6RxwaB0/RFHAoRhivUCWokXQlPAuGBQuv27/W0e7/7X578+/2P+jHho5tKYNBv6KdFxwaA086+8Bei1egGg1aIxvsj3PTdgsDxT21TiziNXl/amLTFlec168WTwMq8NWBkeFlYoCVJD0n/t807vtZ6sriTTXwjhZvf4zG1Y+O8anoTtPtu2n1q/tAX1SHuRs6U55ZavRf+3iv6PfezkcN2N+JDYy48PH/+4WxH5eKiKeVfiFakJaFwwKI3/d/0rDwGMa6aTLMNq9zCsyRU8j4tSned51J1FR7BJS5bhrp8WaG1Z8GxIpTrP81w6S9ewSUuWYZVq6yp4rkWpzvO86y+WyNaqYZORLMPd/rRAsaBCBc9WrHlFpkBZuoZNRrIMq1SpQaGC51pqXpEpUJauYZORLMNdPy1QLKhQwbMVa16RKVCWrmGTkSzDKlVqUKjguZaaV2QKlKVr2GQky/Dq6NfvAPgWoKnlLO/Q460+sLTfc0xG1/3cbJYRrYWyUBaycPjbAe+h6zYgfEdY6vPfAVhaU9HPh3sfcNkdIOc+Z1hLuD6XK7hVKZlSL/+BncMVeJ//F34eL0f0j8eSin7StJUb0/+tqv+P3ndyeBG+Jvyqm/iRtunRYt9LMhnJMqwSpQaFCl5qcD3O89zpWXIMm7RkGd46+os90oDIhRLiITErWDj6NMfYZkLJJUHwCmeklVzKuHih1G3p+mGZbv/xLZnwr+w53f96/MEfdM9LeMgYKD7T5x81V7FIn3+zLbbK+UceAr4JrwHluR5Ov8wtPfKP449lstB8KawLZLlvLnfzgZPEg7AYY0BpKDlQEknu6Kv1ahsqW0RQjrqOvPfY8By81pOv9/QdRaySqS4L7DTPfw/Yp+/z3/2N3MakTZQK02FR+r/R9l8v/W/BdwNueNmx4ci77WvNMhZldPr8Cz9lTCR/zbBwTtP/1bQozQonUqkXUKnTyZ5PlARJuDx4So2eLGnEOV7X7xOUW8hzN3CdC5cHT93+ETSTljPiHK/7X/c/nSbdQzz3AKtz4fLgqcdfjz/4An1o0nOMOMdb7/nHLwDcfUu7cBmAvTrL9rpP5XuviNlFAUjy/TCvQPxfl5Gyu9+L6Ao7qilfG1YS7/g/+wVHh9vxgC+LFOuVFqlkfRQuD55Ev9r/y75o23Altvo88uE7QSDDBAXU9nsxz4u29e3/+ar/pfiSML8o/D/ej4tFGH+9/d/tLvl5qj+6Lc4vBws/wkjyEQ8Ly3qQTE7FJic8q26SJ6VlxFVKjlYg4K6/2x93kDhdS4JjlEmi+5+Fi5vGraS2wtH5ngfDS/T4w+JArSNHM1TAtGH3vx5/HllwjK00/1z6DduGW197MeYJzq+YZXnHH6C/nYehsY0H2bgPnvffFtRA9cYijMJfDuyev8w7nGJ05ibH3wJELTovyRHldJ//XSLD+ikgGQ9IZxp/F1+8hA957ZS/T7kbq1tZPzu1kf0/3/V/5CPD8EJ+P+AlR4cT6obnNP7qNXo0d9L6MkNgcPv5T3/lYzxb2I3MdPoEDTRdrE2Z3ml1jf5zT9c/bZ/aWith3f5qQT/F5Jx2m7Zv9z87ic/YZyWPq3nd/7r/ccGV4y7HXIaL5/T427j4uxSvAX3r6y4a5H3+jH9Z2JexyXfOfVRjeJOYgFxIswoXsIsEUpyfH/y97b0nh2c/D3f9f1u3+8zNz62aeXxpeMR375B9/l/5pXi5/yn0iz40jT9ybET/u35xlrD/7/7eyeGFP3d0+LVb7G1P8wM9w+nnH51hPVJzTpMptzXeiDoi5LJg6h0QlaLJNeDH1VacyUrbMopPijoRedfPKVUN0u1feVlyqMYy7j9JYg6cFHUi8u5/3f96/GlANFGWQqrhePwkiTlwUtSJyHv8rV786UPAF+tQ2IJZ7Et7W5JlBHD7ESDOPNoKnX+5BuCIk6aJ++3TyoDlwWLdt2F//3PwIS++138q5VqC70TkU+P/jffZhjf77Boe9K1Y+Eua189menXaXmJI69T/rn9l+//K644PL8CvAX+MB4Yj+YBx7OBDff5VgzSzbJiLFm7jL0IzSRF00ybISIUjRQStaEXOf6Zr1KY6G62m2csVBcZgaytdhla0rl8mMJjB7djtX7n9yIcqL0x26/4HC0RslbjKk4ZQQ6aO0+5/6nc9/nr8pWVviqlq5lEEseRxI4SILQMCD3HZglNissh5PWfqf7vvs2O4Rb4DAB2hDwAXw7KJX3XL6ZhkynBdxpwHXhXg1Z7UL+ci0PSdQeQjOVkxvM//qPw5z9vtuPbNCjVlBa1oS8Pn/uvl4arLLxie8IPlff4r6bdmSFOXsZLchn8xXlE3gDXqf9dvFuAifgX7/8u/4NcAPBvAXwQ+wZdBIU2NvwwkGO5HZ+r/Xq4oCE0j392q+qVf2u1m8najt1FsJaJgbb3RQFVygYwrGQ1e12+WD6OJpX04amrBBCqoi1dlw7sruT7+cTJQa3X7ww5+t8VMMuU6YBVH6v7Hk5sYTkyWwGQmoyZmn//6/LPe8899vwFbgOQ7AHRNLIax8KXv0i2ZlgRPVwJYuDlTXNdxFOKCjvLy5iD3a/C5LehZ2OpzLR7yLdOECbicVHtm43/lY3fiId9dw2d/Fio5hX6u59E40c+PlskFC3DpqzDJWrv+d/1nZ/8//pMTw/Px/YBffcMxVGBp7DpgFEcSqKCJk8XGlZyv82+xBAOEgTKV3KCeUybDVmZMKhSFWtyVgd71d/t3//OAqHMPG8/JzbBJj0mFolCLuxrQe/z1+Ovx5wFR5x42npObYZMekwpFoRZ3NaBvQPzdF88A3HozvgPAlbA8+evt0VBgayVJ29hGYPELgPFSRra7EOEj2Of/nOffJdt9lFckCsQKgJ1m/x9y/x3DlXjI95Kv8+0+LK8p16lwWdY57h0QnI0VAIc16D9vnvhlTddP36AV1IHEHqdp/9e/5dhw3c8dH373D7BtLDuYwxPj33pEsb8WUtwKsl2n6X9bTX/YwYE2TyayAdRhLLYvTu6yzL2eTKvgRsDRNvcySs/HwvEgcwpzryfTKrgRcLTNvYzS87Fwuv723lW3v/uRe8kobwQcbXMvp/R8LJzuf93/ynysfuF+5F4yyhsBR9vcyyk9Hwun+9/m9D8+BHwrvgPAVI+7L119jMGHg/EtQb6M0x4D5x11fNVXVwXCtn3+XPhzsTeTXKGxHW1zL/21X4HXej7+guF7vnO7tZUeP62fZPVJ1oYmQlQfUJYSSqNMChpKWo3Iz63/Xf/q2/8Eng1+wY3YFoTnA/7pn3K89fXnucy/7vf0WQkAjRSNDNJ0KJmBlgJGWHGI0kEhMBqaaTEpEyyJ1K5f7adHsUa3f/e/Hn8yV4wPMXtUrD7/NKeGaTOJzYLV51/MM+fH+Ue/A3AhuosNMHAA9pqLfG7lYaJP8Cj3bHH+kYW00FTWfYZxppSh2ue/GvH3aZ+6Td7s8yTc9d+Frf7apnn91jzJVH/5yUK+P8ALFmkt+2jQKva/6y8WWAv7/+VfncRDwseG//oraVtQ8r+inaPb5798qTRlJv/Y3/Ta3qONoYJ48Xv/QsbB5ommXg0qGQgHJXfEw06HiucbKtcpR2lxJM9S19/t3/1Pg0XCAocefzo5qFVipgBgs4kzJHekzz/FErCFIX3+df9JOW1jaSuef+57yfbhN2ULECOGHoAOS2aw9F9h3OQHCwQAsoSmKFn4ow8dwUe8+DEvvt5TK9HqvFrZZiSIaDFIyxJhVW36we/j+/x3DF/0b3DX/xT6pS3SXh5s0U+QFQsJB17EAPWPlGHdLxc+qt8EJTOY5ayCrp+WoA2nx3+97X/LO/C2oJ/Tr0ZzmDhimhLmoOSOqDu4/Hk//0lUNOajiaorB1hWbWhGFOsVg9LwNKQvSGQgRgSh6gGyOqESbeoRia6/299DNFwmfoJWd238pvtfj7/sMn3+aSZkjSObXvv8C19Rd2nmkfPo/MMLgFtv4mtAS+DQGjwnn8TJXBZHguv5+iTf+ENZ/ueddJzE+RVfvt3nXXi952qd//ddivf54yHfb91b9vlzvTCln81j67dxcc8VPZMSUAAA6Wi1cZQPmr4Bhuj0+J9u/1nDWurnW3D+N7a8/O9/XB7+5a5h+PRP5d/S8Gmfsm3YuZOa11a/KMBhUe3/opcfk9eGfujvOf7eWjYY41oRMk/7o+LT43++rL/q3ruNjCrZtIRIrmTj6cDCmKxQn6v3mOz6V7ZXt/98jHf/qwONGFOPPxpBTDF/MNP1+Wdlf+nzz+aef+I7AIgHeYuPL5Pp+Fg85zf6WEhEzHCB9MCH3Sl3/oNYAXUJYkwrzT/3/IJt8gXfR3//ztPSv00cEHVq1enIJT9f8Wm/BIAj+tlP3v4HWYuyJDhn2f+10v++vzw5vP6Nx4Y3/MaJ4c8AT3RQ+nop3uL0nQ/aMTz0wTuGu3+GW5iszd1/GazT8D+3/wc+uCwXATe+cn5bkFtnJf8To/JAYfiEZAYHLwFbYf6L7um1PQMipZEhlOCFWgM4PQwIgl6EBSdVXoNd//hXj7AjTKWOq3Z0a3b7u3+pL7ldwm4gdP+jbcIyaqiJY4+/Hn/tXS93G/GecnDy6CZbeJkBZX4KzoTnKan73/r7H38BeOtr8RAwhqfYn15ADAmHZSzE5LNahHES4l1/fsH3WdjuU8bXxxAyVk4WUFImEVRsdNyJ9f6THncBHvLdMXzGp7OOlfXzbjTPh6Lf1vjU61t7BOAiHwSf/7VXlEJBS4IZ6Uz6v1b6/+5DJ4frX3oX/uxruGwq2idZOSgOltv/c/Aq1CfilahX4VcT6a9f5Gyy/uv8c2r/m7P/kXedkAuBtx3RtwW5fcyCPuyTeRn/xD5N+3sJEw91m0F/tDm8Cr0ZGaNICY9eybhp06icCYghCHMC8bKpThFLeJLSGhpe19/t3/1PQyMfR3FjzB5/ch7t80+ff/v5J51/+Ragt+ItQDKXyjmWEGcRP0srDhSxw+0+fK3nMeTHV+38f9lD8FrPy3cN9/oqX63O6/e2xfnfTwK2PpB2c7O+tN+O9Hmv2nvGVTInRZG0ueE0+r+W+l/8Crzq8sa7hr/9O9VSneGtf9peRbzr0gk7fMO9dwxPeBx+FXggLgSkbzhukv67j7mNtf/ai5Z3qvF/+av4NeFjw//8AH1Bh1rs1ec/iQyxhflUxLriQRXDxYJdyMYTi+LgY4NcKqShjeyA4kFlSRGSK7hayDCTZcbkAybkVI+DyLUuFXdyXXVQQ6jr55iZXaosId3+3f96/CFKcCqSsLDYYFw4iLzPP33+36znv0vvs02+A8APgHE7hZ4TeOvcnJzxD96R3z6Ou/7HZeFPzmr4/7+/Fxb+j9shW1hOpX+Z7+g/iS09DDaqt/gjxo0+2m42ixQ9ihwOwuOCnzwWjJgFIBcCzFbu/1rqf9Pbjg/X4dWW7/0df5Uq28nWI53l/Puw7+AzFLuGe381rWP9XND+a/NW3/4f/odleWXoC/EhMRl7MSgOefzFJsqmydWPzt3+Mn5WTdS5oPrDHN5o9T60PieRklOhUMNYcvbjNQSNl8soJeo0NFdJOOpJA+HUShaC+bPNUa7rt0mi27/7X4+/MmfYhGNZzENFQKCYR/r8k6ZdN1oyFkh9/t1657/d2AJ0Cx8C5kJYPoTFPuqi3wOED/jyK76rNf7/92cu4bWe2K6Cxf92v+hYQb97YV5lyEhwM7+1mR7L5TMTYbtiD34b/yppW5vI3AD9f4iv3N7w0mPDa16P7SprMP/s3L48XHE5vpaMC4HPvDv7SMNoWoT+s0GytWyN7c8Lqxfi+wFvutW2VbkRkNNXYoGuSFCTmAiulv/nehdBf3Q7NpQVSm5rgRG08onwQpmHcl2A424Z6UiBCwIiAzGXEanm0PV3+8NP0nzWOEhCsy8BDn8jHSlwQUDs/tfjL/uMeElz6PNPn3+2yPyzG78AvOW1F+sddfi1zH8ysy7J3f4HXHZn4/xAz8H/f/gHsCDF+/w//3Ohy+o5ybvcjLlGP5dmJbFtlEEGuW3J/jJlcyIXpmYsxyq9BrJP4qALTnJB2CD9/4g3+lz/sqPY539suAvm9TZG/3PD2dQ2WbujXMvPOOr6ws/Dg9V4NuAxj9qxEP3Xdq+//X/x5mPD9dgW9Kf/3X/hggugGWFH979Vtn8oQL2hjzqQAhcExA1Yf4y6Wwi85sZCywwjbbY2Suv9YAVKOWdo3tIVb6mlTOF0/d3+3f96/GFGwMTIeUHO8TFj25xhE0aZN8pcYkViDi74nLSoMPk+//T5Z2vPP/4hMHo9w4oLktvxOk/e9ed+/9Ua//t/8w485Ltz4FtrdNGD+CMgSTSHflluCL3En2zRoQSYXCN5ylEssFalqzoSkJjpUwGCbqj+n//lY8MNuBv9F3/NhqaOaNPkWPpU+r8a899u2P5KjMED77cDmqHlPLT/R/95ebgO3w7g9wPuOra+9vch1vEto+x0zwtndce/rj9rgScW1MVKPs9rOQlPoNZkhBG94halCZopAomWk/AEVhpG9IqbtBZwpggEWk7CE1hpGNErblGaoJkikGg5CU9gpWFEr7hJawFnikCg5SQ8gZWGEb3iFqUJmikCiZaT8ARWGkb0ipu0FnCmCARaTsITWGkY0StuUZqgmSKQaDkJT2ClYUSvuElrAWeKQKDlJDyBlYYRveIWpQmaKQKJlpPwBFYaRvSKm7QWcKYIBFpOwhNYaRjRK25RmqCZIpBoOQlPYKVhRK+4SWsBZ4pAoOUkPIGVhhG94halCZopAomWk/AEVhpG9IqbtBZwpggEWk7CE1hpGNErblGaoJkikGg5CU9gpaGh6wXARVJT+ZAXt6SU1BQpjNPQ/2VfvE3u+D/yYfiE7zI26fA7AnndRRgKRIfBeiVQ1CgPTLsy4GKFNCuVFvsiqQUTqNWCsIH6334Yb/e58c7hHe/CpQgb1KTU3IYTvRzRx5xUSwK1oBGQPeK7+ezFruErvpRPRoMLmnANdporVB6Ym9j+XErn8f/9P+LXhI8ON79RtwVJH73DTT7PazkJT6BWZ4QRveI2mk/FaytLeAKrWkb08CLj1FnVoFw2w5XQCHFJu5pxvpMdVxdsWxNcArlIhiuhEeKSXb/czXH7uFkcd+safcSGXKZlOKqYBFyy27/bP23bcrcInzFCnQWXQC6S4UpohLhk97/uf93/Yu1pYcGHgG+5+eLh2Xizz7XPx1emjO5Rk8Mp0zKcZRy+28VLcrf5Kuz1/+R/xXVmiT8ta6tN3M7nL5z8J6tRZH6BwLv+QtaDS4gKSvtdfSupqqODikq9qHCj9P/5X+p2n1e+5jjavzj+90mfNMizAVc+dsfwyfig2Fa1/6nG/+Zfx68B+EXm9/+IjmP+VjJ1IjtmP8twJTRCXJItWZzxz8HUtCz3ACwGz0RQpa7kAgHLxaKVcxMo0zHkAs5YW4S7/m7/7n89/mJa8VkhT6U107A+/+B01udf8xc5tbtnIKdh+vmHJuAFAFfct72Hy+k2nd359xGX7RiuwsOnX/7F28XS0BCLdTvpYwignAxZ5GM8ZA8CcfxxXSBJ9eMzBIUEAfnAl5SDUCVvxZDpeZNLLlXjFwvrpf+OO7HVBPvNr8M+/499LK+W2DlrtIDWOZJG6ezsz2pOd/77knviQg3fXnjUw/ELDZM1TZHNa/8zGX9uBXohtgS9EOP1UYxVSWtvf/V/s3tRbND66Icb8prbOu7+GU0gBw3BMZsm2iqlZ7isi2myoLL0mJQmkDxFu/4ZC4uB8tPp2apiPBK6/SuzjJHkdAmkXPe/Hv99/uvzb59/T33+50fFruIe82/hHnPMnZw8meT8I5SCc8lhJyj/uJjI5asFiMhCFnKt/bW0CiydBFfq0+p5FP4G6f/lm/Faz5ceHf7kfXZRxcasmNJJJ4Esoui4/1EdBFbj/P8te7BVC28Lut+e7eVqTc0LW471i31pZQzQotmftpH20XhMRJRCwEDtgaC4+OQFw/vwcPALcMH2S79avia8Xva3RvqASzN5WA/9rmOuDdGYCkCpctlQIZXYHJKvUEVGW9GCc8XFMl2/D1m3f3LGeZ9JnO5/8B2ZGM0oPf48mGzSTc4yBVYhVyFT0iNa97/uf1sl/j7vc/CWGdzx/2G8ZcaXLMxlSinrrIgBkvzmv8zblBRhMMCUu7dBYDFj+uZ/q5NUubMvvyaAKAb1itZf/+3v4cL/+PAWvNf/VGlR4/+Hvm8n3hi0Y/i398SFgK6ckW8O+6/W+L/5bfg14OeOD+/53fpZmGpMYZKtsv6U0VWHtIFWijmA0areOzLBQ0V8RSiT/KqnoLpQiDuAXEBcYyLnnQBxOskMdueTGtuDyyR619/t3/1PAsLDiUgVUhFToAqjx1+ff/r8288/dj6tJgujpVNsAbnPH3f9H3/B8Fn3AJUTDs+/tnAkuoz9O0tGOynnZpYmA78oEGf1lMH7/Jf5Xn+5AmBGhq30vT5QSC1JCgM12Q3S//6/wT5/3PF/ySux8Jc+bu71z6d9GsYVvwZciVeHXnSRj0MZjUWz/1qN/3U3HpVtQX//D1Pb42iFYpuwySYc/4lejLsWQgFolxXFMS6HGgGzjE4LCHTgdk1QwWHAkC9yJEW5AFRQURy7fjNYY6Cwp/6ImrkZNrHIWl7gAXT70wJqDhy7/3X/k4mtCRCLqD7/9fmHm2iyd2TY3CSylhd4ACqqKI7rPP98xwP5JpmdwyX35j5/3YIjTcAifGkJb/tBjhf+lHM9cG7TERk2GknbrrAv9b0ALwx005EKh2wAKIdCKpfqXkf9J3GD+PqX6T5/WSRusfj/yi/jBd4Fw3/EW4PC7AFsvP3XY/z/5weW8bagY8PPv+qYumbuf/gwiOLY9OVGgCSkRZ7/6xZLRIknS7O19cARWIy4IgyInWZK4m6HkAtARdvjiN31w57JoDSYGFUtVewFqNtf3SmZq/ufhmP4SQBt5Ck+Yvf46/HX5x8LFkYHUp9/ERM6U/y7r8RecSz8H/adfGgU6wGQs7voB0K53CGXtiNAiIDS1JxcS5hcYUMMi3nI4whp/iKAhALynAA2/MhCivUt6a8FG6X/dW/Gaz3xMa/f/X1cBbCpTOjiVjz/POhbtw9X4BeBSy/REdO3M22s/dd7/N92GF8Tfsmdw+Hb0/emOdhMm3z8I1bZlwohAbqhNnQAAEAASURBVGmKJnQwIvhdalI4EQFqkBjAityAM7pSaUpHqoK/64ddYMhJYyWimV0u5VoHRg1JsthZaw7cgW7/7v89/iMaNEqmAihHVY+/Pv9jmt5s8y+3hfAB36su3zXs3KnnCbq6vKEHgCznORnYLh6JCj+v80Th7wFy/+cFBbb9VHJAuPAX25BBNuWNJusG4EaWqFpv/b/9ByeG6/DayDe8Ga/1ZFu8j9IaIKBJA9n+SIkIcLOuf/gV5yv4FWd8WZg94t96259us5Hj/5JfxGtD8YvA3/wtLkbZli0w/hxHjbnojI1uxt2zVdoxCKZkvEQJMLMm4UxkqRZ3gtFH7Mkyod5LCyGXDTgAK9PiXoPRR+yuf2LMuv3dAtlfJuFMnPQlE6gzr17zto7EzaxJOBO7/glfNgPVWbIwwNaGiZtZk3AmdvtP2NIMVGfJwt3+a+V/fDD0SXif/z2/kMbXoeEqTN+8wzv2WMuDZT8ScDVhQiIuB5bUV3HKpYKIUIzXAFLORQ2XawbCoLOs3PkXbGP0//2HBzzgexf2+h8bTqIjbBPbVqVJokpk1iSciSzS4k4w+og9WUZ1t6xcNuAArEyLm/57fCafD+CDwruGbTt0dM6H8c/+96EPcVvQ0eGGl5e3BYnVRjZbffs3blAUEDpL/VbMS2vuWNGQKALSJAwCBDSAeIBKCpisyUmoZJhtlTIUNtkmd6pUJ4dEEbDrV4t0+3f/6/HX5580P/pcavNkn3+xUMm24FkHuN69c7vVuWPn8/nnm/Baz6c9cdfwzbu34SzPu75Y+XK1LsbB+Rf5Mmh8yFfijwYlTw5cJVNAhM2MDvtFABeQ/pNB3OcHjXwePXGVsXH6f+4XjmLxfwJ3fe2tMNK483v9ce+vwrce8GvAd307xmWLjz89ccr/3v3bJ3AhcNdwyztObOr1bx1rHnPM5zlZagIeFwyKzhpWxifmiSpIikIz/FnyuGBQNpH+PXt32wQ6DHv27InecmJkf5gyrI66NBw5fEQ5xjx8+HAx5Sbqf2m0dPUMDjHaUSYovf/qNGIZOEgYJkxVgJV4RWoCGhcMylnYn75PHz79FNqiSFDOQn9UctpAaIsSQen6N53/xSCeNhCjHSWCsknG/xlP2TU846nY62O359l+Jp5Scpo6//jSOJ+cZHnPuvBTwbLdQccL5FGVWyZp8IsM3/NjUtS7nvp/A6+DvP7G48Ptv7XC6yDZqFHyPhVGUDbJ+EvLo9GlHy30HQ/ChQC2hn39vfS1oXppZwWTc2zG8de9WuxLvd7KNmAXf/FXjg37n3t0+PA/uHeODReUBRz/aFvuWIGNLVmGVaIUVqjgpQYPcud57vQsOYZNWrIMbw39e/bslo5wkbN796WAl2Kxr7shtc8aWGPr5Ek2c1PsCdnxQ1hI3X7kMIotDYdwoXDk8KFcbALONs+wihoFiEIFz1XVvCJToCxdwyYjWYZVqtSgUMFzLTWvyBQoS9ewyUiW4a6fFigWVKjg2Yo1r8gUKEvXME4dyyeGPXv3lQvbVKyAChU811LzikyBsnQNm4xkGVapUoNCBc+11LwiU6AsXcMmI1mGu35aoFhQoYJnK9a8IlOgLF3DJiNZhlWq1KBQwXMtNa/IFChL17DJSJbhtdN/600X4YFPvt2HZwneoeeDj1zWT+jHiUWvEZRnEpDXsWErWY41aE285681a52U9JRLcbG/Mfr/6M/wgC9eAfnq1/F9/rnPGdY2e39druDeJ+ZKdZ7nTs+SY9ikJcuwSrZ1FTzXpFTneb6a+q/CFjE+HP7Z9+BSXy/UqIdps42/tvrM/O+P37c8PP2Zdw7vvA2/BngFka+9/X0sy9iGcgAr609lCigXKuhJodSwYPo0S9aU4FySbQCuv7kmmRYsZVy8ULaGfi70dbG/Oxb6tIL8ekoTyaTHXpOIvwpUghwTTwQFlwqijNTBSvyOihJGR95dPYyLAfkpD1P1wQMHY7ionlUzZViwPv7FOGqidKytFQZNEmOwlNmq/j/uc6aM+3/wwIHh6v37cbF6eLjf3r3hi93/YKsefz3+fHLOYSRwiSVFgZ/G+ffjH7wY8zz/URwLcExEPCfpUlxOMjhD0PUgIRv4WTvPMSRSB3PSeKAkkpx/iLMWFSE5Jz3/UZe+6Ufk1ln/Rz82DC/EPv8bsM//zjvRTvQltzfDwunxVw3m538OXxu6a/jhH8IvR5tw/H39cy7+/4jH3zm8/jfShaM7uZ/QHZ/Mi4e5eKHUvria/ld0ACo+7WTPJ1usAUIRTyloJksacY631fTv3r1Hxmr//qux4N+rVpJJMmZKt9w4H4lkgl0qZFLUkC4jgh+ABi0NLaMXhSrg4MFrIHdyOMBcZvWKHYiMIw+eUK2PrefOktyIc7ytNv60cpV6/8WdTnf85ZVzZkBO0G2SejK5+1+PPziJz249/pqIscCzrGK+6LkXDI/GA79qMyyDMP8v2+s2VdCtSswuCkCS73d5TcB9Gc87/lxEq0OSYYEqoJb3Yp6Xdq2v/l94Nbb74J3+f/GX6TWP817kzdWuWbeEKP0/v/3v0ku2DVfgQuDB37Jj04y/D+hq+N/3X37H8Lo3n4h52OuW3BQUPYkL4kasf0KtNMpaFjDax6t9hqt3oDTSYtv6YEUNC/EVwgglpDItGTo9iEhA2mz6d+Mu/wHctWTSLT7aEVpQe6q5CFQHlXA5sgIOwAskgoCK88hkpgNU5BzyXASrg3Iyn/AzcRGwLBcDB6XiPv5qVZrOx7OFiTM533Ol+hHULej/3jvm3m/PM0+4K/R/v939Z1m68d59e4fD2L7W/a/7H+clpuxXGVZu4U/xTuV/vHHNtNnOP9pqPXq/Pc+83P/HPnLHcP2zd2HBj3M9jOtv59Eb/SgtG/fBAyjxJ7fH/ZcCMRLGQh4TFhXUx6QrB5Ub7/j3ysjniGKVsc76337bcWz3OTa8/Qhe68kWyEEsozD7AGJf/1jE+ZDBLkxmrhFMwiMu24G3R+0cvuxLtovcIo6/OvPq+t+HP7I87P32O4b3/w1/zdK52nMxVBzcmMqVowkGDNm19j/55UOu1KO50cIzBDTQNVisJ1WdTqur5Y2BraB/z+69w/4D+23Rjz4yZthlT4I70fI6mygDAbtz4iVH9Vb1O4I8ChhNcCdaXmcTZSCQ9F9z8KDIHDh4ICly8Pwefw62enhjYxkI2ki5bi3Pt4r/r3b/Dx06NOzZvTv8j9uA9mEb0Hzq9u/+x+mpx1+Za/Kck+ESRV90z23D7x/WrT9yIqaYJ1voE3WrFsCFLMdCWeYyF4iyLIkkVw/NMhAs/sgg75Pn/ChlVFzLUEAbtJr6/+J/nMArPY8Pr/jlY9pmaeK0fVJrTgH2+Uct6CO1PNztk7bhbUH6xqC7XYyBbh/85vBuwPiHN6+R/v/y88eHp+3HPrLqnD/tXxt+/kcrxf3duyeb6UTkegdOCXT5uDr2CiRvOF6+kplGJkWdiHyR9O/Ftp6rsb2Hd/3ZxHCsia5JWMghMxMhJszMLzUmyVoAWOEVqBUSzoidCGeo/yAuBvi8wPk8/o2XJ5M3HPffJDEHToo6Efki+X/Ty9SlhuPtTxJzIEV593+//YrmHsp83769w5FDh+FzWmGjJVXZcM5QP3VVycsjPx/s3/tfjT4GHbg54lYb/yddvnN49k9egP6hg1iNSP/YX0vSbeD2I0BEHg3iUcZzAGE1EgvytZ3pzMDyrN5tGJJGYJF10H/nHYN8wZfv8/+n/5+6xyn3IrhORL7Vxj/6aIB3taI78Sz7/+Vfii9I4/sB33+ZfkXOq1N/IYa0DuO/nv53z3v9y/C//t58rHRY+7rCcVLUichX2/+8atTMQWDLDAhcWytoRSty/jOFTwhaolQVeAZQ3MsJOeou9Wp7tJBQQ4a0Iuf1rJf+PVjw799/AHf7L7V2aBt5TFNaIbYQhPghFZ00W+ZEJbOVjhljynT9q6X/4DXXDAf364XAetlfe7Rx49/10wJrZ39uoeOvaZHMqbkFiBfdmtZOv0SxVe9tELSidf1up/Wef/v40wKr439vfd2Fwzd9PV7jGL4NgIsx3JmN8y9QuVNJGb+JzwK8KsCrPTn+Kqxv/CEmycmOe476eP7Zhn9xmRCyANZA/2tez+0+R4c//FN2AAlq3G8d1/5aQ6I9wlXzVLQi5/X081912Zd8Sm34wG/eMVyJbUGX3gdvmVrn8dcW2HEd/O+7H3Xn8JZ34IFg6JpMcB/3G+GHbxW/ymWFGjIsUeS8nrPxv6hyVDhUhIi0M+lN7SsyAhXUxauyufFeyWbQrwt/bvPZo/3h4LKvSAomQiEaUz1Blv0m1kiLnPxSKjWyUkjYT6BOqvJUgYKJQEFHJeeBJFja6M4WhjL1l1onnIH+A/KLwAEd7y06/mIW61vqIsgFE6igiZPFTKCSaybPEE9CbMC4aCE6lIokMMoGkJiLFH/x8O+E/8mzAPgVIDXde43cepaYCYxuB5CYi9R/6Yj3pempo6npIclyQk/MBEa3A0jM3v/zL/4+E192ff/vXUy3gd9gMY54y+efJcHTlUA6YYjrOI5CckMJ8rKn2P0K/NjiwJMO6PxoGBcsPAlpxkrWTv+7f+fEcN1Ljg1vfhsWY94uBwIn6/wbfzeD2n/9+v/Dj8JrQ7E16PM+D78UcY5fw/HfKP+79nlHh2uffzSbeCH9z0JAA9IX4zIi+eCB4rmOmC4wk1xmK7lQFGpxLww6Jwj1BSeW3It5Tk6GTXJMKhSFWtxVgL6C/t34KNeBqw/owp9tZDWrkbwuz1OdNSlhCUziZwd6XZ6nWmpSwhKYxAPk1qAD2MKhqbV3i3uxle0fY12Kr+v4d/0YJx935kx5LJQyQSpCCrW4FWRJiz/6Drf/uDqVKBi3nckzKKUqr2RV9EdlGXBdnpOXYZMdkwpFoRZ3JaCvMP+ErlK868+26PYXC4xNUigK1fj9Lt0+vPHVFyG2QY/XeqoxS8QBF9+EDIvHLwAql4+ldnfPsqxWXqlAcFeyBvr/9oPL+ILvseHFrzgqTSz6qdTbJ6BiPf7Wdf3FbwZc8dhdw1XYgrYV/e85Lzw6PPNnj8G3sr+pF9LrCmTYBvlftMOBNmfzmJSej0onZ3zt6PIuM5G7ImM52uZeMmt2GeWtrX5fkDQrEm+Wji8HTyyELMAAglQoSazUlKAsaeQJknCEnpgBBrDu+g9ew+cDDoje1KkarAfR/Kv4TcM2fvYCr25tx79o4Zh1/cUKxTKrGf9697/4rmtxJz5sDwNTQlMf/9W0v8ed58XKZeRrXrf/ZrX/Q/El1196yYUyxD6mmsvvxNX8rdcAynUZma2xeF/Cw506N6IqC121CSVBAk3uxAJWCmgA5LQpEkr3qOe2IPUqY7IcmHxLEBXo0aQb/dyVdB1e6fkivNP/f/19KT+CtJIgO9rmLqD0fCyczTr+MlbWjbbfjpdeFsvXvHOLf35FmNuCHvpAvDYUyrTusx9/r2Sj/M/1//T1dw0HfpoXADOpNqL12/tfci+t4vlYOOfif9GMAgCKn2WohNUzYwQSmEpRumKOXGNaTMoEK36zUSNslH5u8+FeZD7gWxzT26Sm8DYzn09emhIZ9hKY7mQSU3xaQvVmnsOee23jPEtk2CXXTv81eIVotZfbDeaqUx6sBRl/Nk3H9fz0/43of/Xqz+Qb7rWe78XbgHghUFJ4TyEB2szzDzvS/U+twHE/384/2vO17f+jvnfn8OKfwes/cf7BVn45O3GRXbZlqH656Y/zvyzkSULyWNR8pfgrPxksSR2MSpYvNayW/te/Gfv8cdf/d37vhLSxx3+zNJweJrOVjmnZs7W+88/3fAeeD3jcruFrvhqvDW3Wn5vF/8SQdvjpG44OB597zPzciAtof/0AGmKR4ThKbLAlXf9rD4SMg42TBXRIArDaVFw9iZf8Ri8QWIYskv4DeACRD/lqYsvQSMsSYPwzy3I1NAm7rynrCSmwMp2Smaclz+QYpQGsh37ZEsTXhm6i8Q97lsGx9QcJdq8L4Fb1/43qv/zadvV+BEV4qdi7jb8j+HI1nwXo9teRUq/0UUuYg5I7onMOLcy0iPOvtoyNC6jHH+drMcjqzT9PxJtZfuYA3wDE/xZzkhks9leYb3AUzQBkCQ+exB/Ycc9G5HmwRT9Bq2o4CYQXACDJUwUAeErghQeJ56L/v/0hX+t5bLj5jc1XWLP+fv6xwdCw4jgwLVL879o1DFdhW9CVl+8YPuPT4CUcP3OgRfa/Kf9/3n85Nvznn8L2Mxpa/NCdccHsj+ZI+NHUTGJzHDUgleZ0/wlOOqW9CoEwglNGBGcgh5KitRiGEhutX94/nu76R6tpJbbbCJz8JHiA6xjrUdgOSk5L6l2PqMtKFHwMeRXBAWEz6+c3BLjAk0Q7sj+OGER0o8e/69dR2Ij4j4d/0YRT+f+ePfuGI0cOsbGSRtPNiOCSyLv/9fjr88/w9KfsGp7xFFwATMy/J3GC8/MbI4fz9Um+8Yey/I+TEe/oM/G4DTBpkpSAAgBIb89/oOmbSyjNMlqPY6Sdjv4Pf+SkLPyve+lReSGR3xBgPdL4iiBUPfT4X+j4/7dfuB1fE94xPPoReD7AEl1t0fxvJf9/AT4w94xn3eXNr/MF8r86+ryZRpVsWkIkVzrHTgc2Qn2F+ly9zwnrqX/3HjzoK6/23KPNyCv8aFgBJqa1wpQJzTvK3BLnuYrsBE6BzTS5BfVfgwc4919zIM/3bpk6NxtJ5vaqJQTbSv5Xde887D+3ijH+Ip3C/w8dPjTcb9+++BUgygVQOw4xpkWdf7R1djwPx7/3P1lgncb/6U/eOfzkU+0XAC7K5eSEdlA/Fu/5jT7WpGgkz1fbZAKems5ZF1/xmbb/sCROd8u8/Q+yFrXzH+lnqP8lrzw6vOhlx4e//gB1TKW6xcSYevzTCGKK+YOZTrLajFWZtT7/fstuXAg8ftfwzXhYvW3GRvvfqfS/8MYTw9OfyY+BaWL7mRbN/8Kuem3feIZxJSuHGIzWAVJl4mSFHxy1wsRxI/XHg77WLpuWBONdSU6ETJkuhHQY8RpCg0pJoU0wMmmr6a/fElQMuJHjz1Z0/eNf/TzQS+hrHHs0l/jWcXR6lAOB6/hy1atyU8e5u/8r+f823JHU+rXGc9Hfx39jx7/bf/3t/+NP3jVcjV8BGK/F/ulWFOMXFwLyWS+JZUjJ3XvQWUb4Gt4Mc9/aIwAX+SB4/Gut+cwGHosa6XT13/KOY8MNuLt65L0nVD/LW0JzdG1rQJmfguOio7zoTyyvh/UKrASvrdSvZZx+NvNf1z/v/4/+vp3yoPA9vwAXAhvsf6er/3r46E88867wf/PM5Fw1uFHjHz7rTstmjRpTpITHzqS4i56MyhlHAoUwoiiGOdUpYglPUlpDw1tN/fXi32Yj1coG44/KmTKslCmSy6k0jjJTmrxnnBVplFFqdWQ8w1ZwgrQZ9PMNQQfwpqDKiZoxrjys4bEgu96mkd+YwCL7X/Sh6WPVw4a31fpfYrB16IxnWK3Gj4Lx42Ce+vjH7Oomkbz7v001C3j+iYFqYnw94v8nrsIFwH/CQ8BshOjXGCtxZDHX8GL+kYJe1tYN3KwtZ3k70ubpQkA8NJ3/otuNDu1/0f8nf6b7/H/5Jj7gW1kHuKbSbqcYHXVLU/v4L9z6K0YqHMH8KJ/hwfv0T8XzAfg14EmPu2DYtcvGfx39T1fy9DBtqPqTtd7aLv5n/n/Dy48NP3ZAtwAt8vwbMaN9iJ5ozzxghGw8chxEziv4ZhyCr2IuXIylZYxeZQmh+Brr14d992Nsy13+ujdsA/7sNkXupzSPLBUgiiTCCuajFMRhctGPUueh/sN8kHPvnmlfoRswrfH4y3gll+MP10Hr+tfN/u98xzvhC3tpcaQmyiSk5NByhkN4E9D9UC6XEDgNY4ypVi7+tijzT/gaGq1NTg0XU9j0LGTjke4g8s08//b+x8BvyPj/+FU7h6ufxrcA6XYejRXeujcn4/wL3jK/EXASW3rkPAi2+R9jjRt9tByLkaJHq0F5qEPHmg6L/0ClDOnAV9L/0Y9in//Lj+IrvieGj3/CtvuY/lIXtUlV0gLSCWjmwiIixNBfhGpZFmHq5x/YBeMrJkx2dBD5es8/X/NV24Yn4ULgYQ/R14autf+drf+/+BXHhqddjV8A3BnVoxbO/8oQ+qC2DWbDRUpcQbqhol6UJynGG4Pck1KiKkOd67mSG9ko5FLIIeKfOyY1yon3nZ3+as8xm866UHOAroj5aSTvPdsWphBkXLiSdfnzUP8RLOD27t2nBtNBBRxAMRxIqz3+rFw1mb5QG0DX7xaASdbK/rtxF//QO99JBTIiZxp/9B/60Wabf2ha9TTzt3C7ANz6IrhW9o8TVKgNoOt3C8AkW9H+P4ZfAPY/jc8AIOrkQ2A8/+miX7pOV7CUz7KyEuBmfitDMX4JgEmK6Iox+ObowudBJW1rEZkz+n/lDccHvk7xz/8Kbx5CnR7j1CF+ew7nf7Yj6mGLFAkq+ZHA6/oXy/4PeeBOfERsx/D1/26HDN1a+J9UbE5wpv7PZ1SeggsAcfbwrfAoARbB/0rT5HeKHAh1YwODnFwVBWEFoNQuASbxSnHSmUGdTgZEQLQ7AoUoYvVhFfSX13xyStGhLUrYImtgNIRtU3LmsoziM0wKMIFdPeTklSE/3/Ufwi8B+3j3dx3H34d3o/yv69ewoP2v5nYwfG+jJIslIRBmmo8//gog/qOC9ZFhnKqI8SYdKXBBqAPCuYxINYdVmH/6+KtNu/2Le27E/PdjV/AXgAv0jr7Pv+ncVDyfsQGMGeS2IU48rCRkOJApRlkuhxHZJ3GQZwnIZGmLo5O8y07hRv81P3PX8FPXTXxIycq5fqlu7lA1AipQSMqRjhS4ICD2+IdRYIyVjLtg9v+p/RcMVz52B0dT2+1jm7pxNv5XG6HUfbr+/7JfPDZc9Qy7ABD/Sv7mbXR/FD51gEDeOtp/pK4QuDBGoFtgki42bhtnBUo5CpbU0hVvqVPya6P/8DsPyce9xNCilh1iT3WACr20SSUKfqZQVZ4IE00gSblyrASdX/l1IZ4BVFVLhGmB9Ot2oL3RLG3i2oy/ep4eRWFzKJyufz3if5mf7jzH+OND+mXc6gFt6Yq31FKmcPr4r8f4F8sr1O3v5/+1978fvXLXcOBH+arFcv6T070MRdEvW3R4hgSTaxRPZaz0dCI8JzJHYqYRLqgtukHlqkwS86L/Qx9eHvZ95x3D+/+Gt8a23vpDzaNHM0CVFU6xP41OOg/Z/lLQCpRyVXVSzi1tVcCqc9I6Xiq/efR/657tw6tefOHwr+6GfnnXmCMxOxP/Wy3/f/kvHRuu/Im7ojnSGGvPItlfzOU280bmfJ7XchKeQK3LCCN6xc1qA54pAn7LSXgCs4b9+CDVAX5oaCrpPDTF0agzz+Cvm6z+dFOpdupuf6qlCCaigYz6La7/8CFsB9q3d9T30VCGRMtJeAJV3AgjesWNmjMwUwQiLSfhCaw0jOgVN6sNeKYI+C0n4QmsNIzoFTd0ZmCmCERaTsITWGlo6OXhX0idg//rl4GPWCUTTfO2Nvq1beOeOJ35TJEJTpJMoNZlhBG94irSHGeKQKrlJDyBlYYRveI2mk/FaytLeAKrWkb0itv1T1hgxmSQbDkJT2Bl4Yb+tCfuGg7++C6tyePPc2uLFJk8/1hlIZ8qT6CyQcCF/jK/I0CCJysr4oD/+m9ODl/xjZ9wruSpqoq+Gv33Cud1jLV4mTEn1ZJAlTfCiF5xS9UJmikCiZaT8ARWGkb0ipu0FnCmCARaTsITWGkY0StuUZqgmSKQaDlLw5E3Xzh83ddsr1hn4n9RJau2JFrOwv9fgQuAJ/6YPgQcDWqbnHW4wiafKQKplpPwBGp1RhjRo5ZaYEKuUjfFb9ptqEva1aQLOdlxr93oIzbkMi3DUcUk4JJLw0G8Z/zq2GpgMw+y2QW9DDorZR3jZDWMGaSQ6WmyeNcvdm3sfxBvBuK74H3U3ITMMy3DWWYMu+TG+5/czfIGerMc994ZfcSGXKZlOKqYBFxyMfvPVwyuRvwdlmdJ9k5YYLH7Xxps7ayzwgbkPSExw5XQCHHJxRz/0ty6497qwq/7PMXPsgV2yd7/qfnnPz1h53DwJ7AFyD0K5vIFOu/6C1kPLiGmpVX9rqpbWBj5vAeC1IsKecfT9au8n//0Dr/r/9JLPj584G+n749mPRkWvbMHlyz6RdTJUc4IdRZcArlIhiuhEeKSXb+Pv5jIzRL2MkKdBZdALpLhLLQDa/8/ffcnDZ/7rylx5v5HJavl/698zbHhR34UXwK2O1vr0X/pdHVwS837X8PJpcFi8E4ENUN6pSQ3q03Em6DyjtHSoPgkM1nd6ukf7TOmPuqXlJAETnBBMgGX89yFI1eGsz1v2IYmbgJdtiYZ5kTPXThyZTjb84ZtaOIm0GVrkmFO9NyFI1eGsz1v2IYmLkC+HpSvCZXw3SL+xx5q2hj/X0T9B/Br3P6rr4ZZ6vEvcakWS9wi60TPwdFfAQ5LoUWbf9hMTX38Y7zXcf7v9p/2v6f+yM7hmU/HFiBehTOlePL5Vz7mq1wRkA985fO2FQ0RALpu4JKHbwkqFwt60gWV+siQehR/3JPvHH7ppuMgelq98z/boUmcDiByAcFxkotE3vVvxvXf133t9uHtb7hw2LnjzPxPhp2OQn+QpON/tv7/X3/l+HD5U9stQO5syAXceP9jS9AK9hzJ26eYoTAE+CZhnCKQn46vmKyLabKgsvSYlCaQPEXPTT/vKO/fz4WGN4g1s1GKB+SA5xSbSSoyLzjmtJSCB+SA5zO6SVaRecExp6UUPCAHPN9A/dwKxLu6qzH+G+1/Xf+0I/n2n3A3BzyfLiZUFakFR78CeLhTbMWkXiYiCSTe/Y9zzbnNv93/V3S+8DKRWmf/e+qP7Bqu4S8AvgTIq3XEje46HY9/xB8Elk5idcDyKQmffWESlpYIXORVYBkXA//tD44Pu7/tDg84EeOhx1+Pv7OZf5574ILhisfy2Rak0/C/tfD/X775+MCL2kWf/zzGoqFKUNvNHiHkc4aEaUFmi2RGvkMn9KQ0gblIDZ+BfvkpM5WOqUiAwCYkxHNAtxb5XoVUJIGQc8zzVGUCgytAYBMS5DGdf/rzQ8Fqg+Z4BuPflBR0Pf2v6x9bgPY/eQL+nRYCRcpj4sz9n68E5YXAqVIff8xWbl4ay6aYBpw3Y4+/TXP+mxpE9/+n4BeAZz0drwH18WdIIibrTTjGbM5/pMo2ILmbj4LiUF4RLxoSKTWCbuc3/z3+r33B0eHa53G7RGmKIHMHVF6WHBUyV6Kie/+D6M0GIYHBHgGVygoZiU4Ruv61nX/uc+/tw6Ffu6i4ZBqEKf+LQV9F/38NLgAe/SRcAEykRRp/8XdtkLm+UtBsmspoE52Y5KEiviKUifOCX/1UVUadoAoD0w1y3gmQApIZHLKssU0uk+iN/v144Jd3GlmvXkmaLJro85l20/ua6mrAaQmnel4X4sUH31DS9Z+5/fWO7j6xXW1Vx049/hvtf12/jpWMVAzXkrz282o8k0PSasYfLxz38eNyrDb02TQTuAPIBVy7+aePvwyFmtnNHnN6t/9G+9+T8QvAtT+xE1/qxfzM9/rTYWWcfLA8tzDV4bQjef4kAMrJCVV/LaAAUT7jo2/oWsZrQLk2IIcM6CMuVSwPX3Hfjw9//X7y5vWTWycWlgoLWXQorcd/MY9YKszlAHIBt+b8965bLx6+5svpY+qTK/nfWvj/a/ANix+6Qi8AxMxudjU6Bmcx7B/NKlFkfpEIIRSAMhXFMS7HGwGrQ4cAjgbcQzbDSZWALS/wALSEojhO6PctBiJJpRSeSRU7kABmShWyS/Lah5Oa5yHhAkGogYodSAC18ATmkq7X8xB1gSDUQMUOJIBaeAJzSdfreYi6QBBqoGIHsjwcPHiNXMDpOKNMAFpeURwnxj9r2Aj/6/qLBVr7z/4qxyJp/FcM2lJ9FKHfbcObRtrU6ie/caWqSMsLPAAVVxTH7n82sTcGMqt2++sm2mydDFfOB6TlBR7A6vjfVZfvHJ79kxdE/PjJWc5hhVrak/Uj1lROtwBJCGDVvbSEt/0gZxgylJlkmzAERIZ1kIY/8m9774nhAZdh+09KznNS4AEoR1Ece/z1+BNnKw7yY3jF7f4f3SWOspL/UYBFWdIddjX8/6ZfPz486ol+AbCY8e/9FtOx/7F6VUSOJWrzAt6CjhJeOsVhDEMAWlV7HLF99SyC5CLFrHH6+vfu2TO889AhLV+GVyG0l3cHrHaTKRm7w+HKEhVttLotZaehUpdAOHT92bq11SpbgyXPAxw6Auj0x59jy3riLEN4IoWc81bJ/6LeAFxBnY/Y54F+PpMTd/9rcwjWjj+JFe0U8ceHgfXLwCg4MrCoiMOIfR7YPzo/ZZ7efzibzBxmHWbAOWFvwfnnybgAuPYZtgUIPeT5X361lojjLwKk8dcBXsLha7z4JxfvS/prQesu+oFQSmnMKqDRy6oEEnNyLlc57pV+jG+VaCtkoS1s/7AT+8nU+w8noZcw0TrMxGEAnNn5//GP2jk8/1r7yrXVNeV/os5Urab/v/aNx4cfeMLKzwAswvhXbagQsb4Ogw+JkSSrfFUMDKmpCjIRfBlP0ggwpcqnik/RWGwl/Yew+N+Di4CSqIQ1nSoluQADkMIZ87WI0DJjpGZFZpJOcgEq4HubnczeyBPqAHajr2LO2S56qaRqEkxyAQYgJTK2Hv0/fPgQ3vCyb9Talca/FqZR2GokgOvhf6rMj11/tn98iM/NU+XJuwIMQCQzNuV/unVsb6q12z/bv/s/rWETAb2EDmUpeYqT5KyRRAodwrJ4EIqVnKog1wD+Itn/qsfvHJ6DXwA8lfuUoFigOU3azT6DxW7yz88/spynMfS6ABwkNxonat8qBFDq4QUVth0xPfeFR4eDPzO//5+lvSopYIc+/8MuYRiz0qSxEhHgIvmfDGX0QX0qocJOrc/Dv+L6j4IPf+iO4RXXXYhKWYNtVfP+J//LzuW+LorYEMpDQP0b9gZu5FP6/+vefHz4/sv5CwD1W69cv1RsNMuoM0kSlTRFI2O1/F/rb7W0uDfN6CO2tAiH1BmSPGX5STgTWajFnWD0ETuVkbf+YH9xm9g0DqZWbgNZ0BDPpAyHQADKXVkmhE1zkRaooCF4CA8x3nbbkYEfxvJFfxjkFP3fvXvPsBd/NNfu3buriyBVVRTO6S8SxdmjcRXQ1lgxR0grfSb69eHOQ60Zah2TTqEimTUJZyKLtLgTjD5iT5ZR3S0rlw04ACvT4ltE/549u4dD8GumMxl/KTA6tB5VBPIrQUnN5pyEM7EtINWaQJ0JJw5tHcHo+rNpJuFMpN1a3AlGH7Eny5QByPKTcCZO1mUCdVYUTJYp7Fz9JJyJk3XViltx0TRJ1DZkVoavwptSnrO/XAAwKLnIkTUTYRSnvNz5F0xxlbP4QybbfbxiL6Sq5UiWLsFkKSU1UYzXAE/48buGV7z6mCrzMl6X4338YQkYy+wyMg/tNElUA2bWJJyJk3WZQJ1p5X5s63A68syahDOR5VrcCUYfsSfK/Idv3jG87pW4ALDq5vyP/h4JJl4t/3/Dbxwfvu/xvgWouHdue8ABWEta/Cz6H30CkKtrYcOdrLljpZJEEdB/5kNAA48HeKWAyZpccVyjs0FShsJOq3PHpDo5JIqA8/p1fzGnFwpOJed5rjI1lsvZFaBMW1ZnCAeQCwCeo1PMeZ4PWOgfGfhe9CPIyZcuUjRSogg43/+wqckdwMVQfTHgej1XJTUWigGsff+pbSX9hw7fFg93qnFOv/9Ss9lCtayt/7X27/oxsskXyyt56xGvsXPzP/nVaB9+NZLZvejv408rd/9fy/PPZor/Kx67a3jufu6TjvucgNvzD+f/bZDAEkpWRxTB/IuYxqO9yFGWdPk5DjwJdsiKgAQ+iUgO+0UAfXHb8JBHfGJ422Euz3wGaPXnsl5Nn//VmrCVmN5tm2wlJKNnmCYErr8eGD/GRnGnsjZNiSLg4tv/vt+wfXjray9G83XOm/M/9ztf5RBPvZXyZ+P/v37rieF7H8MvAUO/2czbskj2r/uqo63HeU6WmoDHBYMiPfcibhjHmzwKNfQV0P14488B/9qvzyciD8QmL5mnWHekSlDHSPgNPeQLUEsUFxKJiglkQv/Bg/jyrbylqNQZ0Fn0X8uOC5LCXwf27Ns7XP2fr5YJIPTExGuUaHcARbSBaokz779WV9dSmlPTV7RV1a7p/rM2nflcGJSxqDNX5hWpCWhcaVDW2P+1MaEt2haUDdbPi/P1ij99+1ZjkQ3uf/c/eKIEIselx99Gzz98V7pfAGikYEzsPKV7RThz6FTIPIaOCBJxlVBMl/Y22ySmXF6wXvxUsMxrA4rjYWFCD3jYJ4bb3kO4SVZNQz0NdFwwKD3+0yBigMIwE2ZdiTchXkjjgkFZR/vf9z64ALj5ImnWSv5XezFsskr+/6Zbjw/f85jmF4B17H8ZjzTME/pjbHKBAhtbsgyrRCmsUMFLDa7eeZ47PUuOYZOWLMPT+vXufz2klPS5SPN8zBpdSmllOVugLC1wXSTYLdlxzf3tNgchT8pKKfc5w1rGKEAUKnius+YR44XS1bhQIlySt1IppdcFKrIG1UWC3ZId1zwfowgAl1Ja0Vog2dpx5HCYrfS37mOutbVNW6aWbTGTlizDKtfWVfBcj1Kd57m3K0uOYZOWLMObTz+/7vyfxefOfvxH9qldJtgk78PDwLqFTu1m1kvnPKdEsQkg2zzDKlpqUKjguaqaV2QKlKVr2GQky3DXTwsUCypU8GzFmldkCpSla9hkJMuwSpUaFCp4rqXmFZkCZekaNhnJMrw6+p/4mB3DT+OjSZrqYNJZl5v68VYfWNrv+Sajp2sEbZu1sJrJWY41aE285681a53Lw3/4njuGI+8+YW1os9znDKuc63NPKHiuR6nO89zLZMkxbNKSZbjrpwVaWxY8W1KpzvM8l87SNWzSkmVYpdq6Cj4M970EFwA3XSR+u5L/FX2r6/9vedvx4bIfLM8AeNs8X+v+l36pRtfruesveB5OUOVOHWqhWZiSoGL6NInwxodaOv3mNBYNSikjFypQXCg1LFijn3fS+d5/KRR1ohK/ogvaGPC7kmWpCRl2nA1AUjAdE0+4gkO4olvJpH/lu9ilt2fTf2loHEpdQvIKgz/I8wF8UHo/FmXr1f+kvgJPV3/5QBj614x/VWHlOeBM9L+WJ1Zs5uKFkrkm2/Wrv48NWdlS2DDo8smJu3xW9nTHn6MgIVbFGRDBMVqJzsU/Lxhdv/3mbRqnsjLaffxhStiyWKSGBev+f0b+v4j+94RH7xx+5iBeA8qxZoxyS4/84/hjiS40vxTQ4JL79nI3HzhJPAgrxx89x+Jdzn/qSdmfPAIf+PA7hsPv4gVA4fb4o/2zRWpYsB5/5n/uSTlfwgXAklwA6Ppv3v9Yai38/5a3Hx2+61HcAoTkDq3YzHFj/D9pRTstlou7FfZUq4XLg6fktJMljTjHOxf9/OiIprSMJ0naF4BNVgn3trf5SCQTTEcmRflp/fJOe+zz52S5Fv0X9anuOR2tfrlw8m1T0QcAo75lwpn33wbinO2fH/CUPsr4WsPPov/RZdRzLv4n9XT94dvZ//gcyn68/tNtJIbWwFTa1DG7Wylokqfnf3v34FcA/mLkyRqV2+YsNqePv4ZnmaEmLZVNJufXIHT/n/T/sM+C+d+P4ALgZ3EB4KmMNi4DsFdn2V73qfwckBp/fIhXvh/mFcj462UE7/hzYaUGIYO1Iwmo5Yk+CBcAh3gBAHaPvx5/dBlzmpQLcXQQfzW3EiZ9CwDruBS/ANz6WmwBEoI4nZYXsPifEvXoZVnoXP3/be88MXzHI+vvW3jjip6kHcSN8P9QK42ylgWM9slHFMSkRHIjBXWO9y31qPCt2opXKlNu6PRBJAHpdPT7AoMDz2RFAZGimEOeU65Oysn8gAPwEokgoOI8MrX6uR2Bb/epE6RkxCnNH0RxVLDAoJ1O/1mvFSUYyWmeB0MAUE0/385yYP/VeJ3o3mSxZL3UXa0jEQRUnEcm6tNU5Bzy3CVKrpzMDziAQd7xvsfu7OZ+ZdjrdJrnTtcc1AWx/0aP/1rrL9t/kk/VgwHs9MZfiyWHELCUJZ/jzXQEr5Ddg1fI9vFX66pV/Nj9/3yP/x959A5cAFyI+GD8YFHEO/4AZWEP99Ab/QRwN588dxm9ZapxZfGnW33UtyAmifXqVh9/C5D6ofK1sgc//M7hnbcf17rIQH2SqdC6nP+oNHR2/cUWGI71WH+shf25Beg3b7rwlP5Hp14L/3/bYVwAPOIOurPaUyIiH+BxC7D+0If42cqZZuYmrwzTkBzK3GWlaLkMl5rKryPT/CI5D8nef1frYpO4Ey2vM5l8pBNRBwTszoWXjO65jOchYATgh48cwTaEPUaY7t9q9F8VnLv9+QD1/vwKVZvoWX90LwDrlmctfRJ3ouV1lpRYpTP65eNgExdUauFGh7Sc9S2+/dUAbtAzzc99/NdKf4nPZmzOcvyrGHUzedUNXn4x6uM/Nb6LNP9Mtc+H89T54vq/tn3x/O+H7WNJ8j5/BpXMt8nSM/PvdPzB/qzCzxRRloGJJFcPsoGICP5EePg2LJLecaTeAkTxM099/NXDfCLMOa2p3NauWzX+73ufbXgIOL0FaMb/+CPXWvj/O44cH77t+/gMgPn/oto/tVB8Y9JNnIhcLlqsMww5DfiRW9UcL9+KTeCTok6c0M8Fa3mg1Z1+XLFwRuxEiAmrLusSntdcxQqvQPwaqd+pnhn7qaqmRVfo/2rbv90S5D3yfKrRhVegVk44I3YinIH9fX/3Ivjfatvfh7qynxMn/H/R9bs/reb4V7YBUryoQC4jz93Y1junrZS7qSsZJ25C+0s/vP1Vp6aRSVEn9v4v3PnvXOL/8h/cMTz/mfqudNsIXW5KmntIRGHc7UcAOz+pQ/j8yzb48luL8bWh/4e9dwHXLCvLA3dduqGr0RlNMokCcWREiZeIxifa0FV1TjWIEkABEVEJCsMMJpMhXqITiHXOKS4akxYCCspFFBGFFoJBobsjXVWMyaMZ8YlOookz6vioSdBhMkz6Vk3XOfO+3219a+29z63+/z//ObVX1dnru39rfetb69/3nVpGfRjivgMNqDYlt7pnYSfpl+UAQDULT3HZOpG6sGHn68Vn8lIptP6htKviriphJ07+D038z9xyvLsTDwFLwbiN5Z9mI6Rs/yNOylsCSMpSXy+CWe5qQmyX/5d+5eGOz7e4/2XNP+0JWxmQAYGnPlS0IueXiTwgqpFtBqUAUHc9IYbtYjcHTaghQw1F+P58efjXLNsaY9hIxUUEI62L1oBMa6TFQ6XPcIq8hrBqbygpAN4s+s8wuJ1Zxb9/JQBNZl96xXtbGH1K4QUEoWuJvz5MvQFzMDSH/rvd3eTf5H/7/CvP5sToS3ivZfyLpX629SloH09ztSXljbAoQmVJdM2rafwlMrKR8ESM6jjNev2Z5t9i8u9lL7qx++FX36iDHGMLgDtDchO/jT+bQzJl/CQ+5wn3ivBqT46/jBlo+s4g03OyoVHBHuf/cfx7lnwHQJ8BmOYfI2RBa2InaEUrctP808O9vP8jbwHia0CRa72S8i8OICO2AGaQ/3yz1dfyAGDIPxsENz5u0r7sn0qBa+sFrWiGoHI7uf+1TbVRbU0vTPaUIa3MEFF9Q2tqwQQqaN2PoBsQOH1Vx+ziS9lJiNRGtX71J6NNASuOSs0NxwOejO5sk5bBkitFTrCjQkd7dTKgoG7lFhX74mnV+kCaTsDwfvuvbQrDGp6CKu4ND/rO/vWtSufRMMqOlJH+h7Tzpebm2uLPM/8bFzbkK8nRFbFaMIEKuu/+06yaScYKsbabsMk/xthCFl/lntH4y1DnjecXaAomAuUMjYeBYygNCHz55h+br81LjSzElHGJ6DpJJYFu0KUSPvV/2dbfMqrVCMaY1dSCCVTQOk+CrsD/gFuAXm8HAMewM87f0vz7d0zwdCSQppdYcBxKckAPebmn2P2AH7eY8EcXdH40TA4YgNPXs3EAcPdFfftQ7Iyx8yhqxo0pzTtUUwsmUEFdXJWDbkDg9LW//Y/GsPqr7OoyJHJBn/xLVCIes4+/fAcADwHvlH/McZZZ5///+i+vdk973gOaD+JBnFgyLM/4l5ZwgmosvLml9oHympwMm2SfVCgKtbi7AH0f/mUHY+gNNm52p5r99SaxTsVZSkpYApN4gPWrPt24u2lxVwN9H/1vx6tYT3ZNSHlFokCUBTbg32/f0MSgBsoO/VehXW7dltdJrSZt4VmKc/pGFzJY6g6MkIqQQi0uampsoP/ODV9FffKfY2GBakklfyKSNeCD7HXi1qSEJTCJbwvywJEP4vutAxSu2wpsGv9Dt/7Pe/2LpPJk8bqfQCKa2apbKAq1uHsA/QDy76UvxAHAD+AtQNwTlyd/vT3NMi9tYxvBjysARdYhsjk9WRQuu9WOuwHBIfzsFz3Q3XUPjB5A/72t0trJfxk8HcKy9YH1ugxwkQGU2cooFIVa3NVBn3H89TsAp9AmPaws/jWBBfffkjnk/7/8tavdU55bngEo/jXrFJ9f/3cb/2iHA22dmhg/oC7jTjzILsu6lskcgxsBR9vaNZWet12nZ6nXNHnEI6R9UAsQULCymDuo6ixpjAGScISuzLzz7/2ozGakEXC0rV1F6XlbOPOMf+zE7aL/0qKQC+Ca4l/u9+fQLr7/JcqT/73EfxVvlrrHroJ5JnjNmGbYY1zqAe4ASeSFnpgBBiC+yofBzItPtAZ1stfeppx5Na/s5Lgs61omcwxuBBxta9dUet4Wzjznf/Ey5f9e8t/H0ePXqxsBR9va9ZSet4Wz3/HnAcA/ea2+BrT2y57Sail6DJD92/ziGX181VdjA3kja5soDxJociYWsFJAA0Cbz3nRg92dH7G3ABnfTNT+acdmlbYCBCnT/Nvv+OcAe0zbukT5cMVfnwHgQ8Db51/dP1+3rz3/f/V/e7g792z9ErD7qGoPtBEdbWvXUXreFs61jL/7s6kFo3HNxCerLQTbHaEVbW+V1L2pGd4qMZNlgqHswb9csqSKWBjb+HJCfoZdHkeIsogpPiyhPjLPYa+p3d5rPO/+ew9K6wpF2oPIVJdV9xn/j1y8p1tdWami5/32uvacsSyRYZcZjj93/C9s4HafS5ctL6BL9cEy3LGjEn/p9hLOvzIU/fjza9N8lqSec+xJO1uHx7/YLhaytsNeZ/kaVgk5kDy3OppD0YM9rD/FT2gXEqAp/2az/nAEtz1DKDklUlP8UwR2yr//HgcAb/iBG+X3D7fyy/LKV4GW2yIk8HrSH+uP7MibfZ93Wm+X/+WSwTGxwVbRl2o+99se6D78y1fLCE7zD8HRXGacuIoIdsjWf235wc3/W/Ea0H9+xynEbvv8k0zE/t+s8//XPna1O/d1D1qey0DqT58OrRFKFTNowfkvt+wxwwbbpRkordT802YKGRvL0zJ5VRJbs6bi1nFH6jiwv/vxv4LXa95zz0XxuJcNW0aX4hOAwGLAOFKFlApSKkgBiJZvytl/WqQMioNSO1LIImJk0xC12JBn5aDjf/EjfKf6Cloz3H9v5051aAOQs0ChYBxUGxew87i+kQfHfv81WBIWbA4y/yQl2GQUbZXCFeYMqR2pJOR4V3LR1XNNFSsHPf579e/P5nj7vbZRljQaG38ZbIkqtUpeKCksuMld136AXkYCY2GIDWVt6xDHXzriHZXakesj/6b+IwI+5CPj/5JvvaH7kX/IW4D4P88zg6lndJzkBwQCANmFByjrL0Rjn0XkubGdLoJmqtsEgkWEqDxVAIDz/xtf/GD3obsfFjpYdaG+lb2uP6KW/dOZeSmQtp1ktqtXJv8RksMW/+ohYI7jSP5xx1/HnxkARCqDZfwV3mv+/6vf2OxWvs4eAhYf5ki9RL4d+O+PzMpojoRAmqhTFaAV7YN1gjGJ1UUFYhEw+bIqOCHVMKMJRVoJjGOk7eR/bW0DO4nnxagOkQ0aKQ5KTUt61kGEk0bB+5CbCA4IeYeFi58MHgQoewKZ5DukotMLSFiSLl9r/3txQxjn6X/17Er3EXxYiaPF0vZfz1MY14Mn9e7jz7O0PJC6LGf9qVyKZEk1W4QSAr1w9wgheijjf5j63z78u4j5t5v8i28CIJiHbf4dpvGXmTbNv2ZBXr7158U4AHjjD/I1oGWtZZ5xgdzEAi/LreA6XzbxGyfzDOJ61Vz1uD2OCUWaFCVgpwsA6e3vL2j65pKue96Lr3S/dPenzAs9s9CL2nbGlP+IuQwI4iKhkYh4ePq7W9f5/Dv9pJPdXe9Bbu+Qf5pxJdc8/641/3/9tza7M3/j/hifCoATNMsyvBlHEVxc/tfevZVGlWpYQpsJXrXT6frWCe8iUZphSQfiShjamk+pDG7F7pHbUlZbsuEcUFdkbaVHdgJb2ixTeQ/X9VOd5cvZ/yQQ/pXmrZhV/2l1uzle+j87//E8AEzm/quHvPW4em08R72WKaCR4etcN3jWn4UkyEhlsNCbzaL737hfePwPi/8tvh7QB1Fqa7mPu9dp/Hv5tIf518ZFkmfA/2U8k7By26qy+0qFMuXfNP+ug/Xnxd9yElcAsJOEvlav5WX+Y+c9v9GnXYY5X4/LAjw0nfhbircK+ZUAmKO++OHpfywPqrrVfeNLrnS/eNfD5JYyzT+JlYShDXyJ0vT7g9iM7X+eueUkvgPA51sYwPH8E84c8v83fqvrbn36feI7/ANYtv2/SC89tucvcyrGlapsyk8raHkATFyjzQU0+MFJxmtwr/55hJYLMXqJ0hAaVMSENsDIJN7K4LcOZHr4AeD86KUB8+y/tAV+chgW4X8dH15bG3jzUi82DaFBI/7cKeOrPYfO+nuiSb/Kxskpv3Q0FtF/RHzyj3CP5R/v/Zf8aAa8QWP8eSaknrhmW4cU+b3z/KNoz0xDcDSuAph9r/a6/og9JNyi5x976nle1hfthdNdoPCD493t1VP/+2fdIo6Ilv5waxw9miW+hzP+3/bNN3Rv4i1A6FAZ/3QoDjq/4yGf9SKMIPA+fjl7SR3ho++sUfmtPQJwJx8EnR8aW25FWMMl2De95MHugzgAKP6NyQp2KSRV2Th5Wv8Zd4bUioWrxC34wXHRXn3U4n/6K090d7/vph3zz39/Sv9nk///GlcAnvz0+8O/zpBe2INQ/AepjCNI81p/SmYUqD8ZGx47k/IuWjzYCXBloaAUFxDXTTbFQMKTlLBixgMjj/7lAKBeT1RWWuZLDQQYOarkwlnDRvVKazDjGTZFkLjzyjPjLL12C1VdUXuW/Rd7Zt+rRfnn1ZeVlRUOQz+2e4h/tTOmwypd6fWj4dHxQfZ/8j8e/zXclre2tl6yYM7zrze3i2ewkCWN//hCd8opSzoO65R/iMA0/+JXyhOiyg0iR2H9+fYX4ADghx6hfZH5wF5x9L3/igNFlwsv+u9BsLkkerxZWvRty9/8dCAgltPv7wte+mD3Cx/GFYA0H4t/DX/LC//G9qqn5+qwLU1lW3zskj8RS3iSUgsNb/K//PnPh4DvvoNXtzCa2+RfDK0AJce1h4pr/hVejL8kFVLEjEjeWP7/5m9vdrd8td4CNI/9X3dtKW4pHNmdydvuf0euax+iJ2rAJ4yQjUeOg6jlbIC5c7LzFQ+qSoWO0asqIZQwd+hTAABAAElEQVQe8c+HUS/iAWAdEt2q8QwrRbYSLWwGd/rhBguSn8Xn4GphW1DEpGxajuCv4peI7dYVa33ER/Ggqj2gGjOjV1VCxLcNj5CNR7qDqA9j/OWNLHivvwTX+qJVQpa4/wcd/2X2316Z4zDqxJnP/OOSpxPCHTGHmkIRytn85ytBL+I5kyn/GJMchoRIyJZz/fE2sz6I9e+o+P+2F5zs3vSPcACA3z/ezqPXlnjqnoOPDX9/wdviNwI2cUsPg02OpQkx3uijetQgRbcih43wuMNPHhX5H6DTX/AyHAD8kr8G1AyzYhn5/acNczWNv8RSohVhcUDD5MFSmSr+MiYay0qWCMshjj8/BHb3HbgCwA5vk3/Knn3+/5vf2ey+8qm4AuCDoRGt838J4o/o2BKqGYBmBuBNtkZzYnMiu4Sr8keC81F5IuA23JTXyoytko0ZMgGEHM35545J3MAZ9/PNbSjundrRFEFIqEslSxYJsrjZEtYTqPUzdgyHl9piVyJXKV5FnRVDqpEdEoZI7r9qCBFtX3z86Z8HPWtr56NH3nvyxuLvD/myZol+UEGRoIqAb8Bbtv7LxJapczDxX0b/8erPKhl8EEvdY5Owz/nnViubFeISpV7Hg+ZcQ6b841S1iTfNP1u3IhAlYUA6iuvPt30TrgD8Y54lxYSRD4Hx9093+qXzDIWVvMrJnsAWTquaDsX4JQAWUcFvkgTT+J5iIqAc2fKX8wX/45XuA7+Eh4BNJQEuLqSjGH/tsnV86v9M59/przre3fU+vQJQcktTSjPVbm0jcw75/9v//mr3FTgAkGkRY1tSmpCSjRkyARRhkOaV/8Ubj84ZiEIpDcgQ5OSsQKaNwdkWYDvUUB/QCZz6e/C/gZ1/PwDgYNpuewk27eUCoeohpzQqsuBl2eCRqKkiDVZHFVfPZK9W2hUyp/4fdPzdP88c7Tb+63i15wUcNEhEGReU/Y6/+1cr22yPePy36bmyFtx/3i8s60fbMJDnMf/oZrf5l/1funSxWz13bso/jouP1R7W32n+1ae7PIS9esHzb6/+X/SNuAKAAwAOffz+2oxKmUGmTzTMYzzea+s+/ckugx28h6pqRG6RvYmNPEtAJXJgh3mkBwC8BYg+SFe2iA1tTC/ydkjGadkW4Pi9IR0lcEFAnPwfmfifwS1Ad+IKgI/zWP5t8gQq88HzL5I4ZxhzgzKoILeb/P93/8dm9+Xn7ABAGpHyjf5QliH/2JTc0zT/eMyPhc4CI21mACpp9kIt9AyBzNLSFW+pKlvLj/u/eBHvpF9ZKUo7QDZ2KuXtZxOkKFe2laDzY+wLwSB5+w9uAWIEx3rU0hVvqcV04Yz3v0gDMoWiV3GdHUSVG5MOc2J4p/HnGHAstiu853pNXu15ScRm6T8Z7PXT29T2dPLPdG2j4tHa2/jn+A9dlXOr1bQiwsImSFGubCtB54/PvyKxPVSZJYKyem618ytRStFticzyzz9psTW4tDv3Jo9n7t+YdJaf+r/T+nfY4/83n39D92O334husKfYYiM/99Yx77/cIiQ/cqDY/KFIziKBxQgYXpuMPhVADfUh6w+doXzryx7o3v+LVwXmptic8s/jz6AzLtzk+JPkAStxE2psWrriLTXE3ZwYPsz+5TsAOABgT7fLP09WSVlsZpX/v/v7m90Tz96f4qkxXrb4S3vG0yHyq2RIQK1WwhOYu92LhtnqiYePYf97OQAoaxHP2nBRGSlFsC/AWWeZwaubbqN+/WfqRQLVmBF69Irb9wvKiMoAJ0kmsPLQo1dcRZrtiAqklLPdWJT4mJURYyNkack4r+UkPIHaHSP06BVXkWY7ogKplpPwBFYeevSK23jeidcaS3gCKys9esW9Jv/8cFu+JcyNlWk1+/nnPrarx/znq3cjYRGz47yWk/AEatuM0KNX3MFujKhAtuUkPIGVhx694k7+ByIwEjJItpyEJ7CKcI9ecQe8970UodZYwhNYeWjoL3zeDd2Pv+4R2hOfKF6bI1EZ/P0zYyGfjCdQ2SDg1cBb/I4ACV4Av/BvPdi9/4MjHwKDXDLlWla3nIQnUIWN0KNX3Mb+TrzWWMITWFnp0Svu5H8gAiMhg2TLSThAPgNwlzwDQEkQRvKPLNH0PPba2qI8EHv7f8Lx44e6PWD9n7+32f3VM/4dAJO1qu3mCFnExnktJ+EJVF9G6NEjirXAgJwGyVo+xG87VTmGthxNulDPwN78X8JZ5zM4+0ytwcJB9DIoZKOMKu/Qu4rUsugRGjQgJzku4My2vwGo0g3E+jXj/rvVcDMKuORs4+9W6XboKsAlvtoTsbl0+TIkNNazHP/sf7TrwnDJ+fV/8j+QAwuafxzdwbJL/6sruApw+RJMWJ7UVWXaM4nEDFdCPcQlp/yb5n+6bcjTIvLFCHUVXAJZJcOVUA9xyeH8+9ZvONH9+Ot5lrQ49h10nvUXsm5cQjxQ2s+qugdh5HkHgtiFQT3xpv1XeQoCgo8X/u0r3fv+Ga8AmL9SiUnfZD8Zdv5w7ZLD/S86JldXhQ3ILZGY4Uqoh7jk5H/R818fAj6Fwdo+/3iHi+Sp5d+s8v/3/6/N7otP40vAS77/02RmzmCwGLyBSa1TOcvWsBwsmZ5PAZVwDLWAI7NdhMf9b25i+Ummau/E6JwpNyLmDIqGVA0Kq0cyRavKDoRLaz3v/h90/Fv/PAjybwNwx38Dt0V53vgwWWRKRK9h/Fv/dfQx5rA9+a8jXmMI0Azjn8df/egE8WnmdYxTRUhIAl22JhnmRK9dOGplONvrhi23APFWIFkCgunA+Poz5R8jOl6m+Xc41p9vwQHAW1+P7wDIQ7sYz2qiaP7Xj/VwVx7v/eHiKusHdFg3Rfcb9PcXjwrHwUIo0R8ZsPOi/+mB7o4PlFuAiqlp/i3r/tdhWP9uxRUAPgOwU/7pjfiWxDPM/z/4w63uC5/U3gKUJo2AaR6VxDdoMfmPZvCYhz1H8fYpZigaAr5JGKcI5KeTKyZtsQwqKku3yWkCyVO0718+0yyG3Um216xjwmIjsmzBA3LA69pkhanIljxIePni5eHouDsKb1u0lyKSQOKK9vsf5iBwEPEf8s+dQP5FYeNZrpP+a2fT9jrq/6Z8+bf0vT+FWkrBA3LA62KuB6nIuGCf01IKzrd4RZLqhAt/ih6O+ReNduA6yr/BX6ep/5oJTPWR8i3fcLJ7y+twBcB3AfLeEvTkQA6/Qu3vv84eFTi2CS71UxF+FX/VEBEBC/4iXAG44xfwFiAWnXAKB9r3nwWW5fcv2uRA1X8nDtWp0wmkpKJT/9v8iygiQGPjf/pJeguQ7n+UfNPdxoL7x+2EPsP8/6M/2eqe8FX4EjBdbVvSoCeQKosYf/cRDW3aMNx0CPmaIc0syLB8Q81niISVnCaw0SqonIEAWoaRPMe8LvIZCq4AgSURp7FmsRb5vULOJocdIX/B/a9dTv6n+CMpPV2ZsjuUa51/Of/K2X+fGF4PNyK4AgSWhJ3GmmV8/rmkyjnmtVLbbXAFwEE8vkchtwERRzFvioxtqylXIWMaFX2W8Z/Wnyn++13/vvm5J7q3/RO8KcWTHnNAzjoHgWlrzOb3j1S5DUjO5kNRLrm6Ie60JhLNWOE0k0NuAvjd/Pa/c6V7zwfwFiDiJOHPQMEHNxAqP7kVMijeEqf5Z2PjgUlBT6Bz+3UV8grpyw5QFhF/eQj4vZbbqQ1t/knGeafBnFX+/8l/2Ooe/9dxADBQFtH/AbdByv6l60qwKCgFwgyVRyZ0EzDAgyG+2ouF64LP5Mpk2ARVGLisiJpHYqIglcEhS4ul+AGAOsiyRYYQ5XQnneeIdFESCTTR1zPtpve11s/YkET5eJhJLqj/6s37nVo5+V9I/k3xZwQ0/3QuDs2O+c+/Wcx/Pq9y7rbVPa0/0/iX8ddY2HZafw7V+vMCXAF4Ox8Cxvv6t/hef/4YyrT23xavy0wr402ePwkAPflB1bPVlCHK1wLzN5JncDclN8ghA/6IA3wxbgHiAcBefv9pxdcfhW0rPrgWqX/5bQfMlvruRdEDVRh73/+g/WJHMSWhTwvY/1GP0vjkHODU/4j/rbgCcOd7+Irb7fOvY47OIf//+D/hAOAr9ABgmfNvIIv6qR1CAeQUBDEOxxsBS08dAu6CYyIGrcBGiirLkRi4AeUAQFVoU1gAuKhwDrKO4gJBqIGKHUgAtXDC4uuJC+6/N0HDge3k35JJI+Lx8XrW+Vfs0u31G39/9afPFJ93XnucZNJzaEaK6ws7kABGtArZJd2v1yHhAkGogRV8GZivq/XSZlHgAaikothO82+af8yx8kvlqST1sq4/z3/Oye4n3vDIMj2lD/rbqbdVMcNTr3L+Q1Z+a9Fn+cYGcL2dAm/7wd42XvhTfuuBh4yajEi95OUPdj/7PlwBSCW7ITnwAFRYUWyn+TfNv2b++WtAJX+2yT/yqcpc8oTVvA7qcP6BvV3+f/xPt7rH/TU/AOAh8Oz2f9lUllnkv9pQe9YjiaSZZwXcDp+LMCDSWZK4z8OQC0BF222PLRFNBqkw4L89AGjt1jjt0ZMNNFB2RylCrjYqXXRCTzoKrbR3Ie8SxxlEKbRJ20Bom3UBiPRLyDlrl/0XwwcY/8m/DTbHTQYa9XU4/nL7z/k1z96R2meEzQ2gs5p/Iw4b8s7+45Wg0/zD4DBeLFydWNmAIdHLejXl/0H+/sViw/FJw7XX358XPBtXAHAA4EPNPRq5ai5GeUUABUZlxx5n++VARn7/9GpBO130A3GUsmYJMDT/mEsqxwOAd/sBQGvQ/C/b/ses4h9xYj9Zpv7PbP25FR8Cu+vncQuQrGeMtOakLmcl/xJb4j+r/P9Pf7bVfe6Xb/8MwDKMf9WGCpGQSarHGmMkqapc9Sk/ZMB51AJfFykDSPMFTNkZJTdrC86NHwDIWgRTssSUdSbkCrAts4ipJcVDJQChZ2wFrxG8PPAawWQQYArKjPpP+wcZ/8n/FH/m39WrWEgPcP7Ncv7rpeJqOWKa59kruG+m+cd1OKIBAEha6pxTEaf1bya/f4ztLPLv+V9/snvHG3EAYKWcpwTBfuicpjtOQZahljcEyfzHzjyTwe4iEnOeG2yo3yrk488zALjtguWlf/fB7mfu0CsAlHQ1YWIzRCNvFv0XH8nhkK8h2uR/+eNfngHgCNqtagAlj1P+5YTzXI+8oDwE5HABeUI1pgst8m+7/P+zT2x1n/OlvAJASUsygLPY/4XBmeW/ti61kcZzmwV3gsm14sM6qsltlh+EM7FVEDMmYJV+fOqsWPYBEbFtNipXpAUqaGhmUoZDIAB7gNBvHWj7EHKz7/+gq0GiNiKzBuFMpEqLO8HoPfagjvpuWVk34ABMp8Un/wgMstHi0gtPG2QLo1dZfhDOxEFbJpCqtfU1vPp1PRZE9zVW61wqM0qggoZaJmU4BAJQ7vYyIWztLNICFRQPA6cvA7fxaALfY9PNIFH9Z9YgnImDtkygrtS4b1sbTkedWYNwJlKvxZ1g9B57UIdELVl+EM5EqrS4E4zeYw/qqO+WlXUDDsB0WvyI+n/+1+EA4EfLAQAniVyds/779OC5er0lSIdG5ZQr+/2Qp55MMlcq4Zfo6S6YnnmlCP94DPDS777SvesOvAWIBC9uy/EjGv/oZgDW4Raf+o/AIEEsLr3wMGwNsboFCOyx/JO8pT4LXMwq/z/xn7e6x36J3wJU0js3M+AAtBltX6JzJteKi9YgUe1lVgsb7mStHbPmoEoUAfXynRwbAY8HeHJLTE66nmFaEx0KC6NXO5USWhIF4MWPXOxWVlfA4qpBXlvG6JRznteqW2PZnh0Bhl4xwffd8733i+4/s1QjYmdgY/Vluy1WUg3AlABZz94Z33WsdiqtaUkUASf/GpHrN/5b8urPsVkzRmc2Oc9rzbAaU5pzym4Do44SwgEoPbZj9Kxcy1zEgfw5vBGIxlO2m8VEEXDKf43I9Zv/R6H/z/u6G7qf+lF8BwAZ779y/fwn5zgksAsle0ecIsh/BACP9qKGLun8QWFQZANZEdAokap0zjmfzYSPdy/77ge7d76HVwB8Pk7zL0cNgUFJFAGn9UcjMr7+yGtA34sPgUle5RjW+ed5N+v8/8+f7LpHfxG/BGzzIu2jLdP+V8osBimVcU4SGgL7ikHRVcOUPDBDNkALpT5frwCsxJKhEmUIBff1xBFbvGSdou0olaDnA7gNPeQLoDsNq4UgUL/hQZlR/xuHDRregh6Uyb8Oq0Rm//kXgR0EItrBDcoRib+/+rOeIYuff7P2v4qTCpcuXdZxi0GLYdwl0FcMyhEZ/+0DEb0NsaBM/V+q9ed5uALgBwA6WJhR9jup9ypw5PSnmDXnWy7D889GOzHl8IJ28WQwzxuI1WN6TvY7vufB7qd+rn4IWHyYmexvd3BfMShT/qVBxABFYAYiux1vQLyQ+opBWWD8+SVgeQYADdsu/zQgbCELYjKj/P/kJ7e6z/qi5grAAvuv/dHtdvEPXlYosLGlynBj2DJp2JhSnef19tnnLTBpqQp88R5cAVhZqcfOVVCntUeojmudt0mp0Sq7MwXK0oQv4wHglXOrgLRt1sJGrOYVmQI1Cgk1GakyrCLFgkIFTyaathWZAmXpGjYZqTI8+WcESgQVKniOYs0rMgXK0jVsMlJlWKWKBYUKnq3UvCJToCxdwyYjVYHXceuPfPnZJ1at1MykMh/zzOur1pQy6wrUuCmGG0ZtqYjt5J87/7wVqJTSZ/lhYM+MRJkCKlTwYsGlnOe107NkHzZpqTKskq2tgmdLSnWe15P/EokcrRo2GakyfDTi/w3POtG9801+C1A9a3TW8aZ+vNUHme7nnFPSp2MEjY1FqJr/1KMFtcRz/mrZz8P+rb93pfvJn7UPgdXBB5ZjnuGjEX9dmXqdToTc5wxP/WcELCIBFbzr/BagnfJPI8ntbPP/3nu3ur/4hPIMgLfN69z60oYWMmmpMqxyra2CZztKdZ7X7r/gOZyg+hU9hoUlCSqmTzMIr7+ppdM9J33RoBQdOVCqf2sr/+trG93a+nnThKCMHRsNEs1EIQ+EihbMAPyqQLWrkWwpmLaJV501DIt0SCEr3iHHB+ui4+KFslzxl9Yc4PhP/pEZBxT/szjwvoQD8DKnkOcyH9AmqXNyk8e2Zlofvpb5J05n6J+3AfHB/mVe/6b8P7j81+w9Gv6f+8yT3U+/Ga8BxfyRW3l4S4/8w6wCUWl+KKCTW87by9l8zm1Gw2o/uylznRtKosj8J85dflMh3Uo5ACjc6fcPcUJYS0RqeJr/iMwOv3+nbznW3XUH3wJEWY1kjqfnH+t55P9991/t/sLn8xYgFE9oxUa2pXUuXigy4jrdRBucHfpfzTQ3OOC5+KhsOtnrAU2QhMuNl5S0g5pGHOOVPrmE1+5A63U8gHgeZyEpL42o2Gk3PvgBaFyGFSsrEm26j5JsgClnMEBavS09PAjcW+x1qBMw4hhvt/13m2KHGy+Tfw9x1B4aqaf4S/5fS/7p7T/nI/8l0FWQFzv/Zu1fXwl6Dj3y+c56uEzzD1Ga1p+SHIds/X3OM0527/oxvwIQP0/oDw4DcK/O1jGet/f89/nA7tpBAUjy/TCSWKT/8mSAnPHnjpUuxGRYogio+lT52997pXvHu3EFAOzr8ffvMz/jWPd5n3u8+7zHHeue8Pjj3Rc/4Xj3mZ9xvDt101Z38ynUuI39JuzH3oz6BD+uIGU4/n+KV0/+8Z9sdn/4J1vdxz++1f2b39nsfoKx9UJ1GSOpnKr1EYv/GbwG9E7/ErDu4Ws/m/zLQbDwgHTt+X/lga77zMffm81Lji9b/GPYpfMWgYAZCqzwTDcpIR2oc3SeKzm2Zm6QJ9GQGa9S4dMTlASUIf9nV852F/39+2ya7dBbK8WfKEvr1JCIgei18vNWOZkfcAAuXwj8kii/B6C9cL7WTvO6x91n/+mdJdvNsHILf4gn3Mk/EkKjI1sLVMCM8RLm/0GOP7/uWc0imQqyqdYCzUGlE3bIa+XnbbHB+LOEbABKTxwDiy4lXD/LuQmv3VKpi40T2FnxHdtp/Jdv/edIsdh07cFCSPws57xp/TvWPeeZJ7p3vfkmxJERxa888x4g387D/OffcQFwNt/mhPxk2A6VxJWqIPLKgZ3zl3FhnDVzyPG3sOQZCSr0/s73PtS9/WceEhmZc7AndrlBOarz70u/+ET30r95snvxN98ocZpX/D/2W1vdN73kge6P/yMHKheNvy50dnVGAn804s9bgO6+gx+52z7/2P955P+Vh3AA8Lh74zesjb5EeQn2v/QhfmmdjX7OkT3BGmg9WHBbXtNQhothnhiQMwUj/CJZIN7/zweBq8I+0IWXQdyJVtdVXp3USjpydM0YUfeDmkGkc+2hS+aawsollMt++p/1Czz5n+IvPyNICc81r5klGU5ZA/Ju5198+Ium2uLp7vRB3IlW19W+55+4dNMz8F+9EtTt7VhP808zzAci1wzeteff9kMwxX+v8X/20092737rI/V95hwf+b1LUd7l759ocEeKJvwHMnSZByjcu7cHf2Oig/U/v+JK97af5llqbb3I7mtzeMb/9C3Hu3/6zlPdKVx84UUWeZ/8nON/6jG8H93GIsX3qO5/nP6q43gIOL0FaCT/5hX/Tz201f1Xj8sxH87vA49/mxWDzXQiajloscnKKRdXB1JScTJXHNevZIaRQVEnJv/6GkK14T81sbAMmBaZImgSiRALVq3sEl7XXMXW+TrQ9Y3Emn//2dfGy+Q/ItBExvMn+OPAoKgTUS9L/h/E+PsH+NrolblRoEGZHjsRrmH+FSsFuhb/8WVgNzKNfyyt13P+Y8E9UvP/659+onv3W3B/CYvNvzgpqVTdnUe/5e097D9FY6u/8twH4IqrSUJFvjY07RlQH1OTtilWJLe6l//9h7q3ygEA9TJP8YpIXdho/SdJA5d3/X/Kyonug++6CX1gsYAICBh7g/OK//s++HD3wpc9KF6325SxSVJOPETxP4ODrDv5DAAL2j2Wf5pxkJlx/m/iI5mP+hy7BcjjJ43ZfjMo6kTUs85/N61xkKw0UuFIiwWtaEXOL9M10y7ZHOg01F2vOCBU7NosKezkn7cAraycMXkRkU2aUoXYQhDaQiR10WqZwFsjLR4qhcGrAIvsf46Tx3HyX/3sRIhiuDJwjfkXxpOdoxz/jfV1PHezliMIuOS/M/oU56QaQrOef259Vv7l2R6/zRDGZelJ68/1Nv5T/5mzSAQmmBRDUB3W9ffrv/YGHADwOwAo0TcA3Blqbv+XM5WU4X0+rLnhUQHuS2f/NTD6xh9hm0iJFwlWbP4fh5OXv+LB7i3v1GcAVNZsuUlTEbSiFbnDEv/P+ovHul/50Knus/4b/E5h/4P9j8Ok6BuAOcSfzwf8t1+mr6WUkMKNx83xoxR/eQvQz/MhYEugXKX8m1f8OYQ3/2UcAAz5Z1uWJP4p7ZqdJ20j2h8iGkJDa2rBBCporR10AwJnPPbm/xJuATp7dkUCyYYxzrQQhEI0po6E7PabWCMtcnKliLosdlSoyMA2GVjB6wMv42NC0qWqX+petINuQOBs9d76n1RhumACFTRxspgJVHKT/1gMbKg1PClIpPdDV4gOJZUEhm4Aibns4+/v/mcIoqT8VzARKOSo1NyQxB0GAOi7s4WhTNnJYlik7GH+qa3GoqNSc7N7/7wKcA5zelnXv5Q66FXBBCpo4mQxE6jkpvl/vc3/Z+EWoJ+zA4Bj3BnFfMu/f8cET0cCPp88lRyHkhzQQ17uKfa8Aj9uceCkB50fDZMDBuD09V04APjxn3oYrKOff6/87hu6V3znI6r+M8Ysi4j/Z3zefd0VuQhgA+TjJP6PVvzlOwB4CHin/Jtn/E895l6mvPzOcYwLsjzxLy3hBNVclLZWG++F11VnimRmK7VQFGpx1wV9j/4HnwNwc7ut2V9vEutUnKWkhCUwiQt4HNlGdilu3N20uEuCvsf+R7vdBOpi3YmFolCLJ7nJ/6HK/4HBHiC1493iux9/ffgX8tvkv1vbde22vE6KNSlhCUzi+wPdltfJCkmcz1I8bF6TmGGVGiAVIYVa3BSpOc2/af4x6YaKp43XlMmw6fRJhaJQjT/zaTgAeDtuROeeuDz5W5xXU0JyEzJUjysARdahYt2bV3brlVcMCA4n3/X9V7of+0l8COw6yP934oHr5z6TB1SMC8LuQV5Q/D/nifd3f/p/cwB9fARU7IjFX78DcApx1sP6sfzTgQB3Dvl/U3ruovjXSa74wcc/2uFAW6cmIpTKdRnllUnusqxrmcwxuBFwtK1dU+llG28CkknkMwnSAQYQpEJJYu6gqrOkMQZIwhG6MvO9w96PymxGGgFH29pVlJ63heNJ7hTWbifTKrgRcLStXUfpeVs4k//23OHRiv/OD/+myRFgAAubf5KR4TaAffvPDwPnzPc5ojPgYNY/9m7yzwhM8d/v+vvMrz7ZvYcHABLF8pvI1UyjKizlI+H4liBK6dbmF8/o4+FepQpbFj9tEyWhAVE5EwtYKbQFGPTvxgHAm9/xKbOpfLMs81YMmJ57Vv+Fs9/+Zwdus62Ll9Jzl1He7vPvX/3yKXnNJ/W8/7V97/984v8lZ+7vfu/39QAgAm4N8D61dd0+5bqM8nbff7cldW0kmuNkr11H8bwtnKHx12cA+BDw9vlXrHB8Zxt/PQBwD03ddNDRtnat3HOXUd61xT9sFQBQXJaiC4aXFbYCEGlLaFeMXtOGxUQnWLJSqCPStvMvlyxFQgRHNrSllsoQZ1Esd7KIKS1Lu5TTvCbdYa9ddmNjo+MOE8u8+y9OzNPQ4Ez+m6UhkqxEzqFg7SH/XFfzi5lQl6MS/6u419fj086kNv/rCBDLEhl2ydnOP7da6uwzwy4x7p+39K3iw2DUWsb1z3tw1PNviv988u8ZuALw3rc/Qn7/+Ip5xpk7+eW2CGaYvt7zGH7/ZUeeJBSfSVr76qA83+r6Vy4ZqA1Sqa+a33P+we5NP8FbgNRmuWdDs5pbSh72+XfiRNd98g9u7o7zmYnUf4kE9j8WEf/Tz7iv+9i/lmgyolU5avG/Fa8B/ed3nELubJ9/84z/zbgCoHluoY4gV6EXJFgL3v+QW/Y4wwbTgq2yovv/2kwhY2PHCWXyiqzKVKCQCr1AmNeG7Mf/PfgiKW8F2kuhH7qUPgMQWAwYR6qQUkFKBSkA0RraxNeBadzFechvUS7QtfX/oOM/+dfRz+OpGcVBR3GG1I4UsogY2TRELTbkWTmo+ceP7q2dXy95HAntLdtb7dOBZuQsWKgbR6qQAjfTKZx5obxrILQB7Mb/6jl8+fjSZdv/0MGSYcFmyn8Nu0bFhyBhDkrtyOHK/+gV88UmNHsiPwlMJgUlK3uYd3lJ+/83cAXg59/BW4D4n51BQ6UyWDqqMN/gKf0HILuwFCULf7HPIvLc2E4XQTPVbQLhQQRI8lQBAM6/71u/0v3o2z4ldLDqQn0rB7X+zcr/F37+ie7XP6Jv/8n9544/O7+I+H/18+7vfuVXr1oWa8+uZf9rmde/6iFgxngk/+YZ/1OPtYeAZYxtoNGUAunc0fHX8ai2FLQyt/yXWZmmn/pszpyiEdLoKltyN7QjnhDS5lgVvAuphqp2iLTGjojtzr/snODNJLrG6FbUHZSaU0uPuoVXCRRKC7mJoIOQdxjYVwkHBFS2aMjHwW47BwZpA2VG/VfPar8X7h4htWPyP5P8ux7iHw//IpV3m/82ITQ88qO/2Pk3S/9+W5+sUjLhGQjOpWbdAlpN92n+NQGZ1p+IwJKsv09/6snujnfwVYnld4pZzdzeRDJLugsOCkQ25ey15r9eNVc9bo9znnOBYFECFAAMzX/Q9A00Xfe96w91P/I2fDXJivvXHWKn2mw7xPPva86d6N7/Tn8tZem/9Sw66v2fR/zPff0D3a/++lVxyfHkMI35P+zxP/2kk91d7+GHFgb2/1L+jfV/FvE/9ej/EuNaARjkZYk/803zILfQqFINS4j0dr9xw4GFs23sRRN26Z9n2nkVoF/YJXfE2kqP7AQGoTlMyHv4rp/qnnzi0dqlSx/F7QMrQfVWzLL/Bx3/yT9Gmik0WDz/lHlYx58L4VDZKf8Pev7N0n9+FiDHYsr/o5//263Xh338n/7UE7gCoK9KrF7Ly8UKO+/5jT71aqa/l/KQPJaH/grB31K+4jLdfsGJQ1me/gZZYgfC92081L3xrfwQWCrmTKrWcRYDb2R5glStSIxlu/FUCWxNVaraTIgQ2Mv4v/B5J7u3/DC+TNv0X5wxLtwpFcfmfw7xP/30+7tf/9/lUk7Vjx4yh/7TJMui4n/mlpP4DgBfcaueZTuQf/OM/02PKQcAi+6/9rvMzDH/pIsUk48/6lUxrlRlIyGlZDsBkjGxWvjBqcxnZL/+N3mWAUXakw02hAYtOgOMTOJzBlwIWTJdCGnT44Fw+aOXcIvSKqTm1/+8AIYXAxYR/8l/SYKjFn9+4O7895/fd/7b2isB6s0PUIU2wMika5l/s/L/qgsXujXEwn+9fJzL/NIccLpP98IPjgoObPe7/k3zrwQzomzAFH+kLCeTJ2QJlUBf85ST3ft5CxDiVfIvHdqDzrd/yWe9CGPvjffxy9lL6ghfzdON39oiAHfyQXD/ajXPbPCg8/c3rnRvwAFA8S9N0w3sU0iqslEcrDK+lbgpZL4ZUrHB7bz9/92Xnexe+w9uZKvDv0TDQlL8zy/+T3rafd1v/ls67JfiP/EsbCX0SjDyUsf/9Fee6O5+H265ku7qvi23i4w/vwPg/jXbU2wb8KDi72MZk4bt6jWmSAmPnRlKo56edVImKmEuIK6bbIpYwpOUWmh42f9FfA+gfg5ABzm2POSkfi4cFTaqV1SrkDOeYZMYIOlAe6rhSsDFy92521Y1XnPof2nrwLgZc57xn/yXCPTy9pDHX7+27fNkINkHSG3+y06zm/BQLXD+zcq/nwTgGOf1x7vE+qiNf/RNuyzo1P+jM/5few4HAD+Fs9KavEhrndAlj22CS5cLL/JfFCXxZdqLHh8WkF952/I3Lx0IyO9/mv+veNWV7vU/nj8ENjCPjkD+vfqVN3bf+TJ8A4D7P6n/0bUmxrqHNdv4f8VtD3S/8++vpvGWKa2baMjRiD8fAr77Dj7fsn3+RbfnEP+b8R0AlmXe/4q5roGwcLBi8R1WIRuPdAdRl3uZCtn5KubCVEQJHaNXVUIouwv/q2fPdvfEFzttwlA3F1mosBnc6YcbTEj/gQdmmmwLipiUTctRlm2TsIJ5C3V5MPjy5Zn3/6DjP/mvM0ayJ6UxL+wWCYBANWaVkEklGvNnF/k/r/jLvf/n12aW/2LoAOfftfrn24D4PIAUH9IYy5rsQ65iLqwyh2X8pbUHmH+Tf0RgzvHX+9JxAIDfP/2GDXOVp+4ZfWzoH7wtviN9E7f0cLEhx1KaGG/00TWOGqToVuSwER53eMmjIv8DdPorXq0HAGrSDLNimXP/tU30I83SNjkyY/9vuf3G7lufjysATf+JLyr+T1x5oPtdvAY04u99XUD/GU4puf9z9M8Pgd19Bx+6lgDD9XD+zTP+PADQuQHfXhbU/xJaOCTipfEfKAOhcgG4iiWtHLsKTSVclccQVE1O3Jib8rpYrO1QN2QCKNIg5c9Wq4QQ4fgYzrJf7M6snA2b0RQKDhRvabBJkMXNlrCewICRhlSpVEgRzK8IJTX6cY39VzvutFiOmKpAaYhBk3/mrQUnYhRAiRdI2+Wfahyt+MuHv9ixXRbvvahUSN9Aj03CAuaft2Q//i/jTUAr9kyPjje28kt68Ouftsd7xV4qxauoPQBWRz+m9SdCloASLRnq5f392+/4Pw0Ppv7Td+Jd6dxBlw8hsY+60y+dp2ErOcslEryZ3XQoxi8BsIgKfpO5sjq/zT+V1FuLXvHqh7rX/RgeAjaVBIg92YB32Nff9//kI7uvue2kdCf3P3ZQFxD/L3ry/d0f/CGv0GjRkFvgj1j8T3/V8e6u9+kVgJJb2u9Fxf8UbgGSaRGx9cgvT/xL03h0zoWgUOrWOgY5OSvg+HZ1tgVYjzyhQDoruNPBIALiPv2vYOf/Iq8C0JjZBlQK/cCZLmIku6CevahVnOdyrNm2qiJRipJHmEnI/ctBAO8nRplV/8XY0IYdY9NYAIc/63DgwmcfIZx1RLHZLOH4Ny0saO4L4Ogv6SiBCwLi1H8Z//W19W4Nb9eqkmckxZU8wmRcWcD2/A+CJVqelTXPFIXIsQFQKhXFdpH+V8+tdpdwFW/Z1r8IRgswzxkgFsCR76STxHFREAiDCyzrOC/X0/w/MuP/tJXjeDMNvpbKMffx94lWMoNMn2iYx3i8F3nieSMpw0RKMkyXnEZkb2IjzxKQSW3Lo1e85lPd697MAwD6IF3ZIja0MT163LFkW4Aj30lHCVwQEOfo/8O4HWUFD6Zqu0v/N3mVg+3x/osECbmHbBtlUEFuv/F/wl+/v/uj/0Df7PBi+0+fEe8F+D+DW4DuxBUA7+dY/s0z/jf5a0ClEYvtv3YcW0+jkfhzKFyk0eHuMia6JaaMGTacI1UxCz1DJtTSFW+pxWLh7M2/3FdXzFQQm0y7Urz9FYE91QEqgiaPqtIv5F1DlT4Qvld848J6uaUgWdpv/4teMgawpSveUotO4ewt/kWv2CLU0hVvqUWncCb/BzX/1vAhOz0A0HGp8rcM1a6hSp8ICwdainJlWwk6f/bzTyzvw//ly5fsof7SNk/wkreJB7ClK95Si07hTPl/UPmvKXr04//VKye6D7wLZ0mRpT7/5Ode0rH0X25RoQSY+fe/5Krluc9fry3/9akAzXHdCYQmAZTvf+2V7vY3lbcAFZvFP52Szk32T5JPsKIn1Ni0dMVbaoi7OTE8y/zjzih3Stv+++omIcNmnvF/3Jff1338T/Wkp/ot/XaoROZwx1++A4CYsz/b5d88438KtwCVeGqEFW+pHv1IZxAWE39pyXhzcoNKI3NXCjVZSWAl26NX3GIqQSMqkKg5vALAKwFtkYklxKGz/Um6CCaigVx1bGby6iY977YUs33/fktQ3ZPa8jiv5SQ8gWrNCD16xa0dGzaiAm7LSXgCKw89esU1j3U1ogKhlpPwBFYeevSKWzs2bEQF3JaT8ARWHnr0imse62pEBUItJ+EJrDz06BU3HPcOpueU/+GQQJkoFVmQJfJ/TL4cw1a1wUx4ArUzRujRK64izXZEBVItJ+EJrDz06BW38bwTrzWW8ARWVnr0ijv5H4jASMgg2XISnsAqwg39qTgA+IV36U6S7Fg7n7UVIQ3OPxOOeevKUEygskHA18S3+B0BErwAPv+DD3W3/+hDMv2dnOtkKpMBt5yEJ1CVjNCjV9zG/k681ljCE+hW7nzvI7rTTz7Z6z+7IeIeR6+tNcoDsbf/YU5C3nDqJVDZICD+j3ni/d3/8wlS6pLEawawcV7LSXgC1aARevSK2/NNwojKACdJAuQzAHfJMwC0AcJI/pElmh5Hr601ygNxH/HnAYAWsTLaGeOabF2N81pOwhO4k38THayqlmSbGa6EeohL2tGM853suA5BBKjHhlymZdhN8E1AfCOQFA6iFwr3io0yqtEdeln0qDhoYNv9lWo1G1Sv/V/Y2Oj40KV3cqh/mZbhXtcqgkvOP/6V20Am/8gwROPwxD9u/1lg/jNLemVJ/fObAJfxMDBHdecy5f9hy38OrI9aHt9My3CW6cMuuZzz/ylnjne/8G7cAuQ9RnN9B11OArD5wqtjQrKfVfUeSt+bSSF2YVBv82PtdgzCHD//Dz/V/eMf4RWAEvjKphh2PUWG+CbWVC558PG/C7cA8ay0tqj0n3dYLCr+f+kL7+s++f+VOJdgWZzqqrABeSRJzHAl1ENccvHx14eA8XzLDvk3z/ifeux9iIiOtVxN8vh4WBz3iBq9x4ZcpmU4TAwCLjke/4aTrYDF4LH9qWyjEFJysGR63gRlOoZawKFkdDN7919eCapB160PgdtF7QwhJSSBLl2TDHOi1y4ctTKc7XXDNlS5vBrALwhfwm0GWvbef1PUg1WaRfGI19h84q8+4BPmPW8m/5puhyX+7dn/OncNc6LXPvBRK8PZXjdsQxM3gS5bkwxzotcuHLUynO11wzY0cRPosjVpCzv/H42HgV2mraf8n+b/YVj/bjt9vPvgz9qDkkziKtn194ef2eEaroW78njvDzvnC3thupDtN+htRXhUOA4WQoln3ciAnfUfutL90BvKLUBhBA4O2/6Ht31o/ustQHwIGLFL/ZcjLuIsc47/n3/8fd39D5gTGb80jtqCtD3c8b8VVwAY853yb57x798CJEFHjFEvSfzZEmakDry3z9JAUSQC+CaREsT6geQd5FKZZVBRWbpNThNI3l79+1UAunT36qOlFDwgB7xWxcGtiowL9jktpeABGbCxjqsB/pAwvOezJ73GoJP57QgV3wNAu9sWjbKIJJC4oodn/KtuTv3XcOxh/Jl3a9+/1k6eKqxENFV122MGP3Na2YIH5IDXWb2BVWRcsM9pKQUPyAGvG58ZXbGrAJwg0/xbnvU/j1H8AHA8ty1p0UsgVRQ9uuvfbWdOdP/sZ/gQMILEOOW9JeCyI4sotCNMUdIocGwTEPVTET6DxyIsoRRc5FVgHVcAfuiNV5R3hOPvzwDo4lni4R9XW0T8/+vPvbd7qHeslYKeQA6Iov3x18FSgWVd/04/SW8B2in/5hl/uQVI8j8iNgCkoCeQgouIv/uwiepOB9qZSdDyNUM0CpKlRuF8hCxCqeMJHNVnZIrLCsFtQPfgWYDVUd2YegIEluSdxprFWsSjdAOlBsclRSywmqq8sg2uAIEVAbOzgZ2xdRwMDBY2BarUlkYVZFC8Jc4z/q2vIXzyj7HTwdPweF4BS+BQ6EK+DHmVDOM6iTMWf3n3/9p5SOZWGLzg/Pfs5gPz8mzPAfmPWCT/vEp3DgcB0/xjUs0u/8yaxZXYSKlcVsiIQk0ey39KWbbXCi1WuayQVnIQXxb/53AF4Bd/lrdJoJlMZvzJWfcgsPnGTPlPEqlyGxDp8gpLGjBZ1AI5iWaskGQn/yG+1V34R5/qfvANeAsQGShuQbGRLYTmsf7N078fALT9lx57p8GcZ/xvxltp5OIN/C3j788s4y8PAb8XbwFibFNZZPxvimcAUgMALsv8Z6sk9bRBloVKAYuhMhole2WAB0N8RR4L14VqUgfuAGoBcY4bNY/EREEqg/fpf9PbgFo/8MVrFLoosW1sl69n2k3vq3AHN8MSTvW6VuWl0mv1L7cG4Z7j+AhRuPAYBUEyaxnizxb5cBKuhjTGFFRhzH78J//7i79++ZfR65eRDIeg5yHruswi/zl/aOeg/HuPWv/6YbCLztZ6SdY/NmaafwyCDUsVj5Sv1/n6s3r6RPdL734kvtSL+cX3+jNgEpMUIwtim/8q6E8CgCs/qHq2mFEnym+JcP7yasGmzA1yyIA/4gBfhVuAeAAwy99/979M4/+hn7+pO4vbUtr+d4zRguL/6Xgv/dWraWwFPJq/v7fiCsCd70Fu75B/84z/qUfbl4Ax6mU9Xq74e2s4Z6K0xMADUFFFsY3D8UbALOoSgEQDbmtyBYfjkC9yJIVeACqoKLaN/7NnV7DDfNGsoeqvXoXXskM2gEp2CHFJrGuyqHkdsi4QhBqo2IEEIMI8EGAg+JCml7H+O9/rRcff/Xo9+edP4OLy3+Pu9W7ir2f/19JcqfPPbQ3VLul573XIukAQaqBiB7LVbWxcwFUwvC4XD/efXVmplRLmKu7X6xBxgSDUQMUOJIBa2DDOxw20TUa1WX9ahd3EP+vovC6UwANQ3jT/ma6IwhR/nbfll7IkD6Cx/Dt764nuQz/Hr6XKT4vZAIyQ5kPuSLsAoAAllcPahvjLEGAv59gxvO0HNV+WRbsscpuIy9AGafgj/9W3P9S99nW4ApCK85wUeADKURTbQzD+/A4ADwBkRxDNz11ZVPz/3OPu7R6wUGf/HmevW17gASx//P01oGzpdvlH/rzi71cAxuafzw+2IZcmzCVXGoai2F5D/tcmZUZ7s8hCEePhyia1OSU/iXs7wmgAFOyXHnuG/u/BTgOfCUjDqwON9nIS0vdQYXe4u5YlKlpv72LISqYVWwJhcy3+uTN0+aMfjecEljX+7GvJ3ByPAs9z/Cf/e4u/PNgHFcnRJcl/OQDYWOvOnsUHuC5+RDt0wPOPZy+558Mrcvww2DT/bD5zTUVoNH8sLL0JbrJFJcInpBmu/2zHtP4gBhIIiW5vs/pkXAHAAYDEiVzEX67aiRKvCJDGqwPchdnEn/JxyhoM7PRjfDkdpMj462mOGHYBPCO0Kbo7wcM2/tMDgNf4AUBrkIZVAYAc6ll3xBm5apS1kdybNEv8kzlceuw5+uctQPIWIDTMP4oo/r3BbOKc4/8XvuC+7r77JDISkEX2f2gE5un/Vrxx6S5cddEEpSdNlTb/JH+VPfP4n8ofAhsIwDz7v9v8r9pQIdbgIRpZ1VyRqQyXg8KJCFAGwGcrDZV8HFRP2pSOspN/7vzHa0HFCS3tVNgYkwswAFHOmO+LCC0zem62ZSbpJBdgAD3/fEaAzwpE4AeDlYgAFxX/0qnJfyT5ksY/zv7neRJpF0Av/+ad/3znvmePv+Ert2be/nUpyB7tR8SSm88a8eNg0/yzUfLBsvholYgAp/WHOWSBYICYXlZSpJwU+R8El4Ww7LwIbppDBrIF8HP8z+I2iQ+/R7+WSjM88aW72UAs7Z0mevQpcprx8oYgoWGesjF6XEBTpV/8ofb3ALl/ngHjcwMor8EVgNf8sJ6WpqRShSWbIRoZO/3+D1pw/wcQf3kGAPGWOKb+5w57rKXtFminzSL+n/3FeA3o/2tjTIMsKeBDsR6iUW3Z41+eAWAP7FY1H/8FxV8OALaZf4zjQcdfx7cd5Rb3Thi9x2ZHBolk1KwsFnAAKt+3ZQJ1ZcJjOrhdBpfo/YumOp9sVkFFoIKGrUzKcAgEoNztZUJY/dmWVNEbUM6kDBdLDimXW/mOAA8EiAyUHN5BOBOp3+JOMHqPPahTGpLlB+FMHLRlAnVVHAzqFHY2Pwhn4qCt2nErLp4GidqGzBqEM/EA/PvZf7rOOZdh7UneKnd7mSLfSgs+oOwk3mLD+avlmDwIXA7oSW0tmuhI1UoL7s6STiZlOIkYuIWrAJc7fhdASjuGSSGzBuFMpF6LO8HoPfagTmlAlh+EM3HQlgnUVXEwqFPY2fwgnImDtmrHrbh4GiRqGzJrEM7E68g/b0n5MM+SekHCc99I9tkJg87Q8DCcu40sxAnqm39AByy3+3gMXYlyVsjSXTA9808R/vEY4NU4+y9XAEjw4rYcF68QMHqPTblBohrIrEE4EwdtmUBdqXHftjacjpqsD+EKwNlbjgNmLEv/Ge8oYMwz/p/zpfd2n/iE+qbPaHIA1pIWd0mj99iVMbORqiw/CGfioC0TqKvkAWBjo7oFCOyx/Jtn/P1DYLlpg3Amzqj/OTjZfAsb7mStHStGEkVAPzOHCQ08HuARBZM1OUm3DEOmHD2abIye4k6dhX99K9BKMSXTzz2w1sJJWTCnsvbLmkkiwACyguiMWdPpNx//8pwAerG+vmYTwvxI5T4XG/+DHv/JP3J0m/FnrvAgeSyTDyr/9eF5n1aau3GgEo0NwAWtHqOT7TyvVaXGzIxU28//c+fO4UrjZbNLBZtnOeYZpgRwPXtrsq5jtVNpTUuiCHh41t9p/iGzbMw095Zn/FdvPYlbgPAdADTQs5xtTNkGHjncccUulOydkoT8gxAe7UXNgwAi1k/RhqwIZEsO+0EAZ9xxnP2/gj/7EJh5dkkIWEkUAQ9f/t/53lPdGRwAMGpsPaPK/hNfVPz/u792b/cfP+77bHBr8W7rFG0KoSTKIYm/vAYUMdf45j4sLv6nHm0fArOYeVuWaf1PI8sgpTLOSUJDYF8xKLpqmJItGMz/oRJKQ8ztaLWi3gp0D2IPOv7LOkWRKDoB+2hDD4EC1BJlCRWJiglkgf55f/JlnJ2svyeAVh1A/BmLGJHJv68BiApyIgLDKDVlO14jWqN9xaAMxH8dO/9r6cFy+z2CySqBaxeG1RKzy/+NC/YtDDpIxW8DctK8/Mu47LL//CpwXAWQhkW0vZllmAfiL25CMgF9M4m5HdhXDMrkf+nm30GO/7O+9mT3c299BJKJGcKCGWW/U3qvitITV8VsOzz/LNsSU3Z3aReXCrZ4bEB9PCxMqBwAmFGvzIyju6/7ikE5wPz/MF5JeebJJ3v9r9fZ+cb/C265v/ujP+bAsKCOwCil2m7HqwRbpK8YlAXG/xlPPdm99x08uGU38ds0kn/zjL/eApTCvMD+51HZLv7BywoFNrZUGVaJoqxQwYsF777zvHZ6luzDJi1Vhvfmfw1nObmjo2tS3maPSndK2Z0pkPOirlVGyS6WPTstlKx1jhevBXJe1H0jwspkv5XC4+71IuPPSeZ+vZ78l0jEePYAk5EqwypYLChU8Gyo5hUZheKs+pzyjy3xfNQ6b3M7XarDcy1++4+1VqqB24CKSjYU/pzoYtmz01ymtFIpZdYVqMgaZEaO+UORIJNUF+2D9STmwZT/HpE6WjVmMlJlWKWKBYUKnq3UvCJToCxdwyYjVYaPhv9ved6J7q2v052k4fznGWq81QdZ6+fcUwKnYwSNjUWomn/UowW1xHPeOp/8PCzv//dnAOrYE8sxz7BKuj+XK3i2pFTnee06WbIPm7RUGd67/7twCxAfTG37X3zWK5JGabbx/ytPvr/7wz/kaLCUSJQ2tFDuc4ZVrlhQqODZTs0rMgXK0jVsMlJleGf/3/wNJ7u3vR6vAd0h/4q/2cdfbwHSdlvrU9SdUlrQh3KfM7xz/4st1XNvXvv4Fzw3DVS/ouc/aEkQtoHJUynFTQ3V0nrm2S3VkgUrOnKgBPFCqeH9+NcznWvFXYL8qkD1U8/msgEoCqZt4glXcAhXdNP0MypiaXizCP9lp2q4DTnC84i/JNSYa6GX0Z78L2b++TMyi8i/7Ya+9X+cZwoxl0pGFJhv91rFa359bi7D/FvFw8CXLl9OXcwtB9kTOkn0waLj4oVS+q964Byy9Xea//xx2K6U0V7U+H/Hi2/obr/wCJ1rcCq39GBiSUswAeX2HlC5s84dV2ahnLeXs6nApUtWS6NFxDaURJHfP+1b6aGyuC0HAIW7qP6XVhCar/8734vXgOIAQEJWO15Y/J949v7ud3/PxqVpw7z7v+j5/x3ffqK7/VW4urVD/jEM+vsz+/w/9RjeAoTiCa3YyHa++TcW/+QV7fQ5HZOhsIdaLVxuvEDfNbx2ltRGHOPN27/s8Jxf045KS6vW1QhnKhsaJRPsUCGTkpye3QAh+AEYLeGh1wA9kUzYv/8NvDmIXxtca78yjL7OO/6eHAc1/pN/zUmPfzn73+Qe0Zxuws6E/eef2s22at96oLqRGkDZUvyWPpljg2asbVQJfgBzmX/8MrDcBgQ3HluvS8sBGXGMN80/HZ4IlAesCmJBJI7ceJniHxEbyzHOCed938tv7Nb+3o0evaBT4hju1dmyK1sqkOYQjMhBAUjy/TC3ILb1MELubncVP8KnHGWQ6NRniQMAoEc5//1LwG3/JQi28XGZV/y/4in3d7/97/g6V59nyfsRi///gtw+/z3IbemsJJ12tsm/FIEUl9nkv38HIHxY4Jcp/jHs0qjcQMIo8hEFZq0geZJabJWTgmcEVGYu6sIhBK7MeJWSrSkETCkcwXG5ZypGPAAADtxJREFUkAJGWSTEgnMGfZi5iidnEFdW1F61pQ/6UrtkBRwAqSyJIKDi3LLQr5Yi55DXLlFq5WR+wAG4dCIIqDi3LLvxzzeYXP7oJdwatQENXY55sMyuSWVGZh1/tk8LHBzA+Lt36eV17J+vkF1bO1/CYTmtmaTkgANw8UQQUHFuWSx1ABU5h7wWwWqjHP1yIzS3yb9N3kjsXkRNdblluRb/akntBByA0nO/tItb3blVPAyM5wFyYTtclXVdwL2O809Gaeq/JfrBrL//4sM3dV/2JXg1pWQpfmV5FQCJyrfzcP7x77gAmG/kecraDj1QPbGIceR1Az+3TDoL7SrH38ICeaErl/n/mts/Jc8BiC3ZSGaIL5GC01n+/tOmFjhbYP7pW4D0CoDGp/hnDxmZecf/lqfd3/3Wv02jtMD+s4d1Kf1n3xkT5hdDETDQ/e5/fOCnb+qetsrrVszM8fyj03nF/+bH3MvuaH9Q1wWtWoL460P8MjoW/bqVe8A00DpZ3ZbXNJPhYrZcHRnmF8mdoN371zcDrUqysVk+SAUwX+nMxaiMNysEXBc1u+RF+C5kdV2lhpjSgvyvy1dNN+CUDdpv2X38s4eDGP/Jv70iV66GpbTz9PQALSj/3C2vTvmD696Eobp9GFhk3IgrDOJOtLquUiDMyB76fwlvAjp3bhUzqPERc4qLAXl1mfIfUZGwDMenjtZ22LT+aAR3l3+v/K4bu1d+543yTS95n7/8EEKXRrzsIf9lRwq6kf+hazkvRw9+4G5tRPXa1z8kXwMe2z/wpuxcL/f4y1uAnsTg6ihJzXDjUsmi4n/6Gfd2H/tNGw8L6FFcf57zjBu6d70Zt/+wc77mjuTfPON/6rH2FiCJdWqLxZ7VgccfbagyYrCZTkQtBy2WxJxyOuFTjwRsOK7fig3gg6JOnKF/3Yk4ixbQOEosWIr6lsFJ7p1c1S6joTR7lYRxiqBxE2EJ/G9cuNBt4N3rbFVVUgCOyvhX/UuIdzWRqgQ4Kv3X238OZ/6dxRW8/E2A0osCVeMHRDg9diLMYP7xbIqW5V//2vg4fr3kv/e3ra+H/p/Bvei8JaX6vbL8j5OSFhiZIQiKvL0HtcbHt/r7z30A3/1WNb42NO0ZUB+GaJsGVJuSuAKAV4Dmh4ALTy3J1onUhQ07Xyw+k5dKofUPpV0Vd1UJO/Ea/PMtQPzuQtt/jQa8LSD+5571QPdrv3G16lqLeFcruhOvof+Liv/NePPnn/3upyHMKTPQ7rH8m2f84xYgj18V1GFkUNSJqGed/25a4yCTxEiFIy0VtKIVOb9M0/zsJZsDnYW66xUHhIrdnDRCNZZaK3JuZy/+z66e7S7dc0lNtVtbqILc4tswRkVDBwCE/HPgmRxwa6TFRwXFtEQwRIaAHfzzTCxf27CeXg856/jLQoij8pimMbZlXOc5/tezf47r+fXzCAFjPVDafGvxUOkz+pQQLgCEhvJfd6B3N/4XL17Cx8HOwGbdh2vxHw1sjbT4iKDeBnQxuNI06g4VNNvXLWFbtxe1/rFtk//ra/35sr96vHv6U07KmX/Ov+PyaK8laM4/7i1h/Y/1F6icqaSMn8RnAvGoAA/sM4/8l0ffGSQZHalsWKlgz/2/Wr4DgC8BuwkHAlc1QSuaIag8j/fy+7/o/I9nANid1P/B3785xf+pz32g+xe/ZgcAKW4S4YhtiWuMPwSEGjLUKHLLEv8XPu+G7uXfcUP3hZ/P5C1NVCRtFxR/eQ0ofA0WhM/jJvyIbYnrIuKf3KbF0FqszBBR6mD7ioxABfU0qXRz8ngne5MXGmomGaMVQ2tqwQQqqIuP+r94z0XsSKwoXxJDXQjBjsqVObDl4NIXioKJUIjGJI8gF0wA0GukhSBXqkSSwpCIs4pOTHUyoGAiUMxRqbkhaW/+Ny68Sj8sJtrYWGxTiAvRocRMYOgGkJgHNf4SI2n39ZP/W3rNOdID3deCFDmo/LuwcQEPpq95S6TW9EhJQqqhq5iz92DuCg4ys5sjGARAgQqZm73n/17m3+VLF+VZgNgfgr+q9YEYEDjlrp/8i6gM9P/cmRPdo04d607hTN6jcJL61M3HFb4ZOOif9mnHukcB/rSb8WYa/s6LDcQOi+oxrJdyT6vbxZDHJXYuuqDzfeCywwpccp1rrJjB/cKAc/7TXvUgLEVp2ypRTf67q9ydO8ZK9o03sa+1CaFN7CfTNvedr16FwibulweuctAR/nHwIAM6/osO7w25iqdsN1Fzym7RHmzQHnP7qttHoynDec3+iQx4j/5Lx7rHPvp499moH/3ZXffpn444gT+v/u8n/q+9XT8EdtTz/847HtmdeRKeATjA+H/0V68uxL/k38Oan8zlh5nXyE3mO/N/k3+Gb5InfM3/hy3Pr8LIFugPM/+FD33QmPvM+09/1DHL62PdYz7rRPfZyO/95B91WOQ9V5x7mJ42xcXeXuZ/65+vAZXlQTyIE5m36gF+E/Og8t+agIoLpMbCm1tqb6jX5GTYJPukQlGoxd0F6Afonw/CruGMaC4MBVurJWEJdO6+a7fldTJUkxKWwCS+P9BteZ2s1KQtvJv9gt6fTQZLGUrFB0lFSKEWd1XQD3D8pTPXif91+/KvRN4H2WsfDtQ1KWEJTOL7A90W6mMnkAPEh4qnjdeUoTh+RK6pJP9psotJZ6n9hCVwyDffBsQP8WkpDVaoxd0C6NdJ/vkgl0gwBqX/v/nRU93jH+cvnbT4SGwoAxw7AO1YmZSQOTwsar/8rDruBgT3seSvvjz5qrrcOksok38EBDFi0GYc/9e8jt8BwJeAj3j+8zsAp285GQGc8g8p5ZPsiM6/m+Q1oLoiyXinFUpxWV2wAXZA+R/tcKCtUxOxKCrXZZRXFlmXZV3LZI7BjYCjbe2aSs/bwumfO9u7f38nulr1zHQfqAdIwhV6YgYYQKgWyri5ZffP1zTWzwkcjfFv885xz4CceTXvcPXfH6DNueh9LPUAd4Ak8kJPzAAD2DH/+RD6BXv2xGPrtbdpKP7Sl7MrunjKigPpcBtAkAolibmDqs6SxhggCUfohXkJtyatnls9dOufx7utPSxD8Vfe7PL/r3zB8e5jHzmF8eIvDVf1UnQfPLfCYo6dh2P4qqz+NkHeyPqbQHmQQJMrAYCVAhoA2vSilpU/+V9c/P01oHX8fRx8dBxXKZdV7uzyz1LHU6jOPzi7lv0f3gJ0Gs9esO0sU/4d/fmnBwA63r1tncSSF/PMvzH/0YwCAIrLIlSzhXi7I5Rofu2mNzXDSS2nXjjBUOKarU76Rfpfw07IeXwxmM3MpR0Y8oZoWafALpm1CpeW5LKgOc3SLuU0r7OlTHP5us4SGXap/fnXNwetm5HhgT1s48/oHGT+zdv/+sZat3bex8yGbgnyb339QndhY33P85+37vG1vu189Z5pnXM+wy61v/x3S167NdZ+FWDK/+bUzPAyIaEj6/nPOdm9/Y03YcecUS3rv5x0xu+P7MgLp11/hw1r/Mspa3n/PA8YYAPWzIOOP25lFwpfxTj5X1z8XyPPAHyq7EEc4O+/9HpO/nkAcPZJvM1syr/rZf7djCsAus7YojW8TAkzWHPKv9qJtQeV3DLJlU+nfGGEgpF0/1+byS1nrK3TZfKGklnzXkntiC7s7o/9XSb/KzijePHSPdpB6Q9bikZalQDh7nWTzchZgDCQ/YQUuJlO4cwL5V0DoQ1gFv6HrghoG9EkH3KpHSlkNnrZxr8KJJts5SjkP2//iQPcGY2/x2e39VD+HUcSkN4ru4i/X9Ho6Y4QhvyrqHGkCimwMp2Smaea7Za3AMmHwTzlpXZkyv8SiXr++6sp9dQ8pCho8cZJfkCk8UNGypPfHwxH/GaKPDe200/Qhwv33dMuUT46QF2uf9zxJzEOCEReNpN/xsYCOK/4/wBvAbr9IfFCb1UR/0o57Ovvne85hWcA9Na2Kf+QVdfB/IuHgGWNsYUG6VwgXbt0/aky35K+0OaW/7Iqpumnc645c+ONrvbWcje0I35AIM2OVbl0IiCoaodIaeyI0MH6P7uyih2l8x0fNIxiCavx0QSWcEBAfy7sR4MKDkrNnxY96g9bIVAoLeQmgg5C3mFnrJfJ/6surOPDUhvR3PKrXEgBLfn4MyerI3c0XLL0kOd/+fJvL7tiaBzoScwp//TLv+vuVuK8l/iXqwCpxQ5KfTDz79gJ/MxXC2J0UZJpmde/vcTfe9Vb7nsEl0Q9Mv95APAP8EcBPgzr6xs1Ga9NvnGGayf/YzHkGX0Wbo8DJk2KEqAAgHRoGUf5oOkbOIjKzFa6YZP/xcVfXwN6pRf/o7b+Vm8BmvLvuph/px79XyKvK2Bk/aOMrlOL2/+oVz9vpVGlGpYQye3W+OGFFYv1Nvbcva/JB+2f97rzjOlQGfhZSWL8BfKOsrbSIzuBP2LNz1Tew3f9VPfkE09/Eg/Gf9mhc//aMI/CYRp/6UHdjSrKhyn/JZftw1+yxyQDcvD5d4xfYmmLxXy38S8HNm7I++W10R31ugRi5vNvdfU2PAx80RtkC/vhWv92G//oZAXYIBqNGMt281+uAPAAgMLYec9v9Kmt6XrJK0ccQg5nXbiW8mxruv2HApRluoGsqtQ0G9wpE8dKmvwvJv7tdwAQ/fjplDFvB14EdHOY1l8+BHwG3wGY8g9jd53Mv5seUw4AmMYs261/KoGt5fwi8j+ml55baZbSXkOU4ErtBHR6dAAEPQkWnOhjCyyr/zXsNPEBYRb7uRC43fR4DaFBRV1oA4xM4s6Nvh/9cPnntwQ2cFXgsI8/B12yt2w8vXUngoNlJbLcgDI/guOivXre+b+Jdw2yFblInuVkM2YmzTP/8nMk19J/3gbEj4NV/cudQL8aVHoqtAFGJu23/3wY+Nxtq1P+M5gxYyTsgxuO/yu+64bulfiLXXEMKN/0JJ+VIoxfT571x3+9Gip8NU833LeX9cZ38lH7+qMnTPLIgkdVI5X8S6dWJv9zj/9rcfsP3wRU4o9B8YL4H5X198N4DejZW5iY7JSWKf+O9vy7+S/fG+uPrjY+8v36oPL//wcAAP//H/yhPgAAQABJREFU7L17sGbZVR92bk/3dE+LGENiE0CCcrmMy49yUpVKGQlN33tbYEwIAQchkAQCPRASICSNBELTo773tqYHJDQaCSGQAIFkWYBGI4OFQSNi9e0GXC7+SFX8R8oOdlIEKo4r5TjI0mim59E3v9967bX3Od93X9/z9re779lrr7X2Xnv99tr7PL7zWOu6bg9/XbcWFMg1MJU9JGOVJBUVbnr1TLKGtkV/L2kke6KWyklLW2hk87C/vbXVbW1tm0eW0Sn2rUrKjC187unsQUpQeqltMJczbRUHWIo0x49msZ2j/RvXd7ud7Svdjd+/vvTjrw4QUw1G4tumXtyawrzjf2dnu7t8eat0d0Hib2dnp9ve3tZ+KaxC93BsZO3839jY6HZ3d80/jsxixP/FzY3u+vUbMtUlXpZ4/ZtF/F9645nu0j1nZY7pHkbHUqec0tX8E1BluGXZk7hZu9Ub/7VTEIuuRVaK/wgtIYqNlX1ioXhME/8H3v1kdz/+1AZMItkoaUEZ2hWTsSDDWTSE6tUz+bzXX9r/9MN3dReeexq+oe+r+MMgc8KlYT+B8+9Zz/6C+gjfJF4XcP2POSP4+yzUsUGvTSxC1ahGDaw1eOaTMTSM0Cy4UpUmtE6lZJYTj9oLZn99Y73jwQZPBqR72PihhjAECfrQJB19KA/IoMoFYS1kGU0K8UfAzBIIwYp54Xq7yqGsSmRTO2xU0qnb39nGgR4OQiWhq8s6/oo4vCDcBvUyxL+evF6e2/gLVgPxJzFvWGqWCgyWQ8x/ngBsYH7q4LBySnOK/xvXr3cbmxfREemAdgguruKfiKSxBjws3YuD/0v3nLYhBIfjj7Vx7xQUbp1CUXGUZQwkS+BaW6xGjm4JtlpgO+TjjxX5H6TYlwMxive6U5Bpn3ACwYrcrOxPHf+rDz3ZXcUJACGvYoJDcIj5T3VtoxBVm1RgAjPGX2ICPIaGZNYCM6YJ2n/04XPdhedpbIf9VfwJ8Cd1/vEEIGJaI2pu8efm2/iP6dCbPVEDhGhxgeRCmiaLRDJPEjiHVCYK3pgKvIKK0lbFpuS6XjfpLZr9HVy1vGwnAd5N955uBBRScI2SV7quTyzhqGx7CqXuKKqqUhX6NXpiMqZs/zoOhnjFl7knHXIbeMsGgwWyNSzGHmNR7zaNv8P6L1ecHHTk8xj/ZF7s81eJKzgxjAXymON/AQf/PAlgM30Hs/UB8RTjP5/k1L3wSDfHj+m/zw210bQZbdc9UHajO8f199Ib75STAB70S2LXLOW9jKwEe7iszxMDOUjD+YENulQBT0bZ5K1L2joO+mW9hS7tmS7jcWV/dvjf/+6ncAJw0ycDxs3GzgeeOVjLvv4/Kr8A3CFereKPMJz8+Xf+a/ALAAd7IKSJgLJNGDpBUEUTWNOK/2KNV0fsjDR2oN6BnENPrspk3ii6tC7eyvEadclnBnBsqUFh+ezz9gWeCNhhexlsda9s6Sec1Z0Y2SUqMlcruMz1mBObKiNTkrJHCJPSotiX2z7s14BlH3+Hd2S+APG/jdvWtnD7z6KMv2KFqD+Fwy+ELSNX0gTm/94ttGZrizcrOe3Maf5tbm7qSS/6Ff5aH6PMTk7A/8pnaRMbB3gJ7OstQGcIRuq4OUI/wN4DTqewn3K3ZJdFINMaaTVCh+Jb2OgBP6VgoB3ux27xBILmHH+ptbJfAsfQdIgnjP/bcQLA24AC/xZ6ms/Jxo3d2TfltkDHfCMfKcpSAHOKxz+f/sS5bgO3AGm/V/F3O8y/u55jJwASXyne5hB/XB4j3pN9ktVcKgwermKhtYVR6mDDOVIlq1DqVVLarQxoueWWOkWyHPb9Huat5heB4pH6T78kOX4Vw04hKAu+6SMbwS4K+1BV/QWxv3Ml3f+d+r9s4+8BXvqdnAHZ8rXcckudIplM/PPq/6KN/87OFdwStlWcTtRx/L8mtwFtpNaUnKf/ehvQZvRJ/StehsCIIpnM+Jf21MAi2+cvAPe96U7bXxT/5RYBcrEvyvuf7JvQPtCew2Xy9akA8x8yXnSRvaGwVFm22MjuTvgr+77/nyb+vPp/FScBnsqYFvw56ORzk8df6liFUs9b0rzla7nlljpFMln7j36CzwDcYQdhsMKjMUmr+OPAnsT5dx63AJV40tHWcsu1UEBWJJONP7fQ2pdyMepqJR8tayWpnEhtyRg9fiUtRhM1ogo0WkkqJ7Ky0ONX0mS1kCOqQKGWbON2Bu5a2hMBnd5sjwdiHNQRqSj2Fbjq2Z6Jv26PbKNfUyeW8BfPvj8ESn/o/lAaLWslqZxIbdMYPX4lHTLfjHJWaRtL5URWFnr8SpobD3pEFchbSSobWX6hYnOLM/4+7u5k6rmzIh8tayVr8gxAeRhYmyjTan7+X8RzANev7/aHzLxsPQnnQYyWtZJUTqS2ZYwev5Jms0GPqAJ5K0nlRFYWevxKivv/7+x4EiBNWw+kyuD6Z43FAKfGE6liMPZwk9AprL9keLK6ou7teG46KgOzt/6akdC3MuslUsVgrOwP4s9nAPgLAHEaSgnKRtxKUjmRWskYPX4lbdrfT9Y2lsqJ9FYeffhsd/c34CHg7KjFjqgbnXbYUlVlEK7iTw4SyvGPgey45UmX8FcxGHOYfzwB8PGXzqd+maCMcWYkekQVaLSSVE6kNmWMHj9aqRUG9CpzQ/LU50S6pp3NuMTZXvbWjd8TQy/zMh1NDBKuOTv78osAoi5OBNiFXrKoRVYCulGSnR55gw2060Rdmc17Gqy+OPa38UsAHxLOE4Rdzi7QlczLNGWjk2vObvzrvszX/u41PoS6XndJSvMd/zUciNUDbDjVWdVvR5LMTFdKKMjDwOsbhU3lXpqt/3zu5SJuBYqY7jlgjDqrep2rZLpS6hVcczni/xKu/t/HEwAkeW6F3bf1zz1xjl/Vz/wCMLVYE1IccemFF+YeOz7+4OHASvQoVXWpu7KveChijptAQ5jiV5Xj4n//Q7wFiL8AmL2SqTHbZjuZrpR6Bdecf/x/BrcA3c1fANDHiETs41fxd3Ln3/nnPCajzdkjv6Z5fHpYetmioslCSiJXyXSl1Cu45mj7jSS3ABEXT0zInMZUCDU5WbV63gUVegm5kCNmuygvv/0tPCPAN7AQCrobqWKkQiJdt2ZZyZmeu3LkKnCx543YikmaSNetWVZypueuHLkKXOx5I7biHh4Oxi0hwKpOyz/+9McjXn3zEnIhgYyzauel5nHmH19Zq8+n6LE2zUSqBiQVEum6NctKzvTclSNXgYs9p1iv/u9MzX++pWt39xos2c/KoLJ99qFmJGkiRa9V9Yqu57krR64CFzPnCQBfCRrGZdwhkTwqJuL2i39e/edJgCb1v36sg4fyeO+PXxxxgBNqJHXe6PjjUeE4WA2wedWFAmkHjbDMVLW3sk8cp43/1YdwC9CD5RYgHQhuT1b86y1ApzXIVvF3W8y//i1AvtgjF3L+6z97whVQ5533T0u2b8JEhNw0TFIU8tPJlZBtMQ1WVJFuk9FEUqbF5be/vd1+Q4CgKEBBOeG5gjO4VZXRin1JyynloJzwfNCyMlVltGJf0nJK2anru9e7zRdsVvFyUsZ/DJQQqZeik0iWj+M/X7vKh381OcpWlEnJ1tMxj6t47qoDuaqMVuxLCqe87tYbTk4nktKj+n8LB3bqndso9pVTykE54blXHchVZbRiXzLqJJeNJ6cTWSTLv/4NQJhYxWke/F96g90CBBD1roe+/4E/r97fwt6Ju7CURO4BICKtISpClvIeDsZ4oCtTIp8tgLWyT1imi//9OPh/ACcBkkoopGLfvipjC/1lOf7wZwB06V3FnwwehvAkzz+5BYhDPTaloE8kq2hxuvHvNnQBDKNje2wTz6ugCV9A96nmYllYMzDJ8US6ej+vTFaFvu4AZ172q3uyZQ0oC0HppvMcIEOEVw2MlBwVXFPresnz0mKmQipElJKK85gzzdY+P560K1dK1frgllCge9rDqjCo3jLnNf7ej1nYl6ukbjDlPrrtjqiouIaiO8nx93v/p+2/fhNgo7iUKPduHv77yc+0/U/uDpKLal8fAj6DofGFjt0fXn/IlduA5GoqRlV+qvZ63GkmFpuxxPH3i/+yiFDTq0Eovx4Eg5VM2Ky/5K7sA51j4s8HgPkcgC3mjjaBH504ZBxy0agKo+skyTzi308AVvF3+8y/u+IZgBR8IOcRf7kH2b6sbsoQ0tY7o8dOR9dJTaMhf4cy14VqUkfZCeRCYrlHzjNBqSCZ0SfUPm8LuoxfBeilYMTVTEvkDKZhDed6XlflQaAedPAXHN0pigbUfX+2iPb1lqAtdNXjoPZLSwOyVfzJ/PMTzUUb/yvy5d8dDJ/Fqwzh5Oc/bwPiG4EWzf9RtwHdbuvfqPG/dA++BMxbgHxfkOZ/f4Vj8PiTAL6g6dUyrg9sgq+F5frHX7BvydpACQVYD1mWJqCDbwDs8bsCjEvyVvYVixngf/VdN7sH3oOHgB3zEfijQ00SxZonY8xISUMIumoyfAJXBJNff4bs/+4jd3XrX8/vAMDoKv5ui/l3/qvtS8BVPErQaRzMMP58elnQh33vDRgltcwoB6G6WsQ2TscbBWtSl2BMNJR1epZuFKuFynrkRjkI1dUitktqn88IMPm92lIgQHTMD5KEOX7jVXgRjDs1z6OWKwSjJipxFIKolQdKrul2PQ9VVwhGTVRiK/BDUfpmpZM7/nR1KGlcF0mUg1CZFrFt4v+WHPiU+vuF0hD+04g//dpq7nvqYyIbN480/6tfASoHkyEjK3EUguhXaDiu6XHveaiZQn4laOtj6IJoZVEOQrW1iG0z/rkt0suy/vpbgGQNS0EbbgcBp4Cp6uktQAIB9nJra3jbD/L8nLncJgIF0WEbSE1TUhaTlEHISyaqlXSbSiv7xOl4+PMrwPzLKcNMfpSDUG0tYrsE8c/vAPAEQA7Esk+gI9JIIK3i72TMP/8FYJHX33pKSeRZFOqSaJMrppoEq0xJTjqmpO7zMBoNQlXbbU98G9vnVVu+OYhw8oqVYGyAVbze0UWLalsubQmFDRchYj+UKlumUPFmaD/eFy+rZj6BpAPsFZJldGgVf3j7lMWRguMA6WjLOGIzj/H3239KvzQGffiEP8H5v45fAfSVoOK1ND9P/30kLm7gYeAb19VdbKflv7TLYa8MiNnY9MQTxP8o9i+96Wx37xvP2PrHK/JImNRynzCu9suOVNYfvVrfdlc/UEktc1sI9oSE8mSNwIZajRhqWHnRvq6/K/sC2pTxv/9BnADwFiCmdkCFh/E7Aes/bwGStwCJO6v4ux3m3/n8ITAJ8HoT65Sz5xD/VR+qgnVqiEdR1VddSnWdlZXfPRJNbIyJxmQBpj4JpqQ/ZGuIx2on1X4cwBEXOi8ACcFCVfJjcVENfVFrNmOFSTfpBRmE6OXSLOxv4pkAfXtK6ibIkzr+xDenw8a/fPm391G6PGq59ZZOekEGIcq5dJjxX1vDARWcmeX858Gcptzr1udcTnpBBiGKuXQY/20yd/orwEUFgi2yQUtDYz3Eo/pJjP/7cAvQvfecVTQMaB6My+ESyjwOdPyJi7yhRng4nOBg6HlBqU+KQPmtQiAl/tgQbvuRZBlptxV86q/sTxX/qzwBsF8AOFJpOGQYhngULFv8yzMAz7MPga3i77aYf3ICIAdxFtVcT0ByPROCgZwCfijWh3iTjH9tv7XSlt0J4/fE0qPaGbI8Zf1BOjNZqS07w/g98WAdt143l+sGHYTVactzsM8DOcYGnxcYTpTqtSp2d7/UaktZmVXVzMp0pSQFlY7XKbVabSkPVM4sp+XgkWjYuPSGh2YGmWo/iwbpzBxsyxTqTBv3bduG85Fn0SCdmazXlp1h/J441SkHvWSWpFg6orruyDk4G0upaJhOktVk22ItzSXe+++3u+W+Bx2E1WrLh/A/2823AbW9lXJ21ipmVqZzu0qrdLxOqZW142FgiMl390J7Qv57e7m5QTozh/rjHTS9Vl3sDDK1B1k0SBuTDwHfi2cA5JgdwDi2vFqot+QoVBTom3/ABy23+3jDXsmdR06RPi2gV16pwj+eA8jFZdCSrLyyDzSIBTJiN03878fV//wQsIyDj6UUuDFGnYVUiF6dIs6iQTozWa0tO8P4PfFgndr+7+IXgPXnnjIsV/HH2Drp888/BJbjZZDOzMFYMoU6KwE2WKeIc/Mt3TSpxaykzSSOkFwSGMRYUEHEAzyibLqmJ6GeaeiUs3fT9QlmuXPVNreJY20p5/awv4UPZW1vvc1wQOYrcyEIUkqhkHhOusxz5dcl12VuV+CyrVAOIleQOjpmDVuKXsdz1alLud4e3gr0+3iP+oYyb8PxP2j8+21kKUAykEY70p4ruy7lascf/3j3v8TQ7Ob/xvqmfROg9qfgyWDSNE3/3YZbunjxIvp1HUVdxdrcuaVe4gh5MtffS7j6zweBk7eAgPHHAyccwvNo3f1Hjkd7sS/hSQALGEHKZANd2cmIssHotJ8EcMT9JwM9wXBUXVMrruxPE/+r78Z3APxDYDq4trVhkyyNiJA+Usuz/3/04fPdBZwAMGrZe0bVKv5O9vw7/9X2ITCLWY490yId/6aZJX0rm9GSojNI9SsGRzz3SrZgKybOLHlUKqyDUf2KwVly++UAT5EgdPRNkx+oRTEJoWk7T79twWtpUJZWJEalWLde9AtVa0zXPr+muomPKe2f2Hn2rKTgLPn4F4+Gqer999XgoDDH8Y+Hf+eAv/4KsD5X/yUeE/43btxALG/o/KxDtQxsBG1hHYzqVwzOHPBnnw9qX94C9EbcAsQK8ls5CS0yb6FiWTVUqodWZi0J5XCL+OOngj2eG1AdDwsrlRRpwcZpZd+wMJQIGZHKKSNH6VHwLycAuWXQNowN9wDFfsXgzDH+P/3wXd2Fbzi9ir/baP7pLUAplOcYfzJ3B+zH3BieWSaWLNOqXSorVcq5tVpWdAqVtWvadCTL9O1tn7cHMcmHnghLk+qFWRduQw/rqkpbnaKljflyXhb2xgiL/UZEqWV7WfO8zW26lvKG7MuVZLwdSOxCzX1yqpRzu8p1medeJ2v2adOWLNOq2bZVyrkl5brM80nb14/NbYnhGskyTBn5Vqdoad+H8M9eDRoyhdy2P/zrfns+af/Z/9J26am/EtRlixL/G5sX8TzAbunoIGW9lizTquw+OZalnBtTrss89zpZs0+btmSZno59eQvQPfolYI0/XiHEW30wsn7NNw9yOUfQvlkPq2WJ9diCtsRrrtqytslI9ZSjltFEjZX9aeM/9BYgH5GI0RnFX7HrVI75TKvc4837Wcpen7lyP4NbgJ7/3DtW8XcbzT+9BUjH32PDc4+LHCl92rQly7Rqtm2Vcm5JuS7z3O2XclpZ5UQB62ESVrRI9GmGbCnRuSbY3mDS6JOljqsXTt2XlX0gY/jLgR+/+OpndwQtEgbRr2gFr0/4rwLloA86aX+oZNommShKGYYrPu2AMWH727iffAe3RLn/fW/IIQjsjCUPKC8P5qWOqxdO2yIkCxb/cqV7fUM7Gv5NHn8ZYtm4EdoAPSL+9OFf4MUgG5sK2pPEfwOY7O5zoD2P+O//ojUd/wVyB3QO+B/G/r33nO7uw21AggQGRW7vQXDpobgGnVy3l6v5FncMPhExxmCNlWVDTSRZfxRb3So7b3X8eWqobxoSvZX9meBfTgDK6Hi4Fo6OKIdXEyQLtv56z6J/Eoze3bXu0YfxGlCcABQfSo1V/GE4Megnbf6dfzZvAULygNbSiG2JdlcvnOnFf7FRzSlnez7cZ5Fy4wnR7TU8d5HkxhwlK3PaNTyvWomCSLnxdBvbl9uDeCKAaaRXt4TUAZFlx4DiCkSgdU+JfETqqWSG2cisaGb69v3NQKvx1+MbXuXevbZrIzB9/CPG9hl/nqht8xcbTzJgZY1wtuSQTWv+7+5e6zbw+k1J0ufBjlfdyVMmVTSdycQ/b2njiYCkKfpvnQ7gbRiCvSj27+NDwPILAK7b416dPb45SgaCPcxjpvjLQ4RU8QQVP4yQml5Fj7BUizoINK6RbSq4rOzPCv84ATjh8e9fAmYYr+Lv9ph//h2AWGdsgSnrTEhkbZ7W/i+sDNiPaSeyrEAaST6i4otwaJsMGddYJquqBds6z/NKyBrisUpla4pBs11cwWG4SIKggFTbtKqVCed5XglPqH2+bYX+8psCeadJBB0H5v2kGq5HedBBeK3EEFLL3DKV9oueU56rZt6qJMuDDkL1r+OK7iZuoXB/yM20t+o8z52vObgnJP709p9tnyVTxz9FhpFl7Igt8Wa6goN/PsA+b/w3cYL0WXwZ2Pvh/dNe+rb44PIIuyBqXSmJrNQlz+tnnLwJz6m3c4UP9++A0sNRXqzmIEpmjdxO699b8QYgvglIDuzhv17oJ8Ebh7EfAClT1g7oCRFJMvVWH9AsaoZcDzRYll8OkBf8vTHWJBe6tAFyZR9oAJ5Z4H/1wafwEPBNGTPa41BIxg3SSYl/fQuQ/gKgrmFr+59V/J3M+fesZ38h1ht6WKcy/gx6xsQ84l9foiC9ky7UfTxUiQspXWFj3pbnbCjTLGvynztGyV1v/3xlv8WfX9Ld2rqs0MmwNGNjRefG0DnY6crZSJ3QBcEOeIoKxpCyMy2vM1n86zagwABB8ppO+L3l1jqy23f85dWfAZAhMlh2puV1lkD2NqAwAv+Cu+sib8Z/7VS+gqvR2dab1fzfvXa929i8YJ2sHbfSxP1v8ZAdvjDV4nW8CejiCzbt7qhhfFq8RpeXP/4v4SNgl3ASEOlQ6w/8B4Sx/4m6xBqJe9f2wV+I+CODfE+A4yJ1VF3rUIHjkkJDh0541Qbtr+wfHv8H3vNkx4+B6eJhY1UBe9DCYse/vAXoeYwl/lkQMbxW8Xdi59/559hbgCSEfdzreJY1Q8J+WF5rjysdMf7RZDXrBrvhTORy0mpBTJO64LYdayRev1UbKA+qOnNl/0j48zaMy7g9iGMnQxe4J0bsMEMohGt4Xku1VGSFavVE0hMnxhHsX8SvAMP3d98+8be1vdVdxq89nCKxY2nBd0mCW1US4wj4u5nSSqHyu/9tuXD1sblP9UrJmceY/1t4cH5bnpXJLZf+6sGfojikkTSzWOgiK1SrJJKeeE9+yYrbgFDJXa3qO/MY/terfNV6VXBTg8wp2+dDwLwNSK6EWQcEMti1HwEMH+2lz3Lug0iXXRlfG5r2TKyPhnz9K5ppQCz+7aJsuL+yD9yIn/4IM3H8+QpQ/xAYQS9jE0NQmBAu6/EH3wK0/vV3iC/Fx1X86eBirE/g/ItbgMqAp6AeJgdVnYl80vHvTes4MB59ChaJ9FSKFc8KyPxnOl+Qw7VKP7hKpHrFAKnSbt5pCbdqr+it7Ovubj/84zWiGGd+SEd3mjoc1TatS8Jvy6HcF/Q5oVwIKE3CvtwKdBG3AuGIwQ8C0m4/QqkYThTCx+sJN2KrxNUyxF/74a9Z4o9RBHTEqyTn8KdFn8pFmiiKbdyEa7BHpShrHSlWPCsg83bGxb88J4HbgCShk5OIv3H+q6ER22Q/HgYO34pfyxB/HOOD4N9DItUTGcq8/YffApCDgfzjEfCSg1BC4/fy0DCPSvFqT9r3sdB3Bpk1Z1sxMsP/lL2TRfihy3ahsLKvkBKcKeJ/v3wHAL8AZPzFoNqVscFGxKFDrhWQTSr+dL6Vdic5/+IZAHZ9FX+y/p70+SevAcVYD6YUtyK3sMtxPcn46/XB7Cez1TWT1KdQ0TasWHNLSahS9Gla1R1ysrfzRg1tJjXGVqxYc0tJqFJ09ZX9hB1fI8orx4xNQhVJFqbEs7PykLdEakDJxKCuFyXnhizusEHAsItFoEIsDIezv3mRD1LekJbZBP2J4wEvU8AkwkREmaLli39e1eY4MimWDaJelJybyeMvmDb29d72bZorkFcFA37G+O9ev9at4+Ngk4y/If/FcW4OiD8far+Bj91VJ6+orvAkkNhmH7rCdCpVSWTUDSIJFyH+78UtQPIlYPqJtIb1p3oQ2PGkDH9cnpTA3OUFDTDknlb3C/L4iZ2DDj4/GiYnDCjLWiONUIQXhIo9bRItr+wLHulMyPF22L0MII+K/wMP6ofAFiH+pjn/Hv3Eue7C8/AMwCr+bpv5x9eA+lLE9aQUjJuE84r/0hMukJzQQ8k76jl1Mm11+qzCUaotuzHwV/Znjn8cQPpC7sOBvGalUiKT+tFIb8vz1ErNSqVEUj2uoIIu0eUNFY5SbTnpLWH8yYmcPOztfhwydyw9T9VrViolMqlXZHk+o8W7LXs18GeA/zreBMQ3AkVyXzwPwWzj//ouPgz2go2Zz3+6rWk2+PPk350sFHug9vUXAP8OgM5n6Z/EBnVQil8ARFJtcptKl92ql70BKfu480xAnvwtzbnoX/6vt7p//W+e6f7s/9rr/uz/3uv+HfIvPLbX3XG66+7AsTEfc7njjjX8dd1plpGTpkz4xjsN3in8WnHHHbeET901ltkOzlLuOLPXPfN01z0D/555puuefgaHo07jIYVbz6x1T6N86ynqQNdk1L1l9C3Wowy5/N1a677kfNd96Zd23Zd/6Vr3F//iqe4VL72j+8qv4C1SGAl3coz/gsgU8b/60JP6JeAZzP/94m+axz/8DsDdz8VgWwDPG//f+p2nu/d/6Knuc/9pr/vzz3Xdn39+r3sMca3xrHF9GnHN8qnTe91pxOgpxio8kJiNeEZZYl1ziX8psy7jHXMFZcbaM4jHZxC4EbOMd/KfBh/g32KZsYsYftriWmIalW9B52no7j1lsS/1LIYlSHV5ADslQVnKSrVlVwX/hMffKP8DESfaPEGEIWqbobQssq6rXAxOZrS0GzK+F9vcq2XLrqOylf3+teuhyeBI1oDHbUGVmCNHlFMaYIlU+EkYZBASBz5m3mqRJhtBDkgHWG7/yhV920xUB+H2Mq+iGwUvtrnXUX7eFslx8C+t6Hw5jP3y8G8CJ8ggpo6/LJ4eLzDLAxv3w/3r5Y2CF9vc6yk/b4vkMPjrl4E3AhNvpc4LdsEfYIlM+EkYZBBhq3DKWHv7/rXkafvv9toBau162fUz8rVscusvXwF6H/54JVZbdeuIKYDHt/QQOd0amryiiod7lStimfwaE9REDajKLwGglcO2tE1RML6Pj9t/188/2b3tAT6gqvXcstoXtkgOE39ea174f+VXrOEkwH5pocOW3CfNZ4e/vwa0tu94e++8rFquq9LJxV8Zf7c3Ofu8BehufAeAfWc6SPyl4ZlY/P+ff3qru/zTT3aP/DaOtpMBx7TNtbeOh0pdR2XLgb/7EXntRExHZ3vu+lrO2yJZpvnvvXaHw89CgJJLAzro3EqcjDtD8taidSV6oRFGGkUUQyQrtUYmeSv7s8F/ZxsPCuNqMpFX3AV82TjPczKd9rxot1TWyLTrYXcrO3EtD2uU+PC+uZ7n1TvVremTHH983ev2iPFyZPuIOlpZYzL4e4vl6j/HrFkaY5K7dslDNOX53//VZLL+F4+cyphnusgZ/y+4iF8n+E2AKfufd/reA+azwn+cfZ4A3PsmfAis2f/gAjdg4ThpP9lfR1Lz6D1FkTT+pLbwtA1yWb+0QPxxziocnmT8h/9wq/va/+ox0aNFauoRmDQzsBlnX2prnWE1kYVoRuO//ZYz3U+8Ds9bEInG/1niz1eA8kHgWfvfDuK07fMEYP15vM1s//ibJv733Pdk9wu/ip+RmjRt/8VcGGmMoxiiGcV/24Pb1b5+gA1rVFqmCjZExZIe/ytMwsbG1ukyeKKrOhUprMIvFAbeCiv7jnTKiY2lWeDPXwPWL6zjdYnrsOrGOTKgLUuEd+1QeW4Ga2FYiXZFIbTQttHBCqKyW24FYr+pg+Sk5F4obFExttWQarGhzNIs8HdbkY+xf8snXygfjAj0QEwSf7cuX/5dYPzXNza663wYeEr+Ow6j8lH4+7ctqnpjxl+mJBtDshDWQi65QHIv1PqLtP7yLUC8DUgOtukHu2zzn2/wlCvwIOQQCjKZAsAgjhlEnxs76CfpgOP2A7bLIu5IkLqMfx74kxknBKC/6YVf7P75H6ENyiwt2vxn33wJMBe8p8jpJZILJPeCss/ftdb9we/e1f2Nr+P9GbX/s8T/p3gLEF4Daj3WfvuWXba07Pg/+vHzeAYAJwDwZ7/4mxb+f/Jnz3R/95sf776A230c70Wa/z7WkZ+g8ZedraFeZiLmohV8PMJ3ErPwH1Zgu5hXm82VO+uL/wSr6tkNdcQXJHEiVmUp1RtULVabdrQyTJQ+kSVaFVpNPRRX9hPMx8CfH2+6jO8HEOFIjBIwnEesZTigwJHS62QmVYYJOJJ61SPashql3Ke8iZCAMc7+79/Y7TY2LoZ6OSoorKDoB9sTBvusFIvqwWLHP69iy2tdK7jpQ8WYKf5EbGfnSseTSEnHiD+NpjImbE9GaULznw8Db+Bh4HEpoalqYIyLv0nEP3/FusFfAeDt7bj+yWtAcRJA/3mC6+sLB4Dz9ZbcWsaBwH8MBq/oM3F7CjR5kpSBCiDIR3smUTl4+uYYFiWylI/tpz7zdPfiV968LfD/idff2W39uP4K4AAoTrPDX18DetPN2zidvPiv3gI0Jv6mib/fbkWQ0QWZN238u/3bcf1hEN5u/tNfLpd1Mq5kwxqiP24fPxxYMDamvejEyr6Myjzx5zvTeZvJqDSwW02qDCkfaOaWemxn0N1mN53PMLx+ynv6kNW3Abl9reS9OAnxx/vY1zfWgbB7lYAR0nH13ORe9FymvrbRw/MI+Ofbf8r4Lx7+Gxc27PsRAcRE4q+Mgrfr+cHwv4G3WTGGfepwZMbF60lbf+UXAJ4A0HEcvOc3+ggWBWAZLz43wRAmynXiWsKrren2HypQl5dfeXFfqtr4kM+DMvzbwv3RP/N+3PcPnthsDSdDy47/a19xunvwyjnFxfwX9+jzjPBvvwMQ9k8Y/nwI+AK+A7Bf/IX/U8D/h998s/vVj+P2H4b9uGQxf9LjfyQEt5H/5ioXu/5Zt66AeSFUda/ULoDOj3pg8DjCWhiJt2qs7PMgrEoGqGRl4/DqTixVMfWAu4xPSKrmc2Fo/OUDYm/DLwFsCImmlJJitenJGkZTlLrCGxBkFh90Pah9Xj2tDqDQ2ZMWfxs48OcJQJsyZgXcotWTQyS8AUFmHQZ/vs2EdT1Ajxt/0Q77KiEsG2cfK/71JGpDroS1QX1U/6u5kRtxrIlNSqLS6Hmsi5q6q/5O2P/UDTM1//X33nvwJWD86aE4ugWf93AgJJ/1Io0g4FV/uXqJssSXHeMTRr+1Qgge5IPh819PcGuwM/6+/t1z3xPdBz6MBySZBHPLhFaGsY8Vf2qgbN1+4Uzf/otfeLr70EM4AYBDxX66FAD+tPF/ALf/8E1AxX5CwICWrGx8WJYK/0/jNaDrz2WE0hFNQ/EHxKcW/9/24i921/6AE6afTjr+xHVcul39tykGaArVn4yNTIO0D+cgiGwa9QV+LuAS4LU9aamxUR0MN7KV/QqdGIiEbvBIHBd/fm13Y32dLVXtyqA2LB1pPRCULY/cWh3uldmpXmKUZH4uZ9oqDrA2NvlO9RtVy8f1X7pEW0jEeJ7xt2O3Z0lnBvyfF/68+s++DUXmIuJ/sLdfZYAzLeg71FbwTPVie8j439y8KPFb4aghJwbmHX/TtH8J3wHgh8DKOmaYi/9KV/bJYjJ8pB4fFgAj459PBCiRt2fZ+hPQmo1XveFm9+uP8KWE3nhpX01pjSQlW1Lpt3OMjyqiv2D7v//uBae7T374nPbN/NcVTlBC5xVFxVfpSeP/wLuf7O7Hn48hEevhqJALmJV94ZRNr56JFmH94ZeAL+A1oPvF3zTx/1vPe7z7kz9lbCMlTAWmVO7h2MgYF9KG4etZr54JFgF/6e+Czb8KxAbjCuFGNkn8Y8zUhllixuSACdtk5DuJXK7GkIfkbCe0HNxQ0jrGr7JUoPbKPqBEKAgshg1xcRL5rPCX+87tnfM0z6S7BN1mjtJpq7MPnfWaSQYyX2XWVik3XWm+WEqSQftyH/rOtjTDFng1sbQJEsVljj+5NxpuMBVUDCvjqDRtZ4A/r1wH0kZoFlztEIqLgH/+JsAk4y/iNsEvw8LNAeLfv24t1W+z9e9eHPxfuue0QYhAof+4WLDHd/Tfwi09DBwkgREkS7zRR+c4q5GjW9HDRmTyMwBkrJjjTy5EQAe5voZ1rXvRK77Y/dP/CS8hZzrh+N/99ae6zzxyV+W/3h9F52eDv34HgL8A2FhxDFlgOkH4P/owPwSmsR3r30D8TRP/8895rI5/x9ogj33lCcRfAwpb+Bb4r/wvcNgMVIQITE4CmhyKCpfxIcEiSPqOP9dRjWjTirlJ0tFOGgjnVrpQ9M99V/VW9m2R5HhMH/9r+IjSxsZGNTRecOsc0+iKFFyj5JWu63MsERGy7SmUuqMor6K3AV2EGjgaYCVvKqvYlFw3KiVlyBYh/vjV3y07CUu9E9L9pxuzxv8KHv71LxJrvxpMA1uV+lbZje4M8fdvApSgO3780Zvj4n9xA1+3vnHdYZL4XYT48zUmxm3C6y/fAMSTAH8NooSCoZD3MrIn4s3U8vEulfBLAEyKv8WUyduQUk27tYhCHoiZ7t/7rie6P/wXdguQ2abKScT/At5L/+gn8KWw5D/367PE/368ApSvAi1jZGPn2NugLjv+j8ovAPyMli8Pw/E3Tfz5ZdqcFGnDO2APoqiCtez4x5pcvLKQu739L6PNqyN2RjoEVuAGPbkqE4wxRGldJrjsL6hOPjOsu7oYs7Cyvwz4X+N99nI7kAyhjJ8dNulg2tiq1LYcZwy27qrJ46hrcGSuarvM9ZgzNqqMTEnKroXxMLCaUEXQEW/kI0VZCrSBdnId0Wo2c4x/Xqk0T6NTQ/6H0AkoTRP/K/jFZRu3//RSxhJ04E0+UpSlAOaM8Wccf3b3ugy5dEg2GWHSTOxblQmXG2WPELoWxIfB/7o/DOz1cz7H+JNuTNG+3gJ0BmYYIMTUU8If9k/ZPKBUQoaBlMaI/NwCxbewkWcJKGTb5sctXmWmMjdo7Fu+54vdjT8cvk9aqlq93DvhD22qTsAEKkk98pGiLAW1X3VctJrNBO1fwC8An374fOW/9jB3XDoXbL4JcJL4vx0nALwNyPGfpf+zxJ/PAGzgFiCNG2xtHNv4C6CnEP9f8uzHFir+Zok/4yrsLcj8i/7Maf7TfjvTE4OHazjgQKByYRTMlKxXJGvBslqGUsvXcsst1YpkZX9R8Y8rp2XYxlJc9DiuknQFbBh2ClEpeoWyJBbOeKp8E+DkxN/wPevjcXBpBesU8K9u/3Gjlpf5rAwtt9xSqUhmM/935VetTdkxckEsgVr6NIJdFPahqvoHxJ8nsfw163Zaf/kLwH1v4peAmcr4yy065GJfxAN+TyVWbJ5T5kzmVtSnAqwMHdmbyWCTp5Vki823vuTxbvcPeAtQsX9S93/8Mu1ncGBKX91/2d0TluT/NPH3D4GJSbGqI5LtnwT8/TWgetCH4BwRf9PEn78A6PTwSeKol7xITn78F68Ldbv5L/4WpwsQTo2WtZJUTqS2Y4wev5K6ySofUQU6rSSVE1lZ6PEraWXXCyOqQNxKUjmRlYUev5K6ySofUQU6rSSVE1lZ6PEraWXXC0NVeBvQ0JtovE7OdfdKDq9ec1EZkYpiX0Ev88meARfsRreRalZvU3GshpxBnRFsaW20rJWkciK1S8bo8SupFpqtV5ETALya9aD+ezMF1ungX1796T2F5URqP4zR41dS73KVj6gCnVaSyomsLPT4HX652NbbqgpQlX0pHCH+vJHS7OHw95PYgS5b060klROpysbo8Supd7nKR1SBTitJ5URWFnr8Sor7//1DYKULUmUQf2ssAE6NJ1LFYOzhJiF+R4AMT1ZX1I3+thc/3n1WTgBUKTXltSxvJamcyKqVHr+SNu3vJ2sbS+VEVq00fD0BuEtH0vy386Hoi1SZIv58BoC/AORhCeMgmi4nUStJ5URqBWP0+JU0tV3IEVWg0EpSOZFu4dGHz3Z3fwMeAs6OGuaiPgP8z38NngHI9s3NXneL+z0vi6itlcqJdP/FcI9fSUvTiRpRBRqtJJUTWVno8StpslrIEVWg0EpSOZGVhR6/khajiRpRBRqtJJUTWVno8aMVk9RZ6kYoCm+gnUq3FFzTziZd4GwvuzMr+yPnSYYs0wHhIOGak8f/Ak4C5IuqQ3bzIsMu9JKtdshGHtDKTocVBxto91O1BbQrtwHduAG+2uI1LlKSHBYvL0H88SpcTupV5iQ6qw7CZ7WRHRf/+kQr9UFIB3ry8ZddbK2W8v7248vApZJSx4y/aO4Y+K+dwn3ultwTFjPt8uHcNRcXf+239vMSrv7fxy8BI0m8k23z3z1xjl/Vz/wywanFmpDiiEsvPOj8V32Pf/BwyVX0WBnCb3/p490/u25vStFmrC1dSbTdQieVAdJ7t5j48yHgRx/BLUB03Pz3A9RZ4X//Q7wFCO+mN/spq/B0JMnMdKXUK7jm/PHnLy084dIejY6/aeJ/lz8D4LAEXsaos5CSyFUyXSn1Cq45f/yXff/vSLZj0YO8Ynit0fg3klwbIi6ezZ52TIWoLD9jWT3vggq9hFxIXXQ56ftpZX/R8eebgeqHP30UOaD2szIoLbmsZSRpIl27ZlnJmZ67cuR7OAG42PEqqkeciry0XPEXV6kdSffb8/DbCRW42HOXejNaTtJEum7NspJlfO0nvxXRpmWb/7vX8JpbnNDWuKhX4/wf0s+1vK7ngVPFSIVEUvfixU380nY9qpE4yesvbwHiSYAmXf/xGQCZw8rjoTze++MnZw1eVtH2W7r+8BTKTxa0JVTiWS8F0o6VWRnkd3z/493vXbNbgE74/k/fAsQPgXFdVP8L2LPB/+pDN7urD/IEoE0na//P14Cu8y1ADLIx8TdN/M/jGQCxTyMc8jyPWvihsOjHH70uG2PZ9j+yH+k5Mxv8GQmMSDUvQVF6okV0BHLTKEJSUnuElJWZBiuqSLfJaCIp0+LK/giEFwL/69euy1dp84hyyH34ld9ySjkoJzzPDTa0qoxWpOQG3qIiHwVjYWxKQZdIVlmU+NvD7Qs5HcT/WeC/c+VKt7O1M7w6eAeWAH/5uBpOAmzA2+DN0As9K/z5DMAGTmQXef7nt4NUQB1h/Hnwf+kNOAHQicdb/hFb/fU/8IfC2i2g45dNrQMir+xrjTJ4pewfF5P9FE4KvvNlT3Sf/qy+BUi70bcffkJhkv67397+tO3zivSj8hAw8CAk+WwJ5Vngfz8O/h/ASYAkddjdNzhOBv6/+/G7uo1vwFuAJPRkI3628Rdnq1PAv30LUA/0E4x/BFWPSE4nkmpaPBnx13PbGO5jHKg3GAzXg1I5bagKw/oNN5+hiSgZTWRTKxUrk1UhKY0mV/Yx3FyDPCXQE+nSfp4gL88D+KLmeb8aOSEVIkpJ2XnMmaxHfq+KiyFJZCop1++hZgttWqbx16v/l+EsQYcnyelEJkHNbX0PqRBRSmrOY840Gn+9/Yf9gq6ra6Wx20XEP34FCIDdodH+U4NSTV7y3Pl1HlIhopSUnMect7LpL1lJQYwWyE8G/oRdHwLWLwGXgBrGn1y5si9XU1FZFjTTxagI5VAm8Mjyi/8St9T0ahC+6JWPd//09+w7AKleRbIKTQqzKlRqowqLEv9348u0n+FrQJP/ctU3GPTAhM36Q+4k8L/K14DiOQBfP7wro7ATPpSWDf/f+Y27us3n3yFujou/aeLvJwCLEn8xxmnQExniHrGE4599WCT8BW/tkEGvHPSXy5vxcu+DHpChIX+HMNeLalJH2QnkQuIaD3KeCUsFyYxe2S8gBu5OOEZeRj4n/Lfl/fTbqSNK8qd6PUjkL0i6UxYJd57oPj3QMPNY03pD22EN53pe1/T70wWpgMsJ5EIudvzpW2o2YjbWHrrfnjfSKeIvH1zDuFdpTvEXfTiG/S38krG1hROtEWkEwtBO8dTUnUT8jz6RdbvJ6DH8X4T199I9+BIwbwHyfUFga8tEclVxl0NQcDE6sqDo1TqqsbiH+4e4BvAXlFuCDSUU2L3/hJA6+AbAHr8rAL3vftUT3W8/yhMAH3HmQ2n58b/7eXgL0MfPVf4r5O6b5wWNgoSAh6LpHBH/q++62T3wHjwE7GMuzbldz4vVQg3IFjj+P4UTgBfgBGC/+Jsm/s/6an4HwHFDLuRi7/808sqoF8r9KJx5Hf9EDxY4/nx6teM/gGJRccdCKQiVaBHbOB1vFKwBXYIRaCj7cpppt+N5K4tyEKqpRWxX9g3YBiADdBb48wrq+voG5yD3r5L7eMa+NBg14bta4UYhiFp5oOSabtdz/x7ALPzXwJ4s/uXXlQGnE2uU/6HiCsGoiUochSBqZSvpgRXD7mTMv8A63A5i0P/MdE2PO89DxxWCUROVOApBdPqVWtRpwkuLJwN/IuJvAZI1JC0a4XYQUAY8qqe3AMkuAHu5tTW87Qc5XvijU5KwoSzfYUAd2RGSp01gq3oss8KLf/CJ7lOPPh11yQ7dIMh1PphLuv95vrwGFF8CNl/c6VnifxVvAOJfTg3MJwL/T/3aue4b78YvAHQOKfs4K/yfhYeAaYsp21dO2bayKAehulrEdknj37Eonme/CjfcDiLrLbf/tUt+9Cb+UYQkg6tqRRkU+UyOorFYDL0gRLO36YlX9oFnApSILQn+G5t4NSjvo+4ljwjb0aLIRZBjP5RUu9ShTsXrHV0NtaK8nSt4SBUPKo9Kix5/fvvPUf1XvwuWQmFzXPx57388/MtGmTimbFtJXRZ6AItmbHriOc//3et2EhteaFfVJ/PsEPGXa5OWFrA5LP58DuAG+lbwMrC9UebGsl4uJf6X3nS2u/eNZ+AKveAVeSQEFQ/o13DDiZzIC/56tb4NF/1AJbUUayUckYw/T1tNr4hha617yasf737rd/gMAFthBgUOGPoU7ZIin8kyZ3lzwi4VVLfZ9sStQ9Sfon35EjAeTnVX6b/8ajVD/O9/ECcAvAVIfAUiS7r/22/8P/Ux/AKwjrcAITD8o4Ay/h4w5v808fdbgBRsHXaJ02CcXPzdxZzPe/4tgv2qD1XBkBriUVStVbKCIJQGlRMTpEwAny1sKEVg0qRE0hCPgpX9tFY68INgJSbIaeLPA6gN/ArQT3mV60sLJ+kFGYSo5ZIfiwkvC6xBvX3iIkoUIk3Zfx8GNebbo+PPnYH2nW1oym7u57/Xadso/JZKrQcZhCizdGVnp9vB239iX+2OJ1dLy4kJcprx590otkkd3P7mxnp3zd+6E24HIc3m0qzwH/oy8Elc/+7DLUD33nNWh8+A5smAHK6jzONwx5+jKm8IEh4O5jkYel5Q6pMiUP5kJUiJPzaE234kWUaatr73tTe7T/62PgSsPLUpumlzEvCX7wDwBMCSYy1FA9p5gptgrTNKUIWO4ADkjor/VZ4A2C8AbDMNh3RjiEfBsuH/T/7RXd03bdoJwJj409NMAwLOTxL/88/Bh8AAsNggwZQAH8J6iMdqy4Y/+8xdwcr/evx1fNtRbstEjpFSZ4JpbHp1QuLVhJHVgg7C6rRlb8H4PTGrDTK1vSwapDNzsC1TqDNt3LdtG85HnkWDdGayXlt2hvF74sE6ZGrK+oN0ZrJKW3aG8Xtiq8NbgEZ9G4DrDBczbVzXHVmD2FhKRcN0kqwm2xZrqZfKrSrKyX0POgir1ZYP6H9eTN0+89zcIJ2ZVoG/XFze2pK6ua1CH8x/12+1paxMV5E8szKdleKWlMxsfUiyLBqkM5P12rIzjN8TD9YpHcj6g3RiXtvd7TY3NqTyKP+1ZZWO1yl9aLWlPFA5szKt37W4npfh0jip5EMtqEVZLeggrGZb9saN3xNPyD4fAr4XzwDw4IJzyf3ntXqeBrgZkdniIcf90LeL9KWSaOuGzenTAnIqIS2xNZ4DSD3XRfllP/pE98incAKg5kxiHaozr6W5yWpmX5TVgg7CarflKeF/4evxFqBHygmA4op4MfuEgOQ08b8fV//zQ8CCwIz8DzNBTA//f/zRu7pv3jxlWGp4DcUf43Fa+PMWoOxq0EFMz3+fTtlU0EGs7M86/g16HwHNvWTDgSxxhOSSwCDGggoiHuDJvTc9CfVMszWpQ2UR9HLnUkNT4gi5sq+ILB7+Q1etfRQ1992K5zW31mXJrgBy7yTxIiwjE4+qkQpfHgS2mJFYhM4yxN+tuLx+PP8DkiAcG89VUJdCGURtX7/8u3Ni578+0L6VAKj9F0GAFUTSJzmKn2W1Tl3Kzal93gLENwIp8Cdz/buEq/98EDit9oLlHi7t8xYgOVr39R85Hu3FXMbJAY+a5OcY4kYF6MokF2UykZz2kwAi7j8ZxHXW7uU/+nj38G/VzwCUut7MycD/7ueexluA8B0AYONRTlQdKQiQKJke/lffje8A+IfAzHJtn31IHCGXD//f/Mj57psvaryx90R1KP6mif/5Z3+eYC7F/o/olLT841+uUCwW/gnZArdQoyWNYlvsVwyOLMqujyEOgfNSPk6W1Ppkv2JwVva5vliaDv78cBHfqy52CLwk2JJLG8hoNvgUgiGBIIqp2PBNnLNao+zCRMeEvHLK96mzqCuftwBOBIbzUj5OltT6ZL9icA4Yf37vf4VL31CD3LD/Wg2+zgn/lX0iMBn8/aF2xXTUNqItFIJzwPiTilEpmjkg0a8YnH3sy1uA3ohbgFhBfqsnUWaBzGHh6IZl1WDZ49+sJaEcbjH+8WQwP6khdfCwsFJJEW288nU3u1//TfwCYM2w5cOlfsXg7ON/ZScqVdwDFPoVg9PYl7cAPawnANowsLB1Ylb4lxOAxrXodMPft9ivGJzG/7FjHJX2Ndgo9CuS88kPn+v+/jfhFbf7xN808T//NfgQGMNdEoh+V104Xla0Bqh+o8GZI/7i9sp+b/xjbAZGEiwTS5Zp1S6VlSrl3FotKzqFyto1bTqSZXplnwgUBJUq5YxiLSs6hcraNW06kmVatUoLSnG7jtsneBsFaU+cfK7LnTFLznMdjcxSy3fn5Os1u6IZVL8REWW2HzQV+z4HnBOtDRCmI1mmVbW0oFQp56ZqWdEpVNYmzROAy3glZbrOVeEZ+tnRYLZIlrKq522q1IxIQb1QWVvolX0N7AaYFhYvZ+SdV6rWnIJ6oeTXF355mapIJYLqGFOpb2tZW8e1hnPTlizTqt22Vcq5NeW6zPPce9eWtwDdg9eAIqnXvGKKt/rITLCapYF0jKpMF2UkOYfYgrbEa67asrZpQJpF9ukH3/BE97FH/BmAbDPTUmHp8dfvAPgtQBm12eE/9BYgRZfbjHmmlw//f4wTgG/+xtP7xp/7Po34v6u6BcjwdIODecY808uHv3vrecTWoN/OzD5n+uT4X/DwyQbf5EQJ60ESVrRI9GkKR6rJc83UYKNVF0udlX0swEuMf/wKgJ1tXNGoB7sq+a8C5VAH4rQ/UjJtk0wUpYz4qfg0sYf7ufEhpd+/AZLCcWlx4k9uo0q+KJm2Sbaf//PGf2UfccXQGpMOE/9ySxsbPIHr7733nO7uw21AMhMBitzegznMg3UeuBNIuW4vV/NRJosbEaGW5OSxBWoiyRVtaVHbVW61Vfx5UeJW95p7nuz+0SeeWur1V/0XcNRP36FWXnedPAT8CbwGFKqKtb5paZb4X7r6ZPfQL/AtQDpG7KJ3t3CyVDTAQKeTi+SWlGuC6w0WhQGq1HH1wjm+/Ud+5Wz3rd90eueIAY0AAEAASURBVLDLs8K/fQtQDULxdhr+L9P+93byP416nlPO9rwOFS+JlBtPXEhAc1567iLJjTlKVua0a3hetRIFkXLjaWU/cB9EzpijZJPC/7P+IKUHQkQEBkp4IfCR6+c9lcywU4XMihbSaQTkmxc3O74NSNKM/PduMa/SAexv4er/Fh7+zZBpG94qSwf3XwIiNybN5LaqHpZCTyUzVvblCnKGJJCr42/S+PsvWjQn4cSNJ/THQixyF0l+gPijS/u0IhqhNUH79/EhYPkFANftca/E3preM60GM9iKsTxESRVP4r88GSBX/HlgpUBQYB0VUut7Nc+p8Zo33+w+8hv8BSAqu7iXC5wT9H9S6+/InkuHy+j6CYA7ZmIUZ4f/D73pZvfRjz8lnZq1/+635HB+mvY/8Svnum/9e6clrMrXfqsepDk7Hfz5FiCGdRnnZH/K/jvGK/uLhX8MuwSFRUbQGDX5iIoshiywrEsjB9TUSVa0MBIv67msNKZS2Zpi0GwDV3C4XEuCYGV/8fGPjyrJuHE0tc82vBIrwqw2utvSrQqCDsIrJIaQWuaWSS2S2sPrKq90Oziodhm5mjyYtFeyVVJjmTTSrOPvFr9MqqYLeuqecZklhpBa5pbJ62c9r+G5auZtacPrh24Qrp8YQmqZWyavv7JfcHLKc0Uqb1WS5UEH0cnzLBt4roWJOFPElGnlFN6QTKSymKpUtqYYNNud4fr7VrwBiG8C8rej6IV+9EZunMZ+AKR0WS+Zqs+CjZyO+TX/iD/dc/AmIH8LUI5Ib4xyNoK9DE4SfvjHcQLwa/gFgJWQZum/2ERXaHoW9u9+3qnuMw+fr/wntLPE/4Xff7P73X/2VPF5hv5rMAnaU7f/GzgB+DacADDSNLSwtfmX42+a+PMtQCUV+4x9QUE2s4s/939lf37460sUGJUaAiU+Dk3pQqsH6xZJVZvOqxv2n1tW9ofxqdEaV1oc/Dc2NvFRsGs6pN5lWfl8+bO8zrgONHXAsCt3IQrCG7a85VtZ31qzbQ2TWadFir9tXPnf2t4qHbQDHTLCvSCKmlAtf7DsTMvrLBmxtlf2jx1/MUqC9WTwr37VCgOLM/91Emdf2cnh9S3Pv0v4CNglnAREOlT8wX+YiP1P1GU/kOTsQW4gYgF/otzxRwb5noCU97rX/eTN7kMfwxXpQ6flw/9uvAb09z55V+W/DJP7HhgGYolwJcuB71Hw3/yOx7s/+p+fQSPD8dFYGVNcbPw//kt3dd/2Lfy5yv0cjr9p4n/+OfoWoAxinn86uFl6GHqx8S+41z7d9v4DDlshFRgPzwomZyLXK/DK4JDH1fmmQiXx+pXOcGFQ1ZnIV/Y5YArIIuO/x6t2Kcku1/a7hZ0YaWdT5GV/kzSzWOgiK5QrtQ9OOn9U7qFWyZ055fjTt/9sVabdI88roRWKrFCtnkh64sSYEv7ej5V9XbuqHbwfiBKkQ+CvH7jbRFPVKutQI28kHr9JYxQ5qOrMKcc/HwLmbUB+9Zt9lLiBXfsRQOBr1z/ug+ixarMWX1uZ9kysj4a476Ba0TQGqxj+b3jrze4XP9qcAHgF1kWV1j6r12k58NeHgM9r181/8Y/+WhKEUJ4W/n/7+Y93/8eflH2FQ+32JXcm8mXF/9d/8Vz37X8ftwDRBzhFXHXLEklwcDQ6TfzrXwDUbLstfUsSZyJfVvwN8OTUMOmuVlJnnkD/3bUUlcYqEsFCihWv6PnPpM2yl9qs4NQCqnu9YoBUaTcPmnBNFA1QIbWzsl/t9gJKxavZJtxEEtgaEeWEdsUrej6OGf9dPAfAW4EGE4bNP4c+Si5h4EKuljTXS31By/GDpV5VtOf9Fln4VvyaZfxtbG7gV5Nd7WbrRFsOZ/qCPieUCwGlWeFfjCZqZf/Y+K/5/fEpjvP8E7QjphP2TqZ6te584p/zm7f/8FsAcjDEi6UMZibkcqWOXfOL+KzAo1K82pPzWJX1jT8sSXK2lz23+Dtl72TJum+49GT3ix/BQ6lNXSlWPCsg83Vk2fC/8PWnu0flOwBAIHwDwYPRGeH/X/7NL3Sf+08cYPQBWRBRJs+4Fc8KyJYB/1/7pXPdd3wLTgCYxsSfeDol/KuHgBNu0qfAtuAa8w8Kwg0d1ih6y4C/+Jg36L73W9jhW/HrdvA/ud0cPMYQh4rCN4hP0RGqFD1Mqro5eBzk3uK5sm/YJTCJohVrbikJVYquPnP8+SXbrctb0V/MNumDXKsjiT5apn3jFgz5pd45dlXEi708NaBkYlAZxes3ruMDSptaNXAxIsrsznzjf2d7p7t8+fLE/Y8AmBP+K/sah5OO/4uI6V1/uD1AtulWxbXOM5kAwV+8+Of8uxe3AMmXgHW2AjJcxfcTHfLS9BYPvIxFQ05ooS/3tLqfkMdP/Ix/8PnRMO74OR6asRGK8J4h1H/j5ZvdB39VfwHQZrwxUZM22I+aW0pClWKtF3wjosz2Zr/+PP95uAVIvgNQ/BdM3NUp4//5L+51X/F1eDc90jz8z4Mzbfsf++DZ7h/893gGYJ/4myb+55/j3wFYjPibJf4WZLYYrvwXIABDQYILpK6FglW1MS3XrsEsmq42xFFZ0SgUtVFaAPsb6xvljTHFiUDppPs/yfEfup0lQyo0480DgXlKLlJWKiUyqY8k/RcANePGilmtCP6c42/wlqnwKjmdyBAflfC2PE/t1KxUSmRSPxrpbXmeWqlZqZTIpH400tvyPLVSs1IpkUn9aKS35XlqpWalkpEe16lKTKXCa+O9Lbvm/OOf809/AfDvAOgclR7K3GQfUYpfALzvJS/e+fwuh3UqKw1I2WHlUZc8+dp1b9662f38h0bfAhRrpDZYjIPqswpHqbbs1cGfw/rzfDwD8JlH8B2A5L/3yKGR8pTw/+d/9Ez3jd/5uCI3B//po6bp4/+xD5zDCcAZmNMAlkhwkGeE/13P5smWel0ikQhM33+1V6wWamV/nvjHODjR5hweJuXnrfIp6V+7cH3XGcjdkIm82OZeM1t2HZUd3z5fvcgHMLlT5ZW1mJduHPk07dOM+9Tm3oVls7+Dh1kv41cApown/WBynpba7YB0gCW1hJ+EQSoxdKAk9RxoM+3FNveeKT9vi+S48e/x5y0OohN+FS2hhJ+EQQYRWBfOoIXUcNY09gBrZR8ICC4JnCCDmBr++krQG0u//jKOOLPeiluA3oaHgP2efiLoSY9B8/wzfHHwtIav+up9+dA2ts5J6oMFnvwSAFo54IFgm5605a57y/bN7n2/bG+lcSFyleetC4+//2FLbr/NixW6Nln7/+1/fUd347f1Q2C1XfmdVqAM+8CKb0kqvTCgj4E/f2m5576bYqK2X/AI+8my66psOfD/6C+c6/7Hbzu9b/ypb9PBv70FKA+wY9rmJwV/9yNyd9QYXmxz11d+3hbJcff/bKm16+Vipcy8Wna8+I+2CgGKK6Z1il2T0rgz9Oi+d1fzXtfCSK3HUojiN1vlTdO+XqXGbReyiFmfT+Hmx9vE/zwKk8afXwS+jucAGLY+kjXt1rG7T/hn7aJR4oP9ZHI9z5Xb316/votbgC6qIJzs64VohvHnvZBXf5pjQ/44z3PWc9pzb6ufZ41Mu+Z08S89pb2V/TIXjo//DVyw0NvbInq9UckXff3NnaUHP4kTgPvejA+BNeuvXDPF/kcO5K2SR5Lm4/wvPxnI+9e51qANnmT4qsL1B48SCOctb3+ye98H+WEqH6mTu//7a3/1VPcvb/BDYMV/HuTPCv977nuy+8CH8+1WBJ0DwbE5Wfj/Q5wAfNf/cIfu6+DbqPibJv7+HQABt9nEDDqh+Iu74WTjPIohus38948tyuLXg4WoWNLjf4VJ2NjYPC3gia7qVKSwCr9QOt9pXKe8W3OjpTxJ+3Lgj/vTse5J39WK7hA28QpL3jcuiR21NEn78/Z/FvbLtwAcQc0VZdAc8wH8JRAIdoyM0cEKom54REl+Abi4qcYsymbhv3THDUnuhbTYQGlnZxv3/m+Byn5mHzOfrWYZy4dLURvELPBve7eyb5E9Ifx5AsATAeKqqcRZLMxj4o/7O1Yu9b0d5JRZmsX695NvuLO7zNeA+vwX++wZDkpxHC9XwEHIITxksv+BOPbZos+NHfST1OpgoYB2WZTnW0Ew/nngT6YfkN379pvdez5otwBRZmkW/rutyKds/y/9pbXuT/+XZ1X+K14GmthXehr4f+tLHu+u/yFeASr4h9eFmLL/NDSr+P/I++/SEwDYHBd/08TfXwNKWDmqTLPyXyabWV3ZXyD8ZVWMcEBJwwIcDxFhCN9/AlRRHkYNJD8h0CYgrxjajjUva7xaaNoxhWnYL/el07J6mnolpN4GdPFE+h++wnXdoZEzHfzlrTaf3RVD+oNmWAcxGn/X6mmAkQ9YGVqyeEVrqYaTyHeu4PYuPGBbpRn4X45KKstaSPZLTNZ67kJwwTiK/3rQo1c9o60Z4r+yz5Vsevj7dy7iINgHucdwAfIUf9Oa/weN/2z/La+/s9v+cZwAoIO3MMF9frPnXK9u8Y0/jF3+x2TgFX0mbk+BJk+SMlABBPkt/uDpG0CozTraDkv3PfBk99DP40NgiUe+aEmHoCvqdb0e3D0GW7GEquy6Wm3aEZX+TQXTsH8nXrj0//3v/xksak9omna4nTb+n/69Z7rvfPkTZrFv/6Th/+H3n+te9O32FqAx8TdN/OMWIBhZhPibd/yv7Ot8L7NPJn+Zk7rooNzXEM1xa1zbtAY2mpJG3dCI3HQmYZ9Xovm3hXv8xQ+3zzwYpHQ3Ua4YmweuP9DVZfDfuy3u0uMx/riu7xNFdYz+OP/lY2C7n0WTbpnGreh5MAr+0Yd8hB/MQvh4FU6m3IB+CZgH2d6LWfl/0Pjnm0eYev5MyP9547+y75Eng1zCQtgep0cf/5HPuPgklugqo7Bo8W/dk+zHf+zObucn+AsAivwiNhYY7y9ZOlO0BufLKVmAar5L5a0+/ksAmA73Hi+/4gcCrWr4I/PX4l7+6Se7d70ftwCBJzZbw2pAtuPWP6sd2mIfJfcnBEOE2ZyF/Z97x9nuFS85E/5Ld2h4yvh/84se7/7gX/ADYANphv4PWI+hmyT+H/65c9134wRgv/iT/kwJf54ALFr8zQp/Qsq08p8gCBSysanGmO9fddAVMC+Equ6V2gXQ+VEPDD2+CUmx3FCTtr9xYaPb3tnq1vFmHyZb6oX2jfAGBBv2s3r4wfrigvrh3iyy/7IDQ0fnif8u7r/3NACzjsmAILN4gMwDAabM93Y978mMoVdId6y2a/fzScffQfCXh3/9VampS9mX4/rvzeY2K96AILNW9o8XfxXWXrBccM5gZ77TB4h/fRj4ui9X5QBmjvP/IPGf4eD8e/PrznQ7b8HBKGiZ8ew/DkTls17iC/hy9VTXY1l/7W4fwui3VgjBg3wwfP3TE+wa7Iy/z//td9zs3vm+dAsQlNiXk7r+/+X/Yq37E9wG5P7D06ni/6/+eK/73tc80f2rP+bAlVTsF54CfzLw/9D7znYv/gd3wDmJbHFyKP6mif+4D4GddPyJ67h0u/ova5sAU6i0GBhkjUyDtA/nIIhQk4Wa6lhF4zQjtSktpXLSEpEvBCxQNs7+hY0LeKPPdseHUGlLVm5WyYl7BTuozGy2SwsX8dBoPng1k6K6n30un22apf+LYl8fAr52JPwLfjoeWs60aQywfAxVhF8Atq/IbUAszyL+DoM/D27q1DqUy5m2WgOs1v+jxH/pUzaQ6ZV9QWAAknng778C9NZNG6ZlWX/e/CNnuis/iYeAZeUmuAawLPlKV+svWUy275B6vFld6tuW+5x0IiD7n7T+W1VrY6+78jNPde94b3MLUChRTQtuWuzbRuwv4fr/d/7mqe6lLzrTvfQ77+i+/Mt4uuV76cnh/+/+/V73Kx97unvw/Te7J/jin4SpwJfKxX4Aq6Eg1ZYT/1/+2XM4ATijyI6JP42wyeNPk+fxGlBv+XbDX+brDI4/D7P/r5aKOcV/zDW1b71gxuSACdtk5DuJvNxLVtguVzVXZkWkqGP8KksF6h7CPm/z2d66jAP/Tdask44+bLP9fspXObnS6MejLh7KPlu13geh5eCqYRQVM+NXWSpQ+xD+U91qB6Hl4FJFZLOwLx8C421XTIfEXyux30isyw7DO2lGKGyQCtd0jaNS3e7sXMEzAFuFBdVZ+M+uKPK6jQ6Y/S08l7CFeGVq4091WQ9JnCyekmWSA/lPfVGUDnlN4cZmZb9c5TewgM1y4V89DMyu7xN/vMqelOpY9TCZ8fpzz4+c7d7+VtwnLfaxoX0cuezxHf238KEuWQcgtq5zVoCLf9phXSHqdUJkPPrx+IdqzH85EIMEOW8nou79Dz7RPfAe+wVgxv5XY4Iez3r9/6qvPNX93f9mrfsrX3uq+9rn4O/Zd3R/4Vl73Vm8KfTc2VPdnWf3kK91d53rurN3rnVn8QzBM0/tdY/hVf5fxN/jj98CvdZ9ER/4+vf/z173x//2Vvev/y3yf/NM97+B/qLd8h/4y5jY0EhmA6vDOXP/p4n/L7/nbPeSF+I7APvEn96fxsGH4oTjXz4Elu3fRvgTUUkr/8v6JyueFWUN5TpZCAXMWPmzycAwVeU5BMtS2eooJ5qyogkji3ZYN3SCCD3KRtnfWN+Ud/hf2FgXfdaOrkihNOOU9zTEZMjOxXYh7I68HsJqjLGvi/T8/F9U+/yuwlY+8HbwkR8Ef1GPAUqVR5BVm6kgtwDhTTthNNVn89WiL/WUm9QkNkfF31HxJzY8SZJEu038CX8C/quBepvgUcHK/tLjz68C8xsmmiyGPZQ9r8PAltxGtyzERRsqk45/Nq6Wi/17Xntn9/Z7y2tARcF6kfcyXKX3eDO1fLxLJfwSgLfJOSkT3uStS6pptxZRyBMB0337g091P/WQvpveTEtHZ+G/umB9D+MgwFrZl1EXVBQhAQVjlyPDQTMMLWvHv9ZqdIeUxdTx7P/SQ+e6l75QHwIeF3/cH/lrWKUr1tns5VHjPx4Cjjbnt/9jFxT52eBvy4N5rtnKvo+BjAbgsCsiQ2AFcrhSIldlgjGGsLEVDdB65o8S+cwwE3QysHA4+7zFhA/2xq0+bJSNWdtsPxLtwJhOInJdUa8e1VVUtrnJrwLfiCaCWBD/2ct9Ex1zRdCBtzkcZTZ0SPy92VF9qN5uA+XD4q/tuhV0mGTJwqyyRwih5fdHs274OwP/pYO0k1xw+xs4Wd3dvS7CHJVSxx2VQqo8wkVljxBqg9KHeeHvbqzs55G28cJYZ+5xx9+flfFhl7WQppgWKP6lX+wS+ubd4/rzxtec6a5e4tdS88SxzhtkfBPdKeynvJ7sstgQ61hmNUKH4lvYyLMEFFJi6/gtHkDSHDdo7Mq7bnY/7b8AiG6zsXo0tW/KboAOf8lHirIU1H7PddFMm5V94FbGPyHTJxcI/w8+dLZ72Xfx+Ram0fFXgjhHGGMD1Zhh/I8a/1+CW4CkVeLC5lAIKxb/q/gDMAGKwFRvTtj8y1NEHC0MHi5jollgSMxgwwW3Slah1KukvXhSvVHaEuOG/7B9PtTLA3/e8nPQxC7ToiTvf8WgpzohXJH31cpXgRfM/3njf1D7u/gImI/RUfC30Yohi+HKggPQ+tN+UdTI023hFqpIhuPvoP57i6U95bC8tYXbf7b19h9dbfrx5/WZV/hlwQHpqj4LTOyIJJXKtlJ0+cr+CFgKQPtQVX0WmKaAf/UNE7UiZtykm+VJh46qKaWsSKYX/6Psv+GHznQ/9bazvfVfbtEhF2txnn+lrwqnyJzJHImZPhUgRTvoAZdHP5KYl/m3/TNPdu/8WX4IbPb+szve/ZX9k4X/B999tvs+PGehB92j408ONxgIKf4mFf/8BUDjq0SZmEqbIjlZ+LuLK/+58udRRrkUHaaSj5a1klROpLZkjB6/khajifIqPJjcwhtT1nFlnryDJl3eqT10tS21UhSFWR6s239Xqa14T1FKZCXr8SupFprtiCrQaiWpnMjKQo9fSRvL+8naxlIZ5O41PQEosB4O/6oz3LPbyshgpaWDJr0qan2zrK07gi1qo2WtJJUTqbaMYRkX9F4qQPVE+sscKkPnsP6XZueD/8q+x+v08fc1q7c0OKMXl1V09uMOnBFVBiRJM5GVhR6/knav5wnAfbixnHqWpMrg/LfGIsBS44lUMRh7uEmI3xEgw5PVFXWj5TWgP6dfAqZaasprWd5KUjmRqmyMHr+SNu3vJ2sbS+VEVq30+JV0ZX8AgRGQQbOVpHIiHeEPvOtM930vvnPf+OMaP634P/81jw0ezPS6m3AYLWslqZxI918M9/iVNFkt5IgqUGglqZzIykKPX0mL0USNqAKNVpLKiaws9PiVNFkt5IgqUGglqZzIykKPH62YpM5KLxpzA+1UuqXgmnY26QJne9mdGbAvB/4DV/ybeRItCUGhJ7bZS1Yb2cgDKux0Ni/iq8B2G1DucqZ7TVcM1zy6/96ct8Rypl0+nLvm7O3HG27YhV46GP7iqG5GtdDjC8PGn2O3eXEDrNn7L/2IkSr29dYoXv0HMPvEn7o+CGC7n1BzvjX/pThYfTb4r+wDgRnjH7e8Bfg61rzGHWHBPkWBisaoM2nBN7lKpl0+nLtmiX/Rc3ZUUsaP4QTgHfgFgElOksk2AHMV0n5VP/Nrn1gTUhzx621W6r/qe/yDhwsLosfKEN53lR8Ce7JtiqLgZZo9HJ1c82D+uxGvldvNvExnnT7tmiv7847/D7zrzu5l38O3ADGORsefn6BOI/7vwi8AkjwsImCMUWchJZGrZLpS6hVccxV/846/UfabkckjCBEXz2pHoYuqBnDWrWm5WGv1PARUw0vIhdRFN1bW1Aw/JLWN2yQu4JYfqmryiYNSasqlJVc90/bp1oqt7FooJpLCGzeu4zaWTdPTbAxgoTcJ/wXpOeJ/XPu38IpLh9PzAKhipEIiXbdmWcmZnrty5Crgg5EvwIORLGlKQSMkJM5ylcinE/97uBIZwIit5EQivRs1y0rO9NyVI1eBiz1vxFZM0kS6bs2ykjM9d+XIVeBizxuxFZM0ka5bs6zkTM9dOXIVuNjzRmzFJE2k69YsKznTc1eOXAUu9rwRWzFJE+m6NctKzvTclZHzV4CLFxHzlCHV4e0l5EJCyVmqnrbTif8I/gH7r3sVTgC29QSAHeP+h2/KpaomHsrjvT/yiwA4A/5TT/db3OXptwH8ZCGc5VUfPEMsIPGIi2UmkG+9erN77wf4FqDZ+y99iM3K/jyPPyY9/j//M2e7H8AvABJkY+KvBPvk45+vARX7NMKQz/Mo4s6JVfydpPjTUZVBB1nGnxRXwFpuMaDqCATITcMkRSG/naASsjLTYEUV6VatCG1kvn88azrNJnV5dyMu0VzlmddySjkoJzy36mt4ifSs/feeKxyzx/+49uUDV/jVpqQGVAkKHbuQOOF5qdyjVGW0okt2ruyUN+30WnGGBR2LiSzFyeFfHoz2HsZyXIgi8g72clUZrdiXtJxSDsoJz3tWC0NVRiv2JS2nlINywvNirkepymjFvqTllHJQTnjes1oYqjJasS9pOaUclBOeF3M9SlVGK8ptbzq9jrT+ukGdDpOLf2+3zsuk+9FXn+neyV8AjKV3/fXth/+8en8LqzN3YSmJvPI/YSVkKe/hYIw7elmScFLwk9s3u5/9JX0N6Kz9d7/dlZV9Dkt//B0f4jWN4w9vf5L4v/+dZ7uX44vLuusbHX/x0xZUJh3/7VuA1E/1UuhEsjxJ/9XW0DYZTeTK/mzw9zGOHUUzBkMjJj3zNbMpDOs33HyFXETJKMlr8gDputUyIc+aXY85UplGuVRzRTFtQipElAY0KONbZC7KVbWk0LjMfkFX1Su1UYX9/N+3qcpkVRhlsuJP23450K3MSoG+yfAJEaWk6DzmTNQGfYTx168Ab7ORKk3b/8pYKhCXyzgxmpX/yXSQjm67IwqFmFXHx7+0WaiV/enH/+CaVYZADyx8eMm3KdaQqUZDQr8seVWhURwujpp/P/LKM927du5EBKYOOd3Mf2rIlX3y5RWeHlmaSwvOSt0gyy/+ixNsX5QhgPAtO0907/vlp1ONAZJVoMu2pHIpDCj3WaP8t9as3X694KzsLx3+P/eOs90rXqpvARoXf3LVOQIyRcQE4t9PAFbxh7mrk1enlM9/lBIZ061HnKD5J/5qQJjryoHPRMh4PQTIGJChIX+HLePVV7KqyagHrgiw3CPnlRipgGz3Gm+9WaeRSN6bYAjhXM8bKUZZHwLlLxi8kmAJ6j6f1M3h+tTmT+q8r7afrL9ZMCH/9Sdp7xPzobS49m/Z7OJP9cfF3z13NLysuXM9r6V8fuTGjRsaZgGXE8iF7MfftPCP5yLQ3YPGn3s07KFzPXdtQ2fO+M97/G9X+zewZm1c3JTllJEgYS6bKCl3xvGv+wPvCPLG/g+/8nT3riv4BcD3BarATusyLZRvWNlv7vEJpVeLqcEmON+4/vAX3FuyNlNCAfYHLEsT0MEJhHxXAHo/jl8A3i8nAD6nmA8lVm5kYkN54QK0RDPUnUAu5OzWH+3uyr6O22zxfy9OAF6FE4D94q8OFh+r6HEKRMoOF//P+mo+A+Btztb/Mh9W9mM0BYr5zn8fjRRYJUScGUpBqESL2MYVkEbBGtAlGI6i7Etmpt2O55s4cLu2ew1Fau2f2Ka0B4KLOo8/ZXH3qq7g5SavxFEIQl4HyvvJKwfQhvqA7YT913ZLJ6MchMq0iO0C2efrLbcub08U/4LEMOUj5ePuuZ58cJz0Jq4MX6bbVltZlIM4PP788BdfXzuUvP8ii0IQQ1Uqnmu6356HkisEoyYqcRSCqJUHSq7pdj0PVVcIRk1U4igEUSsPlFzT7Xoeqq4QjJqoxFEIolYeKLmm2/U8VF0hGDVRiaMQRK08UHJNt8v84kW+wOC6aC9C/OslmPHr/2tfcaZ7cAcfAsM8oz5nLlNMuyDAhFj19BYgWQJxlLG2hrf9IOd3HNkCk9wmAgXR0SZLm5CHJRBvetvN7gMffirqSn3TqSqxXeFju0Drb/GaPde0LONf+lt7oThDGoT7Rb3lwP+9P3Vn94Pfi18A6ANSdiXHn8ggnEb8fwkeAuYpg9jAxueHcso2963SbQRaxHYV/wZmA5BBusjzr+6xHz1LxylCilUzH8DboFPuUWQsD2Zh161Tu0o9sdkvH0pSdW3TWva9XNXSuIL3SLvq7tD2UKpsmQIP/vlNgNJfUGyIybK8DoVeEKrabnviBcFf+8neITlgcLT0F9QI/3n/f32ge3z8qzE54PjLLzcXN8v4qDfVtvhj7Cniz6vR4gc23AnQ9lCqfDWFindA/0vbWptlobBZ2T/5+C9a/Jd4LFQ7/17ziju7B6/gVYkSqbxRAgnrjNynj0MX2ZFK/MtNFHoCwKBm4pySOUYtm/ZCDMU/1zLTK2I0sNa94d4nul/8iD4ErO3ahDng+ufNMS8dkZZ6m+inS6a4/riJnK/sW5w4KFPE/70P4BeAl9l3ABDTo+JPfrWcUvx/ydfgBMDPAODzavxnN/4eYjlfBPyrPlQF6+kQj6JqrngoDSonJkg5nqR+ewDJNvEnCydyeY883vmvHEo0+QLLkh8LCS8LTLdkY4VFTaybraiiRPuRnWn7753KmDiP+aLaj9tccmczrhW/LQToadgTD+q5NG78y/3/CUGQB40/71mq7SzJD4M/32a1tbVd1R8uJO+CDEKq5NI4/+v2c61aUpeSXpBBrOwDgYzGouOvrwS9Yb1GNqf4V9T2t/+aHzjdvfv+c1BEMqD9tzuZt+i/4895KW8IEh4OpzgYel4g1UWRFCeq3yoBUtrhGTCfG2CyjCRt/dhbn+x+6aP6ELDyKhWyJB1m/kcLbt8Hgi1V9qui2qlVhMfNyj6wCuw4xihYFiAJkZhzxP89V892r/4BOwEYE396mU3dkTCBX3K6APdYjS7TI/4dNv7/wl/5QvcMQlts7HP8heYl0U7AbDxmq/gDLgGMoTQIVmKCnMfxR4zggH3tXeqjjHFb9pll/J5YIgKbAERaiU3WH6Qz09riCcA6bgWiaDjpVNDtsEbmttpSHqicWZnOV9Ta7oqdQab2IIsG6cxklbbsDOP3xIN11HYrynWDDsLqtOUD2udB7vbY21wKokKVYnQ2szIdCkGodJROfh96dmeQzky235adYfyeeLBOdLTbwa8ib5OHf0tvhSrFUM6sTIdCECodrxPKtuMo2kKVYihmVqZDIQiVjtcJ5ZV9QKFXthk9ulTKPliLwgu+lcZjuz/+smZVv1zWoR1xHIQZbsvHjP/c3CBtzFfjCulDuFIqx+xwz/3n1VL9/Uz7T4G++Qd80HK7jzfslQJRraN3S+uVV6rwT54dZj1PYP7oW292v/IxOUpyLnJrvM6SvKjUTC1511gapDOzVZImasOtelYRutlk/UE6M1m3LTvD+D3xYJ3Siaw/SGfmYFumUGfFwGCdIs7ND9KZOdhWbbhVF0uDTO0DRQ/ef7bjCa7G8uj4k19nrS0P5UnF/5fhBOCpFNrR5SC0vz7cVkJmCnVWxKTaNpI0iwbpzBxsyxTqLFlY2T8q/g2kWjRmAjhxhGRIMoixoIKIB3ilhumanoR6pjlWUofKptvk5PLgn68DNSvQ8OkgLK2aeWCXlHQL0yiXea7supQr2Rk4bG1u4I1Av38dXZq+/+xPSY4TOEIupn3+fKlpNJoSD9V471ej4G+DXpoYM/5rp3A5kKspdQwzrYgiytpVk1f9kesj0rI5g8z1nDwc/gUXtujYeE5e4Wopb4/mf2CVmxLa7XquCnUpV1rZL4eNjAOkACsI5cd2FD9XrnXqUjQE4nj4y3MwEr4lhmcd/wedfz/4sju79z7AW4AUYkWB/vNVzDiEl6MjCjH/oIRHe5HzJIAFIMiKsoGuKOSWnPbRJOL+k4GeYHBW/8hPPNF9+NfqZwC0TeojSTOHm/9ehz2WJtDGLNeflX2g7vsCDuEc8H/3lXPda15+mh3BcGi8DcWfyrn1NLn4/7K/+vnu5s35+D9v/Ff2ff2rx79wPd48Hy1xjRF5v2JwdNW2egjxEAw0Bdnw7SRFl5OETWjyHWUUkxCatvOQ/USpBOW6lVJs+ND0K2pmYUTWdyo4h/Q/rQIjbA2xw1oIgzNF+9t4yPUyfgGgLUkVfJPB35v2vDIBsHRp7Y/TLPz3PrVBra9EvTyR+Cs2lBrlv0gr4TD+jGd+7C5NlDId5LfKGE01iG1uNtOUKP6GdhLK7o7zD5dq+R00hqG25Hmy4/WWzP7W1uWIP3pVAcXCBNYfaTdtHCplOf6mYEL+Esa3ArGoRz4mJ8eGyjlVPk5WKbaFfsXg7LP+vOr7Tnc/+wBuAWKFNP4sMokPSkbZZZQeOP5YGw8LFwC8lb3utW96svvIx3GZlKzWIOvtm/oVg7OP/1XTUaniHqDQrxiclf00prON/3fh4fbXvgqvuOX6x1EcEX++Tkwj/v/zr3use/xxD6HZ+i9TaRV/c4u/UfjH2uBhUecmlizTqlUqK1XKuZVaVnQKlbUzvbuL19ltXLCFPUuMpldspkkt28ua522u6FrK891J2bEof/Mi3q6BfjEVD5QqZRHbppYVnUJl7Zo2HckyrVqlBaVKObdSy4pOobJ2TZuOZJnu25cv3FrlGkmNebfGg0Ei1+oULW1kFP5mwpUGx397Z0duu1EltVzs+xx0TtViUzAdyTKdWyatMtOo2oiHf8HNnk/T/7ZtL7f2T3FBHpuyz5nWSsVfpUo5N1rLik6hsnZNm45kmV48+7t4a9kGfrVkcrylkMot/vSopLrWceI/t+QXLQy93ppV7A9RGfNMq663OS7+W1lbJ1t9Jd6S8r6f1i8Bq/+8Qo+3+qDXfs09OZCOkbRVbzv7z3psQVviNVdtWdukpiet9UP33Ow++jBOACRZi5JlupKioDLTUGFsa1nRKVSo9gjTkSzTqlhaUKqUc0O1rOgUKmvXtOlIlumVfSJQEFSqlDOKyuXbrV6D71zsF39ecxrx/+V/7QvdEzgB0Kgf7q3b19x0JMt0JUVBZaZRN9HIik6hmgqpaDqSZVpVSgtKlXJqYmUfYHC1K/ulPP7Oh7iQcqIGrcKpaSnJFZoMdKZzTTaNsv7mmZUautRxdX0d6K4ErB8yyjItG6+OgpRpg7acz5wyMCpelivtvwropDPl1JaSZXsKXwe2pzn6jQmHbVDfkjvk5cG81HH1wlEXSouQzAD/g9rnff98+8+s8KfrZUxRkDJ6a3x+vXkR8OevInwlaukrujWQDht/+/lfTBAbxkrhOFUeknZOGe1liz/3oOTFF+G5Q0VhgCp1XL1wFEKGlyZImvknv/Rc3mqwHo2/t8R82uO/+QLcuii3U2arLV28PYr/dWulLeF7g7VSU1rrXv7SO7r3v+OchKu8DQX1uCZz98UDJ4Ir1+3l1yRiyyYsFxuiYhtqIkn8a3+aXqmcKmhCbiVC669+w83u1z75tPIoM626LkrN+EdjQtTaR93/5VYyLUG2sl8GpwYfpRqtRcD/nVt3dq97lX4IrO1ujr841QVTY3Jy8f+X//pj3Rce84hue1Ew8+laOC2ikKzib6nib9Txdxnjakyd7XkbLFoWKTeeuJCCZoh57iLJjTlKVmLKNbAD4G9mkrxVFuxQPbNUqchUTTsSPRKxBq/0MCr1iV7bhXH9+q58IVh6yY0nqJSeD8SHCV3Hq0kO5pD/A61ENWmHG09zsl/fqmVjwz4FZEEYL5W9723eU8mM0eN/A2Ozga83j8KYfRolmzT+t+Q1DRUQU/efBvTq5nj89SQpgQ5QJu0/R6xKBvys8J+lfV7954sLDoq/RmGFTl1g5wlUpMwYHf9D9n298sBfVPxf/uIz3fvfyV8AcBiEdX+vOpHv+y8P8fJc3xNUeMrAF4bKJQCv4mdY1KMOAl2viXlFzYnLK17/RPfrn3xGFR2wWi1KgmMeI7EvJoZrGvCWRTtCgLmaf4odR3EMioGbaHHjaYHxf8fW2e51P4gPge0TfxAjTSf+v+JvPNZ9/vMa+WrHgROTq/gDKI7/SYs/GWmbVj67yAOty44wswJpKuAKCpdLLbh2FF0SU1YltdyazSLQ4IpplcrWFIOG1nV8FXh9fV3USwPsD7WQhNQyt0wmAVX0nPJcFKuNSrI86CC8Ah4IxkFm3FsLtnXdFSR3nueV8ID+zxv//exfw0HPxua6IECYmGaBf1iRsdEB4pZXtvnWHSbH3XNhxgbcA8Tffv5nn52mibj339DQHuaIjI4YoRquR2bQQXidxBBSy9wy7Yf/FWC0vb0zVf+9H95T75t0UDbTxX8e9j+Lq+w8EdgP/yIvaPhoO16UBB2E6yeGkFrmlqm0X/TkYWAV23bx8H/ZS850P48TAH87j17oRz/twRG5mA+X5KF6XKaknzy25zxmyS8Vuf+651I9+eWA+lTHn2xt/lOPEn4d+Ad+9InuE7+JXwCskaPOf7MQ9mihTjAwxfWHtuiC+7uyX6Ofx58oCVYGWNDEcELHPw9sn+1eb78AsP1sP8cf43la8f9VOAH4HE4ANKEXq/jD0Ougx5gDnqA5ShMaf0fdwGfLC4G/vkRBeqdAlA4elrIFuVpycpuZLm37z00GexEYJVfWsGNlF9lCIUzBs1AwxmDZmZbXWb/tdOXIa7p9v7fWzbN36qFr5pxaR/O/tL8fNXv7epC7pR1zd72bg2VnWl5nh8LfzURubemBjmPtObUyHbXSr8PD8qK5H1Xjr7dFbZVK0j/rpAeRFZ3r7Kg0Jv5Cx4loxBiDZWXu7OB1rTwBQNpv/llrB8hq/8tg0ibTML4nyX75gjncHYN/CE0nVIMQwKAGBgHKzbU6pjpsz4WdvsHsxm5hGLVI+H//d5/ufuFBfQZAunco/xF/gEovVpFw7AgYEnf07YOXVMFPBfpDndb5fp4A/JOntc6htqv4B4IF/whIw/82mP/j/P+pt53rXv9DdwAh1ZJ8IP5E7HEXMUxctWYhXMlyxPd+8f9Vf/vz3Z9/rq63SPNfvaz7d/DSav6Ni78SdzWiHo3B7TEocSZyOWk0BiGPXweiBa1QSbx+pTNcGFLdxW0d6+sb1dzItWNyjJwdNoGKolVPjDTZhtpOmiHmLwAbeMtGPzXIDDnVryScQVVnIp8H/kPjL/e32zv/CzaFat0TSU+cGEfA3214K+XAdv74l1vXtJez8D/tJhyayLP9/tXgUIuhLhxQCxh/9LUZ5dTlRuL9TxqjyEFVZyLfb/7x1cW8aNGmjH+ReeSCM4H4Hzf+/jXzYnuYclcrqTMP4L/WOxr+L/ueM90Hf+ZsXH1nW4IQ7NqPABaK2iG3wn0QadVmLb42NO2ZWB8NceyoVjT7+L/stU90j/x2cwLgFVgXVex6MdqprNCwpUbi9V08Jh9UdebK/tLif/W+s90bX41bgDiGGH9Gnm5ZIgkOjsYlvowlbGzkIB0/YTHXur7V+Dto/D/nbz3W/cfPqWW2PZS05UbiTOSr+D9Z89+H1iMLI2+sIpFokGLFK3r+M0mz7EVTTThpEdW9XjFAqrRrs6TbwME/TwL6icFM/ZL6nCILCkr8kAz7O5jaRtpyVNrrdq5c6Xa2dmR3My3/aU5QMWjUvBWQOY6zsl+u/PeB6XMCrEJAaVL45/HnrS3yMLJbqvBypuUJN+GErhFRVn0pVryi1+Jf8GlsenFK/rP5/fCPh3/Rfe+3dCt8K375/KNcuKETHBF4O7OKP+mv9mjh7F/Gg9+jPoan/cZ2TuOfP45H+HzcpF8xtkZEOaFd8Yqet3Pc8f++F+EE4EG8BpQHQ3ITvyGGohwE0aTfy0MHeFaAV8vSvke+vjPI6jnbipEZ/qdgJE4TTPelP3Sz+83f6b8GVMRVe1ZANin/db6VdlfzL0Zs6dcfOQF4DU4AmMbEnyxoU4r/5/ydx7r/9z/COFOKWy+v4s+AIRA2DQUbhUsvTBh8oZBwPO76Nw/8w81e593pQSTCfcMnmulN1CKJBguRhPvZrz+mZGY5GGwDScnEKEwT6sjJYb+pNdo2MaNJlKHBPc+oZA3EQRX0xKXKLzUvTQTfiCizXv9qkoqTEhvpVy1Mp1KVREbdIJLwoParg9sEoJKJwb56UXJuyIIl4///7b0JnGVJVSd8MyurekFxFHQUGUHZFFFAhEEGuhbAZmsbGppFFpeBBnXoBpxhHBm7qnr8fr9vvt83IzQ69CLQINADAjq2gCJ0VTWCImKLgECziMiIsigDdFd3ZVXm/P9niTgR977MrMz3Xr7MjKjKG2eLcyJOnIgb99549zpbGMqUQcZqSVqj/ylLXXytpTSpaNf0/b/EejN5AyVX2iTbzwjSvhXrg/b1x7/moMJPWyP+Njv+V7PvWxalB7w7ZqT/j+KbD/yY4UbG/2rt38j4e/qFC92Vv4YvAVv4zmEcFT8Edn96CxznPl3e0IG87Gn1uAZfLhzc/6Dzo2FywQB5XjewDJO8ZwjwU597a/d7b9cnAKrGlYnYkOuktM8yIh2KBDCVTUBgrnX+naT/08VQ0dRQSdINLakZEyijLq4aE92AhFPt9p5/fvUlu7sX/Ty+A7BK/ElMuv/HHP/fc7+buy9/ebgTt7v/xaUp3nZe/I1qf/YEV2U6F1r4hcwd5zlZETbRPilTFKpxtwH6KvYP4SNTB7nlhHWkmnEk1+V50FmSAhbAIJ5+fEp2TnV7a9wlV29/arcbyKpcyUCXZCGFatyLgr6K/2l/7/593dF3H2n+p9uyK92JQuITCInTRF0BYF+6HuYhOUtJAQtgEF8TePjwZdj7f1Bk3awWBLaG/k91ZaFSwYDOUkjFc6EMmdw2sj9qG5A4KR68Lz0PvJIUsAAG8TWD/hRgFv3/9CctdFf/Gp4AIBXNlNhAjVnp9ARAxIpDbJPCeVnjuCsQ3I1w1SW/vOy6pzz71u66Pxi9BUgqRquqcKR9ZWQhhWrci4O+jeLfWxWdtNPb/6u/vAcXAPx9iwaw+GMg/tx3zhJ8TPF/l/vd0n3xy7Qfe8awFn8zvf5NEyIDw7oszUUjSfV8U+MhDpxV56bb5jvluozy8iTrssxLmcgxuBJwtM695H5sA7p+aBuQjJQwXBKYgMJ31M+UuYqXxwHuAEnKCF2ZvScBpdIS84Ya1dE690JKj8fM6d87Gb//5QLMFo9uWfLQ/owTyg5zyPOSK6WqQ5Q01gBJOELnnT/uGcjJ/ZgpFVQJOFrnXkrp8Zg50f/ZT7nCDnnOkhF2TTkf4A6QRF7ogZnABCRbxQfSvKFm1NE69zrFlruM8qYz/reSfX0KcD3cw1rnvs49kmki0DtESWMOkIQj9MBMYAJS/5Oib4A61JsgvE/r3KxPZf5/Gi4AXvnSM1FfeU4m9U72UXm+pYee06O1j3dU8eNepQpb2qZjkpIoAVF5EgBYKdQFmCosqU5cAPwsLgDeedJsOFfLuWWXVW6L/zj/ucdKHzk15JWAo3XuJZQej5mzFexf9p/2dL/4C3tWjT9t4WTi/64/cnP3xS9a0LujzY2O1nn2ch55LqO8Fv9bIf68H1NunZj6MgOAOGMikcajYCtdIfamSykIauWaZET58ZhY6Zlt3z5fOck3bTCxTl5G6ynkgYNLkhVhF8XpRk4iig9L9G25nOeurbwIGG/7tSPcUszdE5HGOo/Hvu9rjm112PPScsSiRIRdZuP+vyzc2XatzMfVftZ6xTt0KRI5dESaJSzFNkc488cZf64159nmHPZLj4qhFEErjL9RZfPoyFYJbYb/Yw02036Og+z/acw/sf0K9+0P/Qh8Fvr/qU9c6H7z8rMw1FhnjSoe5Z4pzj+ykNdGpZlcW5dqb1zNtP/1jisp8v5/zvWAeZGhFnT+8aHxxJ+5rXvHH+mXgClHGanNDJz/tCJSqeqwUvvVl1JgWKxktfHPSTz5ZFz9f/iX9nQvfj4+BLZK/PEid1Lxf7cf/Ub3hX+oQsfQFBqt/yfS/ymgwnCMPbFZ/pctk5xYBuvFWlnS+U+rKWQcfK2j1CQJwLQ5Q3JHfNpVecbbWu3v3be/O3Lk3SjAQutLrJmUZpsBZE3GkSxJQTrSaTPyiPdTugigchenMUHW3/54B4oVn7T/92HLz8GDl+JH2PtzO1KD+u1eC8XdQTXj8j/3/lOvpuxn6Vw3OAX/F7+P8OpUuVdnnO2vTAyio7b/nM74m3b8hcFp11/atzxOI/43Yn/UNqDN6n8PCto/gDeX8TXGTLPU/0+9YKF71cuwBYgnGzpfOlphvsFT4g+ALOHBk/kPbLZBYJHnwRb9BE1VtwSEFxEgye+LAXBK4MJfxqIJXvDM490fHDkFIhJ5lmbh/NfGn3aWdAsOkz7/jbP/D/2HM7oXX6xfAl4p/jQMLWiloQqPI/7v/qBvdH//BY8iDexZGv8+1lIu7bd6crxKh+iR4Fbqf5lspHN1WmGvMm26/2VWtIpJhbRaoHgVhaCuL2rL3skyaRJWcW2Z95DTPEdRnVBJqPSITHXn2qVg5MiR6+WtQFQt1QGPtdAlIHUhKcFytkTv+igzCmRKDbmKRAchLlhXs3/0hqPydiD+8K6XNtB+aRQrV/sNOgt39zok1GIN9s/Zt7c7ilcapnSa7U/Vk5Pu5PzvF1u95vYIqSXiuvXG30r+ly//0gz7h6Eo+ebEX20/LvrIm0T7xxl/szr/rNT/sf28eD7yboyfCcd/DjcPOo87z/vxdxTfAziAHwOzRA5UQSRsSNsM/z/lCQvdNS/nbwBw1x/O9PldaonKLmG1LvM8YH1qpi3gcZ5+lot8IEpAAQBD/gdN39wjmq0A4a57PC4A/ugItxSpbqWal6RCoAvLB7hK9KabHsE1IW/jb8fNPwdfvKf7jxfvsWAZHX+MqknF/z0fdHP3+b/nmMB/D2MiIdbdfot/GeTSG9oj8NI2HP9l73tzjSrZsIRIrjTHSZT1AotORNHSt2415yvY97dsMEDrZWVWQANuiLmlHtkJrFKlj2dz6XAvXOY9+YLtevGaUNmeckhqQ5GNtj+amYT/6V+58/8rl46l/doPVuvsFiM7Yf3+H9rOoNa8/zNGaFL+L+/+e7s81zpI3Hu1JCwzvxdPY4o/Opp3e3kBMMn2WwtD5g1VkjQX4KT8HwwbuPn2+bRyH55apuTd7XkKiPXHf9JdAG7Ac2M6inz/gfwUoChKxFwnWenGQnTc88+Fj1/oXvPrfAIAM1i8xzf61NXgeOGTP7qQzSoT53K+4jNs/6EAZXn7FWQtypKmgxcF+PcTTz/evesGPAEAS2zWhqnH0rjb73rVcLO/nfx/8D/s6X4JFwCrxZ/EABs+gfi/Fy4APocnAAMDJoVest/if0eM/zS96b0VToghGTcPRCV4oXoCdHqawEDgOsamsqC4D56O/XKxpbpohvZTqggVKmJCG2BEEvfy+iIz0pMdA3q8QIjbL+pyjp9O+93P4/T/fixULuV2H1wAhKqj/zbefrYx6vQ2C22AEUkr2b/sMrz3H2+H8uR+mXT8uZ3of7lj6RVhHhvRR0Vyo+0XJXaozBX2t0L8bXb8T8L+fjwF4O+WmHr947QBRiStFP+i2A6xjJAqQoXKRSHfCORpEu3P48NHjFvr57T/pPN3da/5DXwIDDBL8LCMhZB81oswrh65j1/uXgIX/bbGZ/u4tpfzjS/ykfv5Ry+wSy8IZiRv/+Oedkt3/XuoFImVAF+yfHCy2md5Syaey4Hg9kWRCw7kbr9gmcJsWglGbvbhCPWves394h10uvHHGCmSKZQsH1z9afn/P//73d0vv4DfAaAiTRJ6ciDVn7qFW0EQHWf83/vHbu7+9u+qNlpdsn2vHXJps2UbbH+L/2G/u7c3y//WxbmzWaFeZbKU8NiZQ83plbPWyUAkzAncywadIhbwIKUaKh7ty7vWbfCokB+VmI685cjyMXHWYKV6qVYY8QhbwQGSBro8qJa2yi1PM8WFGDnysSrSWN5TwNfS/lg0q0jedZLkK/mfC36+tpK51z0Xjg2MsEkMkFyHsnCckP9960+u60DcGnOl9qfyG/B/eUGaWt7r/2RryvE3v0vjcZzjj62sUy9uTWDS/vd6zKJ9nsBnZf5xP8mqCZ3iNzaEvoH4d70b9f+TztvVvfZ/4EfAMnIYYTqWxH+y0iNHKyrxJweIWd2lHDdLg6AlceQ5J1wIyAwZxl9qtgDL3WOecmt37L3VFqAkpHMM6+Wmve3Mxf4AZyfHv/gF/hN/jfH8v9X8/5IX7el++YX8xgViZ4X40ygSKbiOrYTzLDadl+LPnWDxuVr83/shx7u//dwp7Qsrw/6RFPBeHFe8ZN/LJhVe75LR4n924z/1tfax9TQzJh+wQjYe6Q4iz3vJMtn5KubCLIiUyhi9yAJC2RXs8+vA12OPOkNOLUuBABO3JAMFB0biQIp32ayrIGWyol5tiJrMMcvKU7URDoakIA5mn4tX6pd3socm886X2DfTK7Xfm71e//MH1fIDXyz8p93+4BkB12NfLgAOH9q0+Iv+z+/+X1v/j6P91KHWos0Iq5Xe3X/ElsZMiDUUUyzQxIBND0I2HukOIl9v/BWxvo3tX3/kKH6ztBdOYyPpuH5aT/xTCzSiK/SoWiOsFDmSPGCfT/34WyVhiYR1rFdzhfnXzY6z/y84b3f3W6/APmmxjwPtY7G0zHf0L2FLD40hiRsBEtNv+WqF3RcqpWokzuTiAVQW5H8pS/2kMdPtRJR91IU3dzf8qT0BmHL7izHBhjb76BH0P/rIDvSK9Nkk4m+S/n/JC3cdQepkAABAAElEQVR3L/lFfAdglfjT/WnWyDHH/30eerz7zOfwI3qPfzpRfOtZQFiFFn/bJv7YnZJi/KH/E+qB4KHg8rmQDEVHQ1EuEhArDKaUQiCRbGhiG6DkSnZIGCL+uXUW9XJHjuoPgklz6+SVCAllKmTJkjpqRRNIuigjsHoqdBZIv6yzj2Fv9rFjN8iPbf1E7K0rSo1ov47ktfmfF0xMvNu/V+72h+alRtsp1Cs44fYn9adpn+8yP3joMBqAgjJJsQu90mwlNQO3LOVkhaTsSnZIGCJD8ef2l5d5x1ATtZWIMUJWyLq8LG7G73/58BN/iO5GQz3G1X7VEw0oJbnS0GBawJ1gn+OObwSKyT3F9ksiYUL9bxaKzO1z/tm//wB4oKQ+SkAuA9JK8a8lXCuLmQ5X5XnWKJCSs+wFj13ofuuK/BpQUWNl4iwnZyJuppaPdynHRyC1pcWi8b06psqGgm0tIpMXAib7jJ+7rXvrdfoaUJenyDTarxUzfyTjAJr9Le///3rpGd3zn8MtQD4VD8cfl2T+GlD2u6dxxP8PPeyW7tN/Yxe3UKyRZvFmmVPdruTgtfifvfUvOkXmOu269c2/qdvl7ojdERlaLKSAwF0UuSuTCCsAWbtNYhb8pCNJ/RUEAuJp2ue2leIpAH1gul2t5OInGVpGdkEuG3VoZXnnkUKYiXUrMqHyoOQRTJcCWz5Vnypn8igd7euTgWXszz0me3S9eJGv0f+ypQfVPngptvdgEbIW+2rH60aMMNN02q+2Vre/Cz7wmmmZEUfGggsCTvFGOlLCBWEbIRzLiFR1qPzPu/+H8NuJ6KOqhNRhM/zPH/+mfd4Tan+vrZEQfbmD7R/B7wD27t+L0KJDmDzGy/Ff8lyOOcpZES+psk4ewQxCo+JvHy4AeCGwnvnX1Y/MT7P/n/DYXd3rr+DXUmNBag/tx/ibxzhli5lkyHIgBxnSowayl3CQ3xKQydI2jpd4A4HCPEDZL/8/t3YvfUX1JWApYwcr5/YjqwcXlYAJFJJypCMlXBC1X1RcpKpDsw+/5f6vvFOiM+T/V/y3Pd1PPwU/ApYa4mj9WMefRkisOAswNixDufXG//3POd7d9BlcAFA91UGn1ocIbbBegBORUlVq8bcl44/9mvo79H+vuzOBpysMNAsMKYMDY6RIViCXK7i9eFK5UdIx/tZmv9x/Xdp2jFWmRUle/4KgC0o6KAuaPLIR5CywClSUP037R48dg895mdB1N9xAOBvbK1sLFCff7+xnCYU2Yp8aivK18jXgRXmv/zr939v7Tz3QaVmvNjVd8Zqai2XO2uKPfbNaGmf7V7MV+fTVYVygxBqOu/3u+Oy3WIN+v+xE++fgRkV6pa53Bh0hSaNDjgo6I+UjyIm/GlCUJ8Jk9o8exccV5SlAJqvI2uJ/nP3/+McsdNdexS8BawX9/CNbdGSQg+L1tyY4KnFFRAMstY8o73lac+0kCEwmezDEGi0p6RXXLHa/+Cu3SQm3T6NSHodon6XdHvleF6HboaYrXlNzicyZvv9Zi2bf+3G8/n8D4prxrYsweHlE/MlyS8Ih2x9X/N9v3y3dJz/FZ2W5l3PkKZQ52X6L/+07/qW/c6fX4RAnhJpXlwp4AIuw6tELbm1A8BFFwMucUR/doQI/JxBiN7LUYMqCfTZnfRuZuGE0Wke/ZLMPn6jPN+7/w9j2cwj7/jXl/u/hNUtqwD6EJPu5SiPIIjWap7/h4JaqlRLNUcdmxF/+kae1YkRjRpCl1qN5NSfgARQl7vgeveAqUh1HFIFUzQl4AAsLPXrBrSyvxquVBTyArmV5mT++m835h6+IPcKnAAOp15QkU3MCHkAVN0KPXnC787EF6Nor7DWgZkeKDM6/piwNsKA8gMoGgdv05uF/EjxZWRE3+PffebJ78s/e6hK9KEuMHicYDaDKG6FHL7hZdYBGFIFEzQl4AAsLPXrBDVYzOKIIBGpOwANYWOjRC242GqARRSBRcwIewMJCj15wg9UMjigCgZoT8AC6hbdde0a37xy9AEjaB+IvLBhETFSNKf7v//Dj3SduyluAvB696joD+WhezQl4AFWVEXr0ghusZnBEEQjUnIAHsLDQoxfcbDRAI4pAouYEPICFhR694AarGRxRBAI1J+ABLCz06EmLccos16IyN6CnkM2IS9rVpDOc7Lg3Zp32ud2l2GcbJ3nq7CUbechGLuhl0LHgoIJ6nJYWmv3sj0H3nb7/dd//IdFrYZJtjIRccjLxN/Lp0wz0v/5I+jA8o76Wu5nuJ3eL4xscf0lND3BDk/F/z1yPMDv2j+IDhvkJ3enHf90001CTFT/N+OPYYixXYVDodk+SGOFCqIe45Nr6/ydwh/SNuFPKJE/WWNzmX9fkFL+rH+kS6hSwRKtc8euFF3Ovu/sfNG5p8BZB/EtfXu7uet+ba1UuIZoLm25sMHfJtbXfjXipqDLSIhxl+rBLNvubOf+decZc98+fvt2a4s8vUCcR/z9y4JbuY7wA8LBIAWOEMktcArFIhAuhHuKSLf42M/7Ye6PsV5zYg2Bx8ownEwmEQlUskGDbNSS4h4AyHUMuIJQ7KZV24PTsl4sxneBtmk8DzzWXBJcCN4AuW5IMc6LnLpxyZTjb84ptaOAG0GVLkmFO9NyFU64MZ3tesQ0N3AC6bEkyzImeu3DKleFszyu2oYEbQJd1kt/NXiFgvUjazkhCGV6OIRcQ2p2USjuwevwNvuJRimutve6eu+YyzgI3gC5bkgxzoucunPJl2dbB3wCUzXMMuYBQ4KRU1oHV2++Sdb4Z4z/WYRbtFzcpin4LSAC9PSXJMCd67sIpV4azPa/YhupvjtJvRZLQ9Pv/vHNxAfBKvQBgYPL8U75FlUt5vPfHb870GqaV1/MWz1P6bQC/WEjBzrs++A2xnNy44iLOZPrOw8fA3n0Mb0vZQuc/bYAeZzH+rWbZyTto/rkwfOFagmyV+HNfjTv+H/iI491HP34K6uH8HeR/DmtN0miArf3e//QEZ8DSP4W7MBGDn51oTGZSegSXvmYaLKgsPVJwPPb9IoDa3LzaqCkZT5ADnmvBwaOKjBbsc2pKxhPkgOeDlmNrRgv2OTUl4wlywPMZsh/v/hfV2sT44ytc40fIYr36LqwpGU+QA55HhRWsIqMFuZ3jwIH9WopiK6bxjb/CjA/AZj+5JW9VzH2XIAc8T6X6gIqMFuxzakrGHYqvBHWLGhnTm/8f96iF7k1X2xYgVEwWspjJ6zOM1lkF5pbA5SksJOEX8aclRETAjPvHxeQUxIsCXC288vWL3fN/6TY5h8SnB8GEgrAR345S8Av7BadC1MtCDCBxRfvtTwog0OzX0WHeofOY2NUrpuD0ALKIohv3/7VXndGd/xh9A5DUR+JVKzgUf2Z47PH/oEfe0n3kY7wcjik0OoCUGFf7o7U+HIwGsNmfjv+9j9NAqfqg31/WM/myASUyMixfUeMdCmEFowGsSgW0MFkg2AqEV4Pi/dajUpr6qxNBlncJnzmsRrxqN1ByFHBJLeuY51ljhBJXgIQFEacxZ9rZ9vU99ofEE+nAroB71EMFkkRWAsYRf7z77z2lthzzfLgGiStAwoKw05gznX7/D/pMlalGqCye7JmJYC1ID4CFywtkQLhPGof/N7v/12OfTwH0rWXwyQT7X2Om73dSPLpq+/7GqBAKwwpILbq8QEaXCZxR/f/YRy50b361fgnYR/eo+Gc95c6+3E1FqySgvfZctAVSsM32+81/mUSkMRTWP951/dI/dd0jL7il+8SnSBxIRZMLZEC4TxrVfkp6C/qlAqUwWSBBaDTY7FtsuIuC0wPo3H5euLxAerLlUy0Ns9XijxedKkl1BlfrD1JPN/4f/OO3dH/113yyNb32swV1avZnx/8SXdohFmhKQZ9x8jNa3YOCD/CgyN9hy3gVFa4l4Q4gFxDhjpxXwlJAMoPXaZ932rjflo+KdesIF2t6UpCqo2k+nrSZ3lbhDh6GJZzqeVm02d+Y/3tv/Cnc6zESiFOKP3/SJPGaYpT1KdNm9f88/ODDiTUqhlSsrzDGP/5os9mnE+iJ0v+yfQX0WZx/8jcjfGx5ru0ojwO8DY6/xzxyV/fma/AEIAVPttGfYcmTJRByd6jerWU9qYIX6Zz/eY94SepGDhk4HxAXFZDBNwCW+V0B6iENhT9w48nuwp+5rfvil+s7ptTBJIIK+lFssKaiQtQRNpWGeznkArbxx34Y5/l/Vvz/Xd/RdX9x5Hbdv7g9IlViw6JhDfGnweKxkjFq0ETe6cX/Q869pfvQRxif/EN5Ud/ib7vGn3Sz9nSeUrXTU//nCAPJU01MeAJUUlEc0+2wSsAU6hSMQAOu06PFnhus8ihHVsIToAUUxbGyvxfvvefr7VKyeE94BRTshCSgku6jLsmbUBpMmidJF0iEEijYCUlAKTyAueR2sn8Yb/s5xI99IaVuT4A6QVEcq/5Xbj6OO/7yVg61MUv+P3zZIbz683BuPKBxt9+Vb5b/t7J9PgHgk4CYPH6ElpAERNFB2CU3Ov5HPQXQfobpBGg1xt3/j37EQveWV5+pc6gvUqLZaB+NlrkWlZJvHADX7RR42w8W8HjhTz7XAE8y1BF1Anb/eQHVu9y9+4al7gnPOt6dwmcBKDPp9tMEU2xmgVcMRXGc8vwnlUz1bPZH+f9jf3J2d5d/ha9PrDP+NBJCPMT+X0f8P/RRt3R/8RG9oI2qvD89r3kJT4BKKopji7/hCcIcOsvn37JLffUqFScLSTo3dbXNkdbp5MvMSLkcByqttMSnbJWSnNPHaJ9PAPTNQGl6l6p4c2h7KKl0LkOZguZn2aHCg7SsSyAcMB/IJD8kXtgygYK2A+xfJov/y7T13mHohRwvdCC9gmTZtOKPr/3kx7/WnrT3KC8QDpPs/+Ld/9lhg9Xtscc4/qRbegbKavTYO8A+P8p3PW5OsO1DSaNFj84vaBMe//5j+zRDTXH8PeoRu7u3XHMGfMMW8448EuzLwh53O+VEKu0nz+9cipRUVz8QRSmbFgTIvhQIB/8oWsWGDliG/mj/uncudv/vSxe7G//qVNZLaJPmH7bBGivQtOe/Zn91/3/7t81173zLWd297ok4ZbxK5GhM6nBijFmcZvZg/I0z/v/NY2/pbvxQfqKVxolGktjX+lobJUMFecLieJOj8Vr80xHaqcxtSvDuZB4cRqyXsj+NtQnnv6IOBeJ1Qi6Nqapf1NVbOqTAeSwPvgwAB0gLyoeKD9FEFRgytoi4jUqYd9rqiwARH3nw7oNAAhMgpSIm5yLWAxwZD7Q/mGKpQQEjBrkEJkBkIrYd7df716suTc7brPjTL/8e1L5AZ0g9gM1K/+cFnLsqeBDgNMef1qDZT5Oc+f/6I0fxFGCvd1DIw+hOYAJELmKTGP/8KBifBHgKveckyScx/h51YL5762vPVjvWUC7GZbkEnOsQbz/rJW8IEhoWU3SGXhfk8oRYUd8qAVDin4qw7UeSZYTdVqJTHhZvPj6Hi4AT3f//GyeEJbLg0aQmIKyZZU4teESoD2KylJIJA7SkY7j4oEqqAqPZp1OZzEuDzgpEgJP2/5PPX+iu+XVuY9OajSP+xhX/55x3vPvgjfo9EnEEq+j1zF60imsWvFfSwWjx5y4xLw06KxABTjr+Yn/2enDAvtYu1FEK1Xg1wHpsFhok9qpQiKUiCVD5QkhIJlBmJjyqjNL9IoBxrnd2qETjXuZgRYWW6IZpmcSqgFpjxa7QWlrwAQORFOFKHVDlriyTS9XSgg8UjqQIZ00OKXdlGZft11bKVYXTh76sn3PpsuN7bAoOElVDZA3CkTioywSQyas/Re3420+10SURFpPFoW//kH35txADEps3CEciC9e4E4zeYw+WIVFTlB+EI5FFatwJRu+xB8uo7ZoVyyY4AVamxsdsn08n5cfAAx0cSRHOrXGo3//OGcpracEHDKQ3SJGXkjmkzBJXgJ7PMjuyBmEj/vi+Xd3vvO4sXTPBvleP90p5GcBEUYL65h/QAct2H1fshShniSzdLS1LKdFEMV4DyM1NFzRcrhkIg86ybv/Ye0/JRcD1N3ARVSW3X5GJRtYgHIl1AdFnAmUmnHSodSRGsx9dMwhHIv1W404weo+NIrzb/6Ln7e6eeSHe9kOBkIiOI/6oUlRLnGp0nk787zvvlu7Pb+SXgDWldiSgZhi+hva7iJeIeVQ/CEciC9a4E4zeYw+WyTWI8oNwJA7qMoEyywYGy2R2VD8IR+KgrtJwLS6WBolah8iqYcOdrLljg00Qpj2+QijpnYhYwmCTk2k0wlCa7154uTJ3bFz2/SJA9enAydN7Sc02HbI7UOl0ALqryIALW54EKjpR53muIiUWi+0M+7p4PSz+GXf/6/yRta43/tKPf1NnJSB2mLShdxZIEl7Gc2WUWBIWXXnZwjYIKZ8JpHFK1rv/1k7JBmCIrrf9YsX0quatMf7H1f/jbP/Ski4JtOfyrOB4zqc//vtfBrY4YqUm2P+P3LfQ/a/X4TcAMMPxoIntxz5qLqG4Wnf7yPHTXsQyLwKIoAR5coCsBLkImx6HfTTRgj8y0AsMP6u5pBbs2//N157sLr9qsfvUZ7EtCMJiP9XYSks2ALOGUobajV/lTlX7Uc6LeE3b+Nts/595Rtdd/Nwzuhc8d6H7F9/CnuPfZOOP40DafZrxv//8W7r3f9BjNsaVR5zmjlFCU6AI2OJPPbL1x1/oWe/sfp9XnFXQvspE0ai18jZh55m+1JsKleTVsX5BUvjD4IPYW773nL0yeLIeVoASlhKaAOf08lLCT9S1HuKQtJOXnKeCOeHtcPv1th/xYL8bzbGrZf2CibLB+JM3uATzs9T/+UfTqbWppomywfYnhSsCyVqSSpRmX4c7PKOvK94HqIyijFb05M0MlBLjm3+OHjva7T+wP9U1W1wLlHo7CSfKKv3/iL3z3e+9DluAWECelRPIszPbG9Nw+81aYMrynvMvHhUsc21GJXMABAqCYZ5ezf6XvrLcvfSKxe5lV57o5FouVczsJzxbsVWbcWC3L5pLrcTLUgNQv2CirOL/QlkqVFDXgPQLJso2s3/h4xew8N/T3f+H9EJSLy2ttSGsJhF/7IhgQrDV7B+44NbuTz/AD4Extfhr42/lKQhBYsEsWYQlgpyb5ExCmemoVOd5nnQnuSHApCWLsMrWujIedSnVeYfxAadLDx6qBg/lh4cT6Tqwok6DyyJJoCY7rnk8piIAXEpp2WqGorTAZZHErsmOax6PqQgAl1JatpqhKC1wWSSxa7Ljmsdjhy/W7i/2HCclAlivSRZhlfI+9VjKeNSiVOd57mWiZB82aWSHDh7Gh78uLUW8YSW18mT2bGx5v2hJyV7PUGUmKwaj+PFvIaht8HZ7frrt170SqGNWEMDSRmHepLyY54WiskDATFqyCKtIrSvjQcWM2t+Lb5UcxTdLctpY/2c9RVgI2TVrHo+jS638NEnLZX8rlPGot+RlmQy59MP37uque/1ZgmrUc2HFLQu842jyoVi+RlCis7y9VMRy1KCaeM9fNatOSnqKpehDSqxu/8+wp/qlV57sfudti15DV2h5WTev406P/63c/gfeb1f3Amz3ueAxCzotWs9738ZImnT88brWfbma/QMXHO/+9M98+5pLV+FaoCYjWYRVKGtQKONRScnLMhmK0iVsMpJFuNmnB7IHFcp49GLJyzIlvVQHnj9R9SkyFzTT+muGaCnApXR45hlkajCXkRsFMJwpJSzYBuynrRxWBb8rXyy1wihWMBwDT063gqO2BZ3KQbA7/3VrI74T7fOHhly05h8c5t6edP9H32d4ZfvFhWPRz+xjaPG7W1ST0vT6f26eixVPuS1CcYc6ezDPZVw8U8Y7/gbNh9G+U+z762Rncfzv37evO3bsmIQ2+yvGwkbn31H9v/+cue5tbzhbbcEpsr0HNdCluA46uW8vd/Nt3LGGwkINVcRqS0kkmX+19mUblC0iKKe29E1DInea9t/0v051L7viRHejvGaxsuQBnU0OQLmMi2fKdPyvDqQvANEnqCVdyhRhwTZw/lWN9TFbmFX7d7zDXHcxFv4vvOiMbn4BnhHnWC6VNkeJt6Ybf+X5h77s23/kE493732/PwHYev73WNyp8TeJ9odRB7daLOfhntl1uBAXLg+eUN5LeO4syY04ijdN+3ybC1/pODLR26xoSpFglwqRFOT07hIIiZ8AowU8lauAnkgkbG37l+Fd9Qerd9XT19Psf3qzSKvYX+begRQQs+X/w5cdxjcTDkls+djyvG4jY3IUb5b9X7TDEGkHD55C20a1cZbaX/42yRtheRzuQoqEycffUbypaP+BA7BMu8Np3P7f/9Bd3duu5RMA3DfFeFue40Wt2++3X37EG697IcLtFlzGS0kv4ldYbAZlEOico+uUY2Z99m+7resuv+K27r/jicDX/g9tVMkMZDuBD2Ibf97b7iHPg58CKFwePEn/q47BkkYcxVvJ/89+xkJ3yfP2dHe7q8akXJTCnnw/rrC/efEnsY3DqPg/98Lj3Xv+JL7O1iuOHE5Zqf1BMoHiRx48TdD/biLmzT7ib4P+R3Ht9uRM70RTLB+x8KksSWs3SBnrkQh7JznNc6en0mJauXI0wQRDcJL29+3f2x289FCnr+RDw+X0waMmpQBOgDEiQXi5LCW8fCzoKjx3TTnPOrx8kk2ASweCgIrzyOTlZ9H+Pmz5OSavGUQtN7n/12qfW3/Kd//Plv/nsLeZfe79L0FgceA1rXkSJVvE/2kp5SFjDYxtjvBWav9Kb5XyvovTjbYtcWyIK+59TF/Ucl7Cc5fIedbh5fcd2N/dcIRPAUwzGHq20FLR5xF2nU7z3OmpdBV/5zxsV/d2XAD423n0Rj9Ky8Z9LO0BShFb0IteqbbecrF7nmn+48WA34zxy/fcflfGsUMqZHEXl6o3av8Tn1zCbwMWu9f+z0XRLPUsGw8s26dtkTHBBFMKjZ6W/2UxgfY3++gROgHpEQ/jPv+F7uF7dbvPVog/q7rEdYz/A+cflx8Ba8sgVY2/1v/wzA6Lf32JAuc/HfYaG+s6+iKEymQKCTkVOo1wTv64bxQ/S64Grd8+fxNwiE8DvOpuKtw5SqwEuJDlNX0Qd6LlZbat7R/FQmL/gX2V09DrCAu6eTP7fzX7/PGv91wGqqYkAaMP4k60vMzW1f/cRiV3/zG+dIRVNqTCo/27FfxfeXoEujXbf+ToEXlBAfuuF1ubPP8cxVeL9SnACJcX5I37f+9D5rt3vEl/AyCqT6v9sM+5xJ2YynI8IHF1U//wFyw+ZJDvCXD0SBkV1zIUkJ5xrf0+cnHor+3/wfXYFoQfCR97H7ddUI/VxcuQamZH8YPoKuDG/T9Uv1WMBvb2ss87/ZdctNA9+1l7pI3sOYmEBISmExzof40d6/NNiL/a/gMe/o3uYzeVMdjiD10nLhken1Uvr4Bu0fhn6MZWDbrBicjlotEmMzY53Z2ISkAvOF6+kBlGBkWdOEH7+/biaQC2UfCxfEx0TjAfWQl2GXUlpftJZLKgCQRCOmGVZV3C85KrWOZlqJYTTo8dCBO0L1tUcJG1luS+LmSdiHza8ecf/gqeKqpGJPMyVAsJp8cOhHX6P18ARItbb/x57b2rHZfciZvQ/5O2n7YBrbP/Wb8cRRmSeoeDcHrsQBhhX57Y4a1AbmSS4++ch+zq/vCNZ6W7r6y+1BD9bg8BbC7WgPAo5zmIsEqzFF8bGs5MLA9FrDvFsmS//dI+Clgah/1XXLOINwad6P7u89S2csp1C3JORD5J/9OimwrWM3EH2N+FC8JL8GYf7vX/Duz5H0f/06mbGX9u/54/enP3v/9h5Rjc6f2/09qf25sgAxKuU4GgBS3L+WNKn5DT5FHIJ2pS6OWEkGSzXhl9VkyoSYbELOd6xmH/EPamH7z0UlVvtnUWcCTmMj1EwmjRKIVi/jn6SE5wrbbGRwrqKZCeWTFNyb68ThBvOxlMqKT3m/CtO2O/bkb/1/blh5p4hayEW68h/Y7pU3qFpJPG1f/88a/7cRzxX7ffay/dk/qIVEOQNfu63Fyv//3HwO7r3iQyMqj6jD4lac0AhNYaf/yRPt/UNY3+f9iDcQHw23gNKFdLutVa6wxU7lSyEr6XhzXiVQG3v/HuqjlN3xlkTXWyoSmz9s/DSLpMSLLUO377f4+FF58GvPzqRa0GzPi4EUK0z7YkPInrhRFYgSJyrme98Sf6kj0DEh6sFbQst13sPwFv9eFrPR94fwTfNos/9uJ3/sDN3de+bgGE7vN+a/0PD6TYznEtU4o4x9hJhsQs537ciuMvNalX+dTEJKKuyO0O/skyAmXU3VSUjc5zJbNmn9sq9EKAjRmROJaMrWAgsIijkvNAElpqdGcLQ5kyySeLctsgYUksAUGBgoFg+lIHiNHp2OfCn1/15eKBtWetJCXEgITTjcU9uyAehEjtF81Eh0KRAKayCQjMIfuHsS3sUv64dlQK7t4M/6cvJ7tTUE9pUtGuret/bUZoDPvB0JKaMYEy6uLag4luQMKpdvPij79BOoIf3XKgyE4BrS0QELjyHZWmFH/6SlCrRN91YGRHCpTRwIlifSXu/89+6HZy55XW5tD+4ofAob2iwXE4TS5oIC97Wt2+uY9ulEkXdH60iyds4pqRyRbgYkDsEdY0Cfvvff8Sfih8srvunbgQ8HqK/c2LP7bW/a8t16NWL1RSBSVOS2rGBMpobGJorwkUcpvX/vv/0BwW/md2F56/qxh/k+j/zYy/s//VzdJ3qSNmxP8aVpvX/zvZfh6J+mxRR3599EDxXD1mwZSFI1upmaJQjXtZ0GfQPh/P80/f/866I/lJR7GNHV2X50FbSQpYAIP4+kDX5XnQUpICFsAgLiB/3Msv+nLhr6nu7xo3MZ4mZrD/5SJQ3hQVGh1Ar/26c9fleVBUkgIWwGJhhrLZu64oUxSq8SA3g/732qWG5eoPNTaJpXKBMuvt17dM5ZqHbgYxYAHM0uuEXJfnQU0k7TuAV4LiNzzBnSVs5WL3KClT1ur/K/7bGd2znrI7thi2UBtZrUNregJgRkOWrXn18rI221cFgnsjqVt++ZuVOUsoE7D/hjeflG1BH/m4NaiNv956IvWGd6znZETYBPukTFGoxL/l9lj4Y6vPJfiS7xlnMsaSxW0Xf1e9ZrF7wUtOoIHayOwJthlYiz93TQ4Ch9xZnpvLYrwMk3IBhWo8GNgk/6caOVDnoYpor3JdRnl5knVZ5qVM5BhcCTha515S6fGYOf1rx/Halx9ZYtwcxEfEeonjiZ0nLUaWwAQkUqYEsZ5CEqKkCQyQhCP0wExgApK2TBm0YIaYRUkjD5CEA/qxY0ew8L8sLPzH63/aiT3vMaI1m1z8LcmtQ7Uy5BLhiF+CcxKYgFQ0UwY9bIaYRUkjV6T45d9Jxz9rsBn+Z5M9bXf75TagqrPphAGS+EbogZnABKSimTJanfo7SnYyrg9gG9A05v+H401A1117JuKNUZ2TnB/laYjXwuqIxfscftyrVMgbWccEowYk0GQLEWClgAZApm2R8Pj2nNomb//mb3BbEH4fgL9bbtbNSBrnXg+rnNXbW+4yyp3c/Ff4H8a2k/1nPW1394KLdnfffw/u9cn+Vt9Op/+nGX/nPul498fxGwBlEMm4sKHjQ0hycU7yjxYqi7b407nGPaV56aOSJ1gl4Gide0mlx2PmbMS+20sBoDOlDn0yOTQEkxnYjdZ5UlMweqExLCZlEktm6tm173eF68FSNLxAXJLECLsQJn45iSk+LFFOUFHTkLxr7msckl6/fb/jf+zoMZii7jJt5f73fmaL3Guej6KVrXdsqJTzVNN6+p9PWg6n7Ulp9ETFGLnV1DAsJmUSa8bHX9HAhKTaJwqBrdR+fnjrerx1J0aLN8ZpnpPusOcu28+jRIRdcm3j/8ABfrn4qBeq8vH6/79ftqd73s/sRv8x8Uu+OOL8Iwt5odXtX8l+fmSgOhgVLO++0PbjpwRC4atAufWDaVr2P/zXy93lV53oXo+nAu38y44o/S/YmNYfe39sF+747+4e9fBd1sOb3/+c/ycZf3/+l0vdOY87rgGtrpX4jgcdE3TJZP0vgywaNrjZ1/ln2v6XLZPslMG4YK94B4mMdpOQcbBxahNqkgRg2lTcAs+RMg4Zb1vR/qHDh7pLLz3ojV5zTs+wydJmAAJLaeNIlqRUkFKJlAApdbqHVBqA3AVLCowjWZLq2T+K1xZexrv92Oe/nfuf+4E1Rb+QEn1jIqeRpdIA1uN/tz+PM4ZXkTFEvZoC5qDkjmyP8SdDwhqdW0YPBMxByR0pJGS+lbFo3isyFrGk6w/VIWQcxu3//IPzFCWwbnAiJcCrdlp5Kg3gdOIvfhhsUu33htz5Tl33+9ee3d3z7rw7qzXmGzzlDjQAWcK7/8FOaxavmO8TIu4NXgLCiwiQRCsAtp8LLxLTBYHIy0EDxRRMw/51f8ivCS927/uAfa2VdbM0jfhzWynfRva/57vxWk8s/HlhOav9LwE3gfg77+nHu3cf44UwlWtYKwQ4xb+wysM26n8Z7K390r/W5Q6Xl9ba59WdQ4hKoSJaohoNJD8hqmbwC4JQ9QBWtlrp0cI2IecyIjWD9vkbgb34O4SPRamXkNn5Q3OeWvSuU26NC2RKDfUkQIgnbLpW3JHMhRIOSr5x+9zTz/46+F8uw0e8jtg8UvUb0KK7WbmCEFoI1iz3P79SfCn6ky1MCe3fLP9LHYJ9ffXnYZBBtNRzd4/gkshn3P+soC7Icp3ZF7w7K22WZhtsIr3m9ghZ16y2f+ipU6p16H/Spjn+pQ6wP8d3JDLmpuD/Bz1gvnvzq8/s7vBt7GedL5awWmdkyH8MRt7RZ+JxHjDvpEpSgr3gf2D+g6y+uYPSVRyJAjx1gIMl3ASfrv3Lr8bvA668rftCeGWj1HKbx7/3BvtknOP/3z0H233wdp87fafFx4z3P9s/rvj7+Rff2l1zLZ4sxQQ3cOjo6BmO/3H6P5oWuNmfGf+Xve89ZVTJhiW0H8EbtcZjEHuIUZgYk8zRGnlKGDpaUclKNYX0Suf4zbAvvxVADfOPhtlQbzlARz1PBLKqy4R4hi9arUhPvpBxA54b01HPV7DPjwDdcMMN3RHc6R/16H/W/F+4YAPxx6c7B38FF3RxBVAq7/dXwXcHe376/i9WeIVuVktjarv637tuq43/spvKictngZXmP95M4FMASZs8/ofij68D5c0AT5OOv0cd2NW99bfwYTAMo9KbOl/OSwV0WvU6ac65lK/45F1P9bwcoWeZ1zAga1Ebn6RzUWiykuHrYPGNQtO2/7nP4WvCVy12/IaATNNlAwWbtP+lzXXDQz1m3f555/Ku/57uIQ/apT27hfqfX6fbaPwd/K+3dv/fy/W1sxL/6LuV5p/UtdbnW73/48Bp7dferfvfuprTZP+qW0YNBk0OBBX3QvUE4PRUDgS9QEicFGM1sB3t84eabP9BvEkGmbgltltoA4xI4lYUX/BFetRDuMerCBUqxYVmDO7nJyh1Rk2Jp36kfulC7Ufvze3a/3L3RTyEdk/J/2ZOsthXtf3LbO+/yKAjdHxpae+X1G+JnzjRTAFvx/GX43PrtJ8XAHyiyBoz1f3vdOXmY4wZoVaECs0iA4xIivaP4Lc+B/Zr3UQGlZl0/O39sfnu8H88o3vQA/CKRkxCvOsvdy9hW/rX1visjzyfcICLfBC0fnpuk6cHybPgoQx1kZTjP9xaYfuwEJPPiklbp2//6B+f7F5+1cnuHdfjLq6dvVEVrbvUCYglp0sT0a6tGP/eFsmtQZLlgzcvtE9Lefvvc28s/J+zp3vGkxe2fP+vJ/5uvnW5O/eJx7sbP4wfxzO+k8fUT0PHHP+Bu07/u7mdGn9bqf0+ZooY6QVDlkLbFJG4CrFCsFfO+BIIhDmBY+oajMnKhkmphorH6W8r2j908LC2H6OSX5jtJ7aKjfUU8Qgbf4Bkpwbxj5zweNKIKlGUd/c5e3IrCZPc1aMM9SGFXnJCwduq/l9L/MVtGO5LdcKAswdIXkZZOA74X2ZlDopeqhVGXGH+/uIQ3kZFrE69fjOBNv60V9bS/3RZz4/V2KC2Sfm/eAogVjxOYixYxw6QJh1/B/YfwHxxZGLtH/L/WXgIcOjFe7rnY1HHvkn+906w/pF+42Z9yKhrcOQ5J1wIyPmHqyIbf6lrBdBSuf8VV5OZtxn2X3PtCbwx6GT3iU+yHpOLvyH/m8vJAhj8L5R8yH7LNELTmn9u/03z3fMv4o9893S3u53WZrv0v67k2abgf4YCkwUxede88bbuxYcWu6/jDVOepuV/9Xi22+yrB2bZ/6nPNIZSJGnNfcEuZOOR4yByuRuj0onsgIq5cBbSMkYvsoBQfAfY5wmfd9n0NXvSaNwB3AtgrtvHL9ByPNltKh9a9BKTsOxInPvzcX+MoKQbjh0TXBb8gI4CJ7v5n76jn+DBIsPyYNl+gOd+PA3/e4+Y+3MmHUdbNNZP8S6r6qCMyVb2ZduD1ZkibfyVHhNXm380c2eZ35PPCiELg0Cj+CbNP0eOXo+xv18rXPU/iawlk7DsGCkKh6M4BYcxxB9vFhw4gLqp8anG376HzuO97Xu6H9+PN7jAPqug3/JVj4RlvzSeVBnnchvU2g9imv/kQgAyyDmudE7gowMWx4H9D97yPMouwZLMw+Co4qnb/+rX8RExbAvi14RvxmtDWcU2/jUO+O2ISy5a6O59Lzwpkt4X92yr/l8p/j6LLWN8k9QV1/BNUhL4lhliPskxUwiVsmQxbdL8J5Vp9qfif3S1TSEpThIgMSAHkeIEqUNLJYRoleQg9GHHEqbDMkezQoWSHpZ12QxkcfD8c8skpnJSdV7DNPvN/y3+igETx1QaW1mCUBpHUbaNP3gmxpI6qs0/szP/P/sZC7jLe0Z3t+9DBMsihdv6tc8Y06RJH3LhTthQsphU0rb2kMkLAZPlRYC/BlTKaRFSpSTLiif4YwIrQ8407X/0Y3hbELYFve7N/H1ArJlV1urqWcqdbbm2SI9ZxvAoC9Ksxv++hyAW8D7/H5fXempXb/f+j/G3jLdb8aLw1/Cj8S9+USM7Bbx3peexTwEr2ZhJJgFZGqRZ7f+dHv8bbX/ubd7WsDsi9fkvRwKjRidID7WCVyNZu0RbultBOlLCBWn2m/8RVTFmJEqqQ4s/WaC08VfFxRAaYwlwmm9IR0q4ICC2+W/LjL873pFfcd0ji795LsQ5cVgm3YmDjxH28xIOspefTHJsHlniAprxwAP7Pynx0pTPuvkmqnnIOVdChgaCjJVIMpOy//Z3nZQPib3nT/ypJS2HxHZ5RQGzHoKSjpRwQdhGcGMZkaoO5jdXW3FLNOoCnOyRjpRwQUA8Dfvfd9f57mIs/J/9THwvgoo2wf+s9mb2/++8Tfv/z/5i5/X/ZsffdrEfhyjjOYx/3lnARGcTo4xZG6Mi6AfT0FNk/JqueE11Zc1+9kzzf4u/Nv7a/IMZAasMzguyxqnPPDZh5Hkjz6VWJK0BMz5KeuvNvw/+0V14xePu7vxH2w8+vWnMkZjZ74QVh//Em7JoJIkO5UyDIw5yuiMZNJ9/ZIsQJcDkgs+TmyIusCgB4rnRJ23/Srwp6OW4C/wZbAOpU6wjeYrX1Fwqc3L7Zyn+FhY6LPz3yOL/O+6g/Zba5X733No7af9P2/6Nf8U3RJ3o3vS79Xaf3I8O5f5Uylbv/zj+pEXWwLqdrf2xv90b/fEvfhvlPBYbzas5AQ9gUY0eveAqUh1HFIFUzQl4AAsLPXrBrSyvxquVBTyAhZYeveA2+wMeGOEySNacgAew8HCPXnAHrPetZKFaWcADWFjo0QtuVh2gEUUgUXMCHsDCQo9ecIPVDI4oAoGaE/AAFhZ69IKbjQZoRBFI1JyAB7Cw0KMX3GA1gyOKQKDmBDyAhYUeveBmowEaUQQSNSfgASws9OgFN1jN4IgiEKg5AQ9gYaFHL7jZaIBGFIFEyfnJJ+Jd7z+3u7vP92NrTmDpWhCEZWzS4XcESPBkC0UR90Wj5yajPBDtysB3FCUjST4YDaCyQZiw/X/8UtddfvWJ7vIrT3SnuOKl4ZSsQqFeiQVgBFlERvNqTsADqHaM0KMXXEWqYyzy5J9Y6J6Ppz4P+GH0sdd6Rvyf6sP6h0qPs///6Z+Wu5fi9x/s4xMnghHxWcADKCyvUI9ecBWpjiOKQKrmBDyAhYUeveBWllfj1coCHsBCS49ecHekfXPJYFY4JPouwoVQD3FJu5vgfCc77sFk9B4bcpEW4aRiEHDJZl/uZrmP3C2Ou3eN3mNDLtIinFQMAi7Z/N/8n7dNFMEkcWNxUmZFRHkkkRjhQqiHuGSLv50Qf990NrYF4SKAH306G28OYq9zxS/7+nH0tWKCcDuRT5hEjlwVlyjiXX/idhCQ5ZlI9rvKhJ2eAUpRThVO0/6ff+gUFoiL3Zuv48efvHasibbaKhYqrTUVgol7KZG1Q6RFOMr0YZfcmH0+5eE+//Mfg9v/SNQ6q/6XCtphnP3/6jcsynavmz7NL2FX3ReNFrBLbsz/VOmaargw10O8VLM/q+Ov6pnYg2Bx8kyzm/JWKJAKy80SK+ch4KU1dEEVBoRKgaSDjGa/+b/FXxgSANv4K6bS0jmGtfkHs+wOnn/vex9cCOBHwk9+wgL2/efFYjrZ8DY+GbLIh6OIM9FnBvr5B58ByCQIyAfGpFwtTwWa9LzFOFUzvlidpv23XMcfCi92f4794ayHJj/ZIhfQGpcFXBD55p9/73ynrvt3ePXrxfiSr6at439+s2Ic/f+uY7igw3afPzqq+/zb/N/m/3ApH8ZrBk/n/MeZAHFqM4DPD6ZL0RVCTkqP6BAWZhqcXJSlx2A0gOQp2uyP8LA4KP46P3pVnEdC83/hlj4Sgi6AlGvxx/Bp46+NvxGnHAyQWZ5/nvDYBfl9wAPv71tGMKg5H8o+II5uoFioyY9ISY9XC8DlRDoQ/6KCiiAwh7ew+OsZRSF14o9lJRFRSsanZJ/XKXwacPlVt3Vf+Ec13z/qLCf0ABJXdHPG/y/8W32S89130p9uixut8uLfLeB/qe46+//Tn8FrPbHd5+rfOol+2JrjL7ffOm4wC0EXQIpuZvztFPvuY52jktPZ/BUSSuXLhgJZoVBmxSsUoWotajAXqKHCZIHUkoN4s88TX3BN83+Lf4uHEAohQCqwGHIFUgkOo238tfE3rflnFz4ZwLcFveB5u7s7fCuXUvnmf7oQ8KAHU+7e29JDo9eYfErgcgbKnX3S5XWg1JwFBHJSGAabYf9zn1+Wu8j/41V4bShricpNy/+h6Qlcyf75j9qFj3nt6R7yIF6NMZlPt7D/tR16XK3/T53CPn88uXkZ9vl/+SuxZIDhkrb+8lN24YzgpNHgSvFn0Ta6MDmFyQJZuZxxZ8m+tFcrZE1XCqrqsxfzoWTykQVF/g5ljldRgaxQ6QNavEgZ3GOEAO/ESIFC2Gjg9NMAr9lv/rczm4cT46YIqRZ/8IiNbXFMG39t/tn+8+/d7j7fvRD7yH/mJ/ewsbr3n/GPPT5zWMAv873+HBfFZCEI6GnECKwHKQzQZGSBqnfLySe6TN08J0HvkpybyCFjc+y/90/5+4CT3e+/kxcCqIdUfTbG/33vo/v8n3IB9vmnyVsqSKf5jCWwHsjzzVXoty3gf3nws0L/v/k6Pq3Btq0b2S6boyUPzU5g9k0mtfVXW38ybsIQAiyRksLFAeT6vx9hLiKaXAGRiqEotXAADgiQhKRTICYawFq9niqR80OUIy3hCVBJRXFs9pv/W/zFkaIDxI5t/OlD9Dh9RLhw1oAXk2wCtISiOLb5Z8vMP+cewGtD8URg70PyF2M5dbAv/eQkF4SCCHX4/INCKofYQv9LCGAROjeHtw0hxwuHXB14QUZVZp1mdpr2r33LSbw29ET3lx/lQrOfWBc/T5Ob8ARoGUVx3ED83+Hb5nDHn1/x3dOdYVv9t7v/C58C+cBf6g+33yI/3A7+VjdP1P9mosiqbm724Z2h5cU44r9wvCHT9H9pS0aeD32ykGRwp6baxACcdKYg7vNAUpoAFa2PPXazD38Gh9Jhzf/wiUZKjhdALf50OIVwaeNPp6MUJwmoZx7Fe+w2/+yY+efnf3Z390JcCHz3d3EusfhA//PtP7xc1I1CyDCo5HcCuNssF9Kcn+f0aUEdLrz7yNIprgSgLjUgEA5yweBymQ2x6dm/9dY5uQjgD4X/+ausBKuJek7x/POcZ+zuno8f+N79brbdZ4rtZy9V3TNV/9P6l7+C7T74jQa3+5zib3yn7H9pv3S8HZr9qcb/LPi/qEOBeEwgt+khhkoZqzqUEMBDwoEIUBcpBlBjUB4kk60hGplFrLrhQeFABNjs0+XmCDqy+Z9ekBQixUkeWQl3oMUfQifFjnluyIHRgxZ2Lf7MEQym5MPh6XPQpSjW4m/j8XfnO/FtQXs6XgwwceEvsUmE/cJuMpqcN4AbWaJa3hAkNCznOBhsFxGLiyBzdpRvVaE+iMl2V/l6cZCjqNkCmAw5bVL2b/oUfmyKi4BXvX5R2sT2xcTa1zTyNxJ/j9y30F2M32QceBh+oBGUe1vFPun0l/lkUu3fLPtXv57fbFjsPv03+SnMkK+HaBv1f5t/GVgWeEX8FeEoYbjd/a/tq1tZ4z41GL3HlojEIThTvGeHKD8IR+KgLhMos2hCJotmv3SJY9G9g3AkNv8PxFIZeLW7xM+DRO2ByBqEI7H5v/m/joc2/2JU4ORifum5Z3DM6NirWbGsw3v/Db8mvKc7dz+2BYEoa3aY4+mMMrxby0sD10VQ3/wDOmDZ7uPKvJBI64Es3a3OpRd1qW757TCZnkTv5tiX103iTvS7bsCtaG+L18sJRu+xKTdIVAXO+oF7zslWn2c9dbf4YJbaLzWdgv/fdXQJd/1PdNe/51R2mTtI3TXgSxMoM5cunVxSBYvqB+FIZIkad4LRe+zBMmJaDlF+EI7EQV0mUGbZwGCZzI7qB+FIHNRVGq7FxdIgUesQWYNwJE7Zvpn2GmjumFa/qpEwOY1xEsOEBiD9gFcKWGmTk6kuwpDJdw9M1gPMcqeKuqiTsOlSmWa/+b/FXxt/ccYw2OaJNv9gVRN9wSkUuD69MV+1+RdeWZYfCL/geQvdPb9vXhaoPN2Qvoxb+3NcwsvVAUk4/9GHoPFHvjL+6FC6Uw6QFQH3r9Mhg1L5gsIfGegFhp9VYynKT9P+q99wAluDFruP48lATqFGAnpN13b+vd3t5rqLscf/kosWutt/Mz2k7c2PTGan/do/PHoaj/9v+vSybPXhB73a+IN/xcEeV2XumPeAjinrkXXEnwxJ20ZMnc3/2f99X7vXR3NcYkTeL5go4nkvhg5NDKeFfCVeEOuD/YKJ0uyHma35v8UfRo/Nq71xlAZNj7MKoV8wUdr4C/5u428Wxx9fFSpfE8YXhXcxXpH0GLrORgCHjvPI1aW9RXtgyvKWCxA8KljmtYEo5QLbZJMWFPKLDN/zEmxQZUzBBMjjs//Vr2GxerVuUTl+PFpcC+xtUtlnXLggX/H9we/Hdp8t0n7pjjH5/9YTXffyK2/rXnrFye6fvybdZE5E75WuKp27Eq+UrLB+wURp828YxM3/jL8UG1UUGWpsySKs7FxYoYxHbSUvy2QoSpewyUgW4WafHsgeVCjj0YslL8tkKEqXsMlIFmGVyhoUynjUUvKyTIaidAmbjGQRbvbpgexBhTIevVjyskyGonQJm4xkEVaprEGhjEctJS/LZChKl7DJSBbhZp8eyB5UKOPRiyUvy2QoSpewyUgWYZXKGhTKeNRS8rJMhqJ0CZuMZBGevP0H/gheG/q8M7rHP4ZPA3jPesA+1hByY9F4JgF57RvWkuXwXqD0jTFqoz7VSUlPsZQv5/mEgKU3x/6H/5ofEru1e8NbsS3I76B6I1GzDCqU8a47B29ZugRv93nMI3Zv2fbzq88b8f8bf/ek7PO/8cN5u0/2UYY8Avq5yUgWYZXMGhTKeNRU8rJMhqJ0CZuMZBFu9umB7EGFMh69WPKyTIaidAmbjGQRVqmsQaGMRy0lL8uUdJQILID+RNOnqMylcmByhRwNRbiUDs9colAF5zJyoQrDmVLCzX7zf4s/DBAfnNVIqkdLG38YL/rMueepTMizTZt/2vzv57+nPAELWVwI3O8HGR+yEQhTD2DZwM7osXHod1cpJmcu20Ijd/Q1tvRIfpnEFsrLliKUFTkQZXsRqLwA0E1Jm2P/j44tdR/44MmO+fs/KK+rQRP788+P/PB8t++hC90D7rure8JjuXhG2gbtP13/v/+DS9juc1v3u2+nr5B8QlFsxDFHh4tnikZUnu7BGfB/VhxLNvvN/4iHEee/HClFTDnZ8xxaERIuD54QoV7Cc2dJbsRRvBzTLuF5oSUhwuXBU7Pf/I9Y4EQ5GDlGHMVr8ae+y94b9JSPNvUxRTy18ZfibtBzRhzFa/E3m/F31lkdngbgXfV4beg3Yz87aymLQsS7fD+siH9dxsvu/jQRcWCwHJKAWl4J+ZjjAhcB2Cu0bK8bVQlXRmzz7N+CLUGf/PSp7hPY0/4p/E7g7veY7+6F13jeA39nn8mZY3u33/tiqP//4R/xxWVu98HH1nJfagk5GnEUr41/GR5wlXvI8+DDAAqXB08cW4B9pDAvkjFdpubtRP/DF9pscUp0EGEk+YiJuJSISwsrOVvkcKgdbuoKOS1pJcS0SsnRCiQYYs0+p1TzLByTg1S6wzmDPjZ3DvKkdPM/gla9lGIOrk5wi782/hAfbfy1+YdnrPvce757Ed4W9NQLsJ8dC3qZJ+gazKPE/GezpDNp5Khcf8c/pGz+pRzPnsvQyRt1/nYcTk3zPMgPB8DzIvrIoNmn12bE/1dccxJ3/Re7v/07jwL2P3s15wBD8s5UKTlagQRDuq1/dBSJ4+CYtv7RmKI/LFzcNRJrgtjB+Z5HnpTmvCVzDqO0UFeKrg2zCbEI+Wg6wlkjb4zo04lhfpZcDWr21YNxyok+jXD2ZfN/i782/jgehsdHHimrQW3+2Snzz/mPXsDXhHd3//oBuBDwhNW5zKV+/rNFejpdy+q9ugzAVM2b/PI9AcaflHGFyJMO1UL/uvogpWCzvyn+/4N368L/2Pv4oTh2Tzv/5rlUPaIBGuEcvW39ocM8+yz75vSgdZ5/YESW/25ssJuciFyvwJRAk+numCuQvOJ4+UJmGBkUdSLyZp8dpg6pvBwcWnHcf0FiFDgo6kTkzf/N/y3+dEBUoywMqYrj4ydIjAIHRZ2IvI2/2Rh/c+gI/kj4Erw29I53QL/YnKz9yteGhjMj+k3W8rY29O5kS1hSki32pX+NRLpIsDyuHbhYIqsef7TU7KtnxJfy2tbJ+v9jN53Cdp+T3WveiNf89FIb/3X8SyD3/NQnxF5MXCcib/Nff/wnPyVg7fHnrvWZBSqMlDmiVtCCluX8MVVlNqlK9YoAinu5bIBQ1huDRqjGUjVZzvU0+8WwS65Uf1VHuM/9Jpzk2+zX5v/sM/FK8hHp2U/uxxZ/Lf7CsiOFSI6iACF8PG6EmmIrx1Ubf9lf4pXkI9Kzn9yPmzH+7oZvBrwQ24L+7dMXpE76zh6rd1FfozHDqp4fEpuXn/ZyiY+UZAHwYkB+RKAsysudUsr4QwQW4FUBXq3J9otS0Jp9vTwSz7lbzI0p24D/b7mlk/f5vwyL/699nVdl+A//+0VYG/8Wz3T2KP8bz/0m/ZJkDUi4cFVVQctyrmczxv9W7//k0bks0QAAHodJREFU0p7zUv8lkdATdd9mGYEyWsZAohuQcOqrFg/NvvkuOIk90HddJjoUigQwlU1AYDb/t/grTl4eSx5wwCW1+JO1Vhg6cEvGBMpo4EQxEyjkWvxt5fh75H5cCOC1l/sftuA/K9I4QR9zPY9VooQJPxomC3bgXLfPCZMsvOcHsNBkoCmv+CGw6FGmhI7jXIBCH3XJnl6PK5ps9sfm/2vfgu0+V53o/uqjvt3HOiqMcnG9+5/djj92k6SEGJBwyrXxv5XHv/eydGnRr85BBCS6AQnfvP7PNeEElSLVAtYzr6jnpEfY5PqkTFGoxoOBZr/5v8WfD4gy92HjObkRNuk+KVMUqnE3A3obf238tfHnA6LMfdh4Tm6ETZqk5/70bvw+YE93lztzQZeXdSrOo97CF5z+FgCH9FpRVeYswWRsQoay6QmAysWjqDKCws2+L6vdH+5Awd3JvOpawf/v+wAW/viQ13XvPJnnCFUY3T8QEllIoRr34qC3+Tf71t3iubvNc9IjbHJ9UqYoVOPBwA71f/KIA3UeXCQTGnvJZZSXJxmXZV7KRI7BlYCjde4llR6PmeOD3CnMXU+kFXAl4Gidexmlx2PmNPv1tXvzv8eRR0kvrwQcrXMvp/R4zJwWfy3+6rW7x5FHSS+vBBytcy+n9HjMnBZ/Zfx913fOdS/Cj4R/4dl7xEm8yS934oHRg0x6919hHku/+6VD4EMH3xKUz7+2eoWiubmw8cfI2idqrdlfn/8//wV8EfnKE92v/+ai9U/0v/dNW/+08V+Of0aGj2ePkl5eCTha515O6fGYORvxv9vLFU7PDH2yonqkla6QcmmvleS9oZGsFWImy6kNqdmHI8QT4lX2QvM/4wJeULdIvJSH4cBq8VdNDcNuElcmVht/bfy1+SeNiY3Mv+c8eAE/Et7VPRpfw2XiD4dlCxBgXTLoqCMNW/lleuMiP28LklJ601/KsjaaOBX6mOU8NzQ56vyXHxk0+2v3/2+8chE/8j3Rff7vzbPt/DMUYhaNK8VfOGkPi4mOxGrnH/hZfUafbGT+Wcv6xz82OLy20hpoNVAnv/cvZBysntX0Q651uoOSO5InLmmekUOYiD01GsBmv/nfIo0hQ7DFn46PPLLMMW38lY4RB2UvZQhhZEibf9RlxZG+saTrH3WWkHFo40+do15JngJQnv9+6mnYFnTRnu5e99CbOf6RMNl5YoXTBQGL0tmc4MgTXTiVYx0v518AsuAHT/wP0bRmEnkebNFP0FR1S0B4EQFSs6++G/L/2/5Q9/n/8fvhQ/EnHIbU4t/iT6NQfNPGv8UGMo4rTT7ogDkouSOZTPlNP/+gCqh7WX1WUacKbZJUFAd/BKniuUHCB+oBIaXSrCRYeYBstlrp0cLNfugTukS8VERL5Tegzf8hzFr8VQERfdPGX5t/EB4SEtU8YrQ2/+dzIl2y0fn3W79lDk8DcCGANwbtOQNLeaw+V/L/EiZzme6lP3S8LvGNPyzF/yjPO/pMPM4DJk2SEnAdAIB0lDKO8kFr9kv/f+RjS7Ld5w1vxj5/8bL6Vh228f53PZKjM9h1akEiK7G1n9r6q80/04m/Mvo8DI0q2bCExjF4xaLTyysXx9wIqmGSOSqTlVgfzaZkBtcixFda49mQTcWafXVF8z/80OIvjYtBoI0/iZE2/6w8X7f5F/4ZOZeUJy4//9z/vvPdJXga8OTz8bYgmYjAgQ55i48v0ymMxXt8o0+pjUXwGlHpACleDWMu+fFWIX8SAK7Ypx3e/ufNbTHLyguwY+1//Rt8redi91K83eeWm82N5mzJDDZOkbX4RzydZvy39QdCaKTPph9/Kbz13kJVs95AUIIXqgeA02W2garMT5xiAEWk2e9f9Sc/MmbEhepH92b2r3rS6akcCDpAEye6vICb/5v/67suKY5a/LXxJ1OIziM+m7T5x+fX059/n3gefh/w3N3dj94XXxOGQ/P8y1FIDAmHZVwIyGfFCOMkwLv+cveYZYRvcsh8a48AXOSD4PO/auX5HYUsCWaknWj/tW9a7F5+xWL30Zt0W1Wb/xgMITFUQJIsHxQHq41/H1/qM3OXOSz6J3GCc0swj79At2LZ9UpwbePwv+tKlab5XmWylPAYFVWoSK175awtUlHCnMC8bNBphSXYCAcpYYFQ8Jr95v8Wfzo04rE3bozZxp9NH23+afPvDJ1/dmPtfwleGcqtQXf4VpzkZLXOUexnSc5yoMv5T2Hy0vnPJ0ElgYNy/LEAcz8y5sOFgGimHU4KImNjo7KhZxjVoiYV3g72b3gf9/mf7N7+Lm73sWQ+JCZ+jCucipf872WTCu+3ktHmX4uxNv/KyORI0jEV4qSKsWKFV/HGGX8p1tWGWWLG5B0mZOOR7iDyvJctk52vYi7MgkipjNGLLCCUbfbhLoSCuMV8Yz60Gb75H6NJBpSGlsIhjHg3LUuokMZsIWRSgUY/t/hr8dfGX5t/ZFoI84iDyMdx/rvH9851L8SFwE//JF8b6j8+hXLOP1isL/Md9UvY0kNjSLJ2t3mPG310juOplXw9ihwOwpMLC/BYMNWZ+kljptuJVM/2tf+5/43tPtjqc8WrFs1n2n66DW4oaXRgm/8lmtr6Q2OBESJJgyWMpZJswVTGlIqEMqakyAJC+SnEHyzaFGa2fSh4fSUXqXx1q6JetLgnYMVMmWXukEInkKQnj8BELWTFVLPvV4XJb9J1zf/qDxucEjhKSXFnaBFTKdIq2VQoSEPEPzdOqpYQog1STg3NfvZY5VNDM1+h5Mc2/j2oUnQVvpJQa/Ofj7EUN9ts/jt3/y5sCzqj2/cQbuZBYkMtxVleIoGb+eXjVcrhlwCYpIiu2BK/ntJU0rYWkckLAdPFiwB/Dakq0wpsdfuXY58/F/9f+Ic8T6c4avNPm380GGwE5RiR6Advu57/U7PThq5M0ZFfH3EXQe5K1PQhPOoSJ3KhhEQ6MyDJ1bw7YXckMlHlimOz3/yPOElxUwRHhbT4ywOsjb8837T5RwZKm3/z8Jil89/zfopfE97dfQ++JqwJOSc8Zjj/zYf5T06Z7EhhasYyLOlzJNlLOMhvCcgkx86jS7zLSGEeqMwNpdKUJ8+yLWb/996B7T5Y/P/JB0+18Y8+ZDdKcDBzXGjW/4wFESJxIFncrCSSSkVdgJM90pESLgiIEsxAVlLe7MNv41v/xC5iN4SJg9f8MGQTg/SZ9ZEI+sE09BQZv6YrXlNdWbOfPdP83+Kvjb82/2BGwITPeYEHWaPl6TJNmHneiMzETkSVGyUd5dv8s5nzz52+E28Lwo+En483BskWHa6KcC6O/R97UWAunJzI3FD9VYDhkJFo4upLkhaSIw5yuhd67v+taP9DH9XXer7xd04W60l1jzvJXBCyzMntb+OvzT8ynHCI48+GCQdUGnYhlCI7kTW+cpQlhgGZM534E3vZaF2d0Q3rc4KWAKpGI/ToBbdvHJQRRQY4QTKAhYUeveAqUh1HFIFUzQl4AAsLPXrBrSyvxquVBTyAhZYeveA2+wMeGOEySNacgAew8HCPXnAHrPetZKFaWcADWFjo0QtuVh2gEUUgUXMCHsDCQo9ecIPVDI4oAoGaE/AAFhZ69IKbjQZoRBFI1JyAB7Cw0KMX3GA1gyOKQKDmBDyAhYUeveBmowEaUQQSNSfgASws9OgFN1jN4IgiEKg5AQ9gYaFHL7jZaIBGFIFEzQl4AAsLPXrBDVYz+NB/vau7+KKF7nHn4mvCWGhwdw/VJPuycg94BSobJZaxSYjfESDBk5WVarkez01GeSDalcGs2//q/1nGKz31K7633uoNlVYklznVc+M6WuSjeTUn4AFUZUbo0QtuYdeREUXArjkBD2BhoUcvuG6yyEcUgUzNCXgACws9esEt7DoyogjYNSfgASws9OgF100W+YgikKk5AQ9gYaFHL7iFXUdGFAG75gQ8gIWFHj1pMU6ZeR0kj2UjXAj1EJe0qxnnO9lxb4zRe2zIRVqEk4pBwCWbfbmb5T5ytzju3jV6jw25SItwUjEIuGTzf/N/eGzpYZFixghllrgEYpEIF0I9xCVb/LX429rx98wL8dpQ/FD43vfiRh75qbDkHuES+ly8h8So54pf9vXj6Gv7BOF2Jp+wiRy5Ki4aeNdfDOhBjq5+Vu1f8wYs/K9e7D7+ST7zYHLvtPHfxr9GfREWgoQ4sXDxqElsAJEW4SjTh11yduOvqllsAlicPHzUG2uFAqmw3Cywcu4CZTqGXECbZCobLtvsN/+3+EvDSoA2/opTWekcw9r8gxu+bf618SI3zj0ykNMxW/P8c/tv7vAl4TNka9BZZ+WmWONSpudNjhP9NkDeAmTnX97G5++MZZEPKeJM5hpF9PwvHxNWggjIB8akXC2fhGzdMD37R//4lPzA9w+vPyWVaONfu5bOsB63znEMuYDocCeZRM7a+m8nrD8ZCZwBtN+rYFB0hSWHlB5xQmZhJlOtyNAxGA0gJRVt9kd4WBwUf51eeLf5X93R4q8Iiz4SBl0AKdfGH6evNv+0+SfcPYwDCANkM+bfH/7BefmR8FMv2N3NLaF3in09esrlIliSzH88GEHAjPvHxeQ8zYsCv1qAiCykB+JfS6vAZtr/m88td5dfebK78jUntK3xWLQ/MmqYgmwRUgAz2sZ/G/+zNf4lVi1ANzr/aMiHwA9gstMDIJQvGwqkJzpEiFfowg9GAzhUVGmFyQIZXSZwmn1MeTbniVuC0wMYPFaBhcsLpBIcRpv/m/9b/IWxEQZdAINABRZDrkAqwWG0jb/tMf5+4jEL8v2ABz0AK3cZUB49XLQGUggDTvt+819O4pT0YrKm52LHCSxosG/+pwIrItcK8jQBxCna51OJy7HP/9euPNF96UusD+2zrmtLLf6tu9xdobsD6Nx+zv5PLi+QvuwApfl/dvwv/a0dYl2vFHQbR5TRBjpxkAdF/g5heapog7JQmXSCKgxMN8h5J0JsSmZwkh2qgMsEXrPf/G8rSw8nRkcRUimmQBVGi782/tr80+ZfO58Uk4XRwikmgwO8TTj/4He98iXhFzx3T/ftdwwv+gR9GSvlOdYJ5/IlqZvNhpgjZe8/m0AZfANgmd8V4DlfmiUH4J4LRzBq0CSFAZoMJ1yzRT7RSdh/69tO4q7/Yvdnf8HLD1tg0CDTJvhfDdux2W/rjy22/rDRW4SxD+lETEIJUJaiOKbLwUrAxwU0jrivkGxEoNaS8AQ0+/SAugPH5n87F1QBYkHlD3EjN8ImlrKal/AEqKiiODb/N//LWqQKkBZ/4oE2/iZ//rvbXea7i3ER8Jxn7pKbabww8OWxbBPAHCXTFEMUKUYq5YRsBbCOlfO1UbNsVUjl0DbXjVX/3BzeNoR83PY/+CG81vPqE91v/+5JqX9uAyrV5t82/7b5txrVaZhg/I6ef+KQxkDiyE/ThmpIswYmEFCUa4OOEkHcx2GSS4Cqqo89drPf/N/iz4YJRwdSG38YEzpT5PkCEP3C1OYf9YO5hO5IfkqAitTHHrvNv1t+/n343l3dC3EhsP+cXRYIHhE6VHQ64bmc/6y5BJjQ/3z7D5cLulGIND4doOySlNC3A+nTgjpc9ANFplf04SDzuRqQmuAgFwyirWAP2v/KPy91L8U+/5ddeVt3ahHy1IuybfyrJ9r8JwGRQkJiDCTxjgS48QeyHrsOaJbZ5uffwgcFYg4boolfwEhrNQ5IunxQOBABij+HBjB9rVqoPqUhGplFX3nJQeFABNjss6fMEXSkzSPi0xIlyT0rcDw0/7f4b+PfR4TNMWGqcU4xgtr80+ZfzLfTmH+f8yx8Tfii3d333hUXAv7LXo8/XlBj24+kYv735/TgkE55AHK5wHoDN7KcF+QNQULDop+Tge0iKvTyRLFO+6/Eaz1fjn3+N32GVsvUzj/oi+QW+hiIZZWnlEci+G39Q0+ZI+iT5MNh9w26lK4EYzv4X9tXt7LGPbKM3mPTkYNEMkpWFEtwAlS+r8sEysyER5XJ7Kh+EI5EFqtxJxi9xx4s0+y7B6K/BuFIHPSlCZSZq9e81hG4kTUIR2Kz3+K/joc2/jEq8gKj557BMZMHYJQfhCNxUJcJlFk2MFgms6P6QTgSB3WVhmtxsTRI1DpE1iAciWO0/y+/fQ6vDN2DHwrvtiW4LOVlzcN1D68B5OGaVlO6mLis2ckDnVXjPX1eBjARJ6hvHuITA+gBUfRQhH8iREFNRPXlQmuzf/178FrPK0507zqmr/VUhVBMRTkz7ZYZryQqFlmDcCSySI07weg99mAZtV2zYtkEJ8DK1HizD8fkju+5p3ayudGzKD8IR+KgLhMoM1evea0jcCNrEI7EKds3014DzR3LbQgUAf0xHwY08PQDMilgsiaXO87okMlXT04rc8eaffdA8IiAzf/qkRZ/bfy1+afNv2F+LBZLRrc5U85FO/D88+AH7uouuWhPd/6j+TTAF+Fcqfst+3Sf3/juKaCQX4YctwDJKt98KfMOaPyRscQfrwTIkwNkRcD8T7L3ywr2P407/S+76kT3qtctQiqmoMftgy3PJoC3+A/+cT+bn+glJWUZPWfQv04rc8dyDwSKgG39oR7Z+uuP0LO5uwUazakEa7RfMFF01rACHph1ecNToRH8keR+wURp9mU+UNc1/6f5byiWUtAMMVei9QsmSou/Fn9pZdPGXxt/mEdSPFRzSpo0KvqqaL+gU572xN1yIfDD98bCHz/WLReAVIzKyCMAsgw2KeMyS4lVp25NtlXIOzUw5fKCevGoYJnXBiwQ7C8uzskPfHnX/yv/ZOq80oauPesXTJQ2/4Z4Qwclxwx4dyXegHgm9QsmSvP/zPk/9U3uwAgZW7IIq0wurFDG+zqc5/nK0eflTVqyCDf79EDty4y7/7KU8zyPpaN0CZu0ZBFWqVpXxqMWpTrP82Y/eyJ6q4RNRrIIN//TA9mDCmU8erHkZZkMRekSNhnJIqxSWYNCGY9aSl6WyVCULmGTkSzCzT49kD2oUMajF0telslQlC5hk5EswiqVNSiU8ail5GWZDEXpEjYZySK8fvvfdHYnbwu65Hl7um++XbQWVuwg63KeTwjwVh942u/5BqeHawStm9VQrmkIM7EcNagmPnNQzf4c4rd/j6/1PNHxLT/9FNscYZV0ex4JGY+alOo8z71MlOzDJi1ZhJt9eqD2ZcajJ5XqPM9j6ShdwiYtWYRVqtaV8ahFqc7zvNkv/QKPBdcA9Cd6nBaYMtcw/TWJ8PqHUjrs+emLJkouIxeK1QVq5rIAsGY/XE0mJxpQeqv5H/7Iv9ipndXzWYu/Nv7b/FfO+eWM0ubfrX7+uc8PzMvvA57+pAU912PSw9cCcGa1pT4GgGzvsQU7F+6MCHluIHfzgcviwHK/u8tA4flZJJHJEwWNHj2S33UfuBH7/PE+/7f+vr/WM3Pb/Nvm3zb/Tmf+DaMOBn1MywDm6M5sGbXVQbg8eEIRL+G5syQ34ihes29z6speTC4VP/Lgqfl/Zc+1+JMAa+PPx5kPHORwSpt/3C8eIZ4HPwVQuDx4avPPlpt/zjt3oXsBfiT8Y/idQO5tXARgr87ynP9GgB3s6wGFeQdffkRMEU/S/3oZISW9iKzmNFC++KVlfMX3BF7tudgtxZv+YLfx18YfQ2aVVaRHm8Zrm3+SPzhEfQx7npnZrZEHWIedEI2TYJbBFTwf2klK0gl1TjKsnJJvaiMLsCtTrhxNMMGUavab/z3KEBj5JCER5JwWfxgrNkrTOLPhNOibNv48mNRLcjSHJbjNP23+3SHnn0suWugu+bkzu3/57dimg4mEN+75Ny8AN+5jHQBc5l9b0Ms44aQDom710amHdCZdOegTBa71r37toiz8P/u38hzBlIkWnaMUzDB1wGhbf7T1F+OJgdHO//k8b8PFXbOu87/+iF/iK6oTnad5sEeHUg3X5TlVRTir9sd9o/hZcjWo2VcPy4wMZ8Wcvmv+z0Mnx1KLP3iljf+R4yNHympQm3/a/MMZJs67cc6NcI6lWZp/7npnvDb053Z3z/2p3VrBcOfeW5Wal5tgsoh/NDG1P5Vd7t55hK/1XOyOvNe3++TCs9T+ofNDrulqUBv/bfyH+E8DRU6uCJ4ZHf+omddQInywmk5ErldgSmDIp6vzYnxUHC9fyAwjg6JORN7ss8PUIZWXg0MrjvsvSIwCB0WdiLz5v/m/xZ8OiGqUhSFVcXz8BIlR4KCoE5G38dfG36TH376H7sK2oD3dI/ft0mUM4k7e3sP4Q+DW9rkGYMSTo4mvDV3uPv6pJdnnf83/TJ/wNf7oLGpJUk5E3uK/7//kpwS0+adYmXr8JP+MBgZFnbgN48+b5iMbnjFS5oi3BC1oWc4f01Vhl1QNuhvFvVw2QCjrTfOJU5v9PMcGP7kfm/+LYZ9CSeKrPrT4a+Ov2l6g802bf2SSKeZaG0oFLfupzT8672y3+fdnfxJfE37u7u7u34sFPbqbW4D0V8CcTEnAVh682pP9rycmfePPbbd1WPifwDv9F7uvftUvClgmJBTxuBGqqwjntXb+z/4S9yQfkW4IMvfjdou/1v+T7/8UUr3gSSGWRLQ2Oe5C/2QZgTLqYVqUjcHrSpr9avHa/G+xE4KJUWRoSc2YQBl18RZ/wXdDTmzjr42/+mmuDqMwmEIMldSMCZTRNv7gs7QETn4xIOEckbMZf3f4tvnuWU9d6C48f6G7r3w/IEylbJi0AXXHrflv3LzUvf63T3WvfeNi95cf5j7/NNMInINh67Tfn3ZoA3KDQtdlokOBGcDgjNZ+GRXBObMa/9u9/3Mk6rO1FOcF4B3lOZkRNuE+KVMUqnG3AnqzH84U7pfKsdl9zf/RF5WbsveykEI17pKgt/hr8ZdWah4XVWDl8GnjL/qiclP2XhZSqMZdEvQ2/mZ+/D3+cQvdo7At6KEP3tV931319T+L2N3zsZuWune8+2T3+jed7D71WV34a8/W/V3jrf+Tn1r8z3z8F2veHMoexAU79atd/qt4LpQhSgLbpP5P9XCgzr11So/HzOnfuxg8P3oBzd2QUR2tcy8ULbuMK2r263t3zf9ljHgUhbwScLTOvYTS4zFzWvy1+KuvHTyOPEp6eSXgaJ17OaXHY+a0+GvxN+34u+td5rqzz5zrbvrUcnfyVPP/tP2f7Q3dO2/nf59HfZbs5ZWAo3Xu5ZQej5mzledfb2++esk/yxcaQ0mCbaUrlFzavSJ5LzSTtULMZO0CsNmHI3R4013N/y3+2vjjMIAXdFjIqCgPwxNLm3+qU9Owm8SVidXm3zb/tvNPGhPt/NvOv9v5/Osf+xs+t+oKVAeDnH/1NCFkHGyeqJb/KpNGEL0npEzPEFiGDJ7bybOk538VFjIOzb46R72SPAXAvOkMyR2x7nC/Grn53/0XcvrGUos/RpUGi7gFhzb+NDjUKylSALTxJ95wx0juSJt/sifa+a+d/3W6aOdfnz9DzoFiqZ1/J3T+xRSE2Mvhpz6v7hyhE2TSKkZrnMZ0IvMFgfRZuJPknZhyFM1WKz1aGDXKdSKp2UcvNf8jEjxcq7gB2uJPBo8e2virAiL6ps0/bf6VmQRBUc0jEibt/NfOv239EWbMtv6CM7bj+quc/bzHjSrZsIROk+AViy4vr1wc8yCiGqb0xjBFh49mUzKDhwRXWuMMT+zNfvM/g3AomgKtxZ/4qI2/leeLNv/APyPHUjlxE2Nq8w+dIK4YfWjzj/iozT8rj5c2/8A/I8dSm3/iRDNq/k1e6u2X5fRkXMnywcn6buDQAUGZDmAQtIMSZ+Sk1+z37zq5o7Pr1Y/uzXoCcHoqB0LzfwjkkdHHUG/+r+/6pTiC33Th1uKPE5uPszb+fH7RgeV+cQdl/yTOyBHYxl+bf9r8ExZTHCk2bCTLBye39Rd8Ei8AzF3Zb4mfOG3+qTyQPZMhBFg1GVU8ngSrUBW1vXJmTE4EhLGKSJqDTitMtQYmKScUvGa/+b/Fnw6NeAyjK5L1REFKG39t/vG5u82/6ZwigyX4ozeOKl47/7TzTzv/FKcYG0LVus1E2vrPppoZPP+muU7nOJvpmDF5hYVsPNIdRJ73kmay81XMhVkQKZUxepEFhLLNvi5YxC3mG/OhXCyB1Pxvg0tDS68hQxjl+7V0HFLyWSFkIRtolG3x1+KPC2YJC4sNi6E2/uJYolPa/J8iJEwjbf5JXklBoueswklt/oV3UqzQNUzt/NPOPxM+/yDUbAmZxmkCNAh5FKl8dacSQrQgZfDGa2LTYZmN7qzPoKSHZV02A1kePP/cNYmpnFSd1zDNfvN/i79iwMQxlcZWliCUxlGUbeMPnomxpI5q80+b/32OTeOmnX/a+V8W6W394WOD5xU/s6RTSTv/9E4p2UvmnOSjBIgn5QDSpM4//xcBZks2tv6qpgAAAABJRU5ErkJggg==;" vertex="1" parent="1">
                    <mxGeometry x="-53.31" y="360" width="157.54" height="80" as="geometry"/>
                </mxCell>
                <mxCell id="4" value="&lt;font style=&quot;font-size: 40px&quot;&gt;SERVER&lt;/font&gt;" style="text;html=1;strokeColor=none;fillColor=none;align=center;verticalAlign=middle;whiteSpace=wrap;rounded=0;rotation=-15;" vertex="1" parent="1">
                    <mxGeometry x="-30" y="450" width="110" height="30.06" as="geometry"/>
                </mxCell>
            </root>
        </mxGraphModel>
    </diagram>
</mxfile>
